<?xml version="1.0" standalone="no"?>
<!DOCTYPE svg PUBLIC "-//W3C//DTD SVG 1.1//EN" "http://www.w3.org/Graphics/SVG/1.1/DTD/svg11.dtd" >
<svg xmlns="http://www.w3.org/2000/svg">
<metadata>
Created by FontPrep 20130207 at Tue Mar  7 21:24:29 2017
 By Mike Cavaliere
Copyright (c) 2011 by Wolfgang Homola, distributed by TypeTogether. All rights reserved.
</metadata>
<defs>
<font id="cf3ef3e159294ff2014c650078a0bc52" horiz-adv-x='1024' >
  <font-face 
    font-family="SoleilBk"
    font-weight="350"
    font-stretch="normal"
    units-per-em="2048"
    panose-1="2 0 5 3 0 0 0 2 0 4"
    ascent="1536"
    descent="-512"
    x-height="1036"
    cap-height="1434"
    bbox="-430 -668 2609.01 2267"
    underline-thickness="102"
    underline-position="-102"
    unicode-range="U+000D-FB06"
  />
<missing-glyph 
d="M614 512h-125v186q79 27 114 51q62 43 64 101q1 57 -29 89t-81 32t-81 -32t-30 -87v-12h-116v8q0 98 65 163q66 65 163 65t163 -66q65 -64 65 -151t-47 -139t-125 -87v-121zM240 1241v-1122h647v1122h-647zM117 1362h895v-1362h-895v1362zM618 266h-135v142h135v-142z
" />
    <glyph glyph-name="ff" unicode="ff" horiz-adv-x="1400" 
d="M1271 1370q-73 0 -116 -38t-43 -181v-115h277v-182h-277v-854h-211v854h-117v182h117v133q0 176 68 273q84 119 280 119q108 -1 217 -50l-61 -172q-61 31 -134 31zM570 1370q-74 0 -116 -38t-42 -181v-115h233v-182h-233v-854h-211v854h-117v182h117v133q0 176 67 273
q84 119 281 119q108 -1 217 -50l-61 -172q-61 31 -135 31z" />
    <glyph glyph-name="fi" unicode="fi" horiz-adv-x="1239" 
d="M1075 1225h-211v219h211v-219zM1075 0h-211v1036h211v-1036zM560 1370q-64 0 -106 -38t-42 -181v-115h276v-182h-276v-854h-211v854h-117v182h117v133q0 176 67 273q84 119 281 119q76 0 160 -27l-33 -180q-53 16 -116 16z" />
    <glyph glyph-name="fl" unicode="fl" horiz-adv-x="1241" 
d="M1075 1536v-1536h-211v1536h211zM560 1370q-64 0 -106 -38t-42 -181v-115h276v-182h-276v-854h-211v854h-117v182h117v133q0 176 67 273q84 119 281 119q76 0 160 -27l-33 -180q-53 16 -116 16z" />
    <glyph glyph-name="ffi" unicode="ffi" horiz-adv-x="1941" 
d="M1778 1225h-211v219h211v-219zM1778 0h-211v1036h211v-1036zM570 1370q-74 0 -116 -38t-42 -181v-115h233v-182h-233v-854h-211v854h-117v182h117v133q0 176 67 273q84 119 281 119q108 -1 217 -50l-61 -172q-61 31 -135 31zM1260 1370q-62 0 -105 -38t-43 -181v-115h277
v-182h-277v-854h-211v854h-117v182h117v133q0 176 68 273q84 119 280 119q76 0 160 -27l-33 -180q-54 16 -116 16z" />
    <glyph glyph-name="ffl" unicode="ffl" horiz-adv-x="1939" 
d="M1776 1536v-1536h-211v1536h211zM570 1370q-74 0 -116 -38t-42 -181v-115h233v-182h-233v-854h-211v854h-117v182h117v133q0 176 67 273q84 119 281 119q108 -1 217 -50l-61 -172q-61 31 -135 31zM1260 1370q-62 0 -105 -38t-43 -181v-115h277v-182h-277v-854h-211v854
h-117v182h117v133q0 176 68 273q84 119 280 119q76 0 160 -27l-33 -180q-54 16 -116 16z" />
    <glyph glyph-name="f_k" unicode="fk" horiz-adv-x="1773" 
d="M1075 1536v-995l4 -2l400 497h254l-367 -426l397 -610h-254l-282 446l-152 -176v-270h-211v1536h211zM560 1370q-64 0 -106 -38t-42 -181v-115h276v-182h-276v-854h-211v854h-117v182h117v133q0 176 67 273q84 119 281 119q76 0 160 -27l-33 -180q-53 16 -116 16z" />
    <glyph glyph-name="f_b" unicode="fb" horiz-adv-x="1990" 
d="M1362 166q158 0 245 106t87 248t-90 246t-238 104q-86 0 -170 -48t-121 -136v-371q51 -73 129 -111t158 -38zM864 1536h211v-633q53 76 143 117t183 41q217 0 362 -158t145 -381t-144 -385t-367 -162q-90 0 -178 38t-150 104l-4 -117h-201v1536zM560 1370q-64 0 -106 -38
t-42 -181v-115h276v-182h-276v-854h-211v854h-117v182h117v133q0 176 67 273q84 119 281 119q76 0 160 -27l-33 -180q-53 16 -116 16z" />
    <glyph glyph-name="f_h" unicode="fh" horiz-adv-x="1947" 
d="M1075 1536v-659q57 88 145 136t187 48q197 0 292 -129t95 -393v-539h-211v520q0 193 -49 272t-170 78q-82 0 -160 -50t-129 -134v-686h-211v1536h211zM560 1370q-64 0 -106 -38t-42 -181v-115h276v-182h-276v-854h-211v854h-117v182h117v133q0 176 67 273q84 119 281 119
q76 0 160 -27l-33 -180q-53 16 -116 16z" />
    <glyph glyph-name="f_t" unicode="ft" horiz-adv-x="1425" 
d="M1192 -20q-318 0 -315 380v494h-115v182h115l10 244h200v-244h285v-182h-285v-451q0 -150 34 -193q35 -44 97 -44t119 29l62 -166q-88 -49 -207 -49zM570 1370q-74 0 -116 -38t-42 -181v-115h250v-182h-250v-854h-211v854h-117v182h117v133q0 176 67 273q84 119 281 119
q108 -1 217 -50l-61 -172q-61 31 -135 31z" />
    <glyph glyph-name="f_j" unicode="fj" horiz-adv-x="1257" 
d="M1092 -88q0 -371 -318 -371q-117 0 -205 45l60 170q53 -28 127 -28t100 54q25 54 25 163v1091h211v-1124zM1092 1225h-211v219h211v-219zM560 1370q-64 0 -106 -38t-42 -181v-115h276v-182h-276v-854h-211v854h-117v182h117v133q0 176 67 273q84 119 281 119
q76 0 160 -27l-33 -180q-53 16 -116 16z" />
    <glyph glyph-name="f_f_j" unicode="ffj" horiz-adv-x="1957" 
d="M1792 -88q0 -371 -317 -371q-117 0 -205 45l59 170q53 -28 128 -28t99 54t25 163v1091h211v-1124zM1792 1225h-211v219h211v-219zM570 1370q-74 0 -116 -38t-42 -181v-115h233v-182h-233v-854h-211v854h-117v182h117v133q0 176 67 273q84 119 281 119q108 -1 217 -50
l-61 -172q-61 31 -135 31zM1260 1370q-62 0 -105 -38t-43 -181v-115h277v-182h-277v-854h-211v854h-117v182h117v133q0 176 68 273q84 119 280 119q76 0 160 -27l-33 -180q-54 16 -116 16z" />
    <glyph glyph-name="f_f_k" unicode="ffk" horiz-adv-x="2473" 
d="M1776 1536v-995l4 -2l399 497h254l-367 -426l398 -610h-254l-283 446l-151 -176v-270h-211v1536h211zM570 1370q-74 0 -116 -38t-42 -181v-115h233v-182h-233v-854h-211v854h-117v182h117v133q0 176 67 273q84 119 281 119q108 -1 217 -50l-61 -172q-61 31 -135 31z
M1260 1370q-62 0 -105 -38t-43 -181v-115h277v-182h-277v-854h-211v854h-117v182h117v133q0 176 68 273q84 119 280 119q76 0 160 -27l-33 -180q-54 16 -116 16z" />
    <glyph glyph-name="f_f_b" unicode="ffb" horiz-adv-x="2691" 
d="M2062 166q158 0 245 106t87 248t-90 246t-238 104q-86 0 -170 -48t-120 -136v-371q51 -73 129 -111t157 -38zM1565 1536h211v-633q53 76 142 117t183 41q217 0 363 -158t145 -381q0 -223 -144 -385t-368 -162q-90 0 -178 38t-150 104l-4 -117h-200v1536zM570 1370
q-74 0 -116 -38t-42 -181v-115h233v-182h-233v-854h-211v854h-117v182h117v133q0 176 67 273q84 119 281 119q108 -1 217 -50l-61 -172q-61 31 -135 31zM1260 1370q-62 0 -105 -38t-43 -181v-115h277v-182h-277v-854h-211v854h-117v182h117v133q0 176 68 273q84 119 280 119
q76 0 160 -27l-33 -180q-54 16 -116 16z" />
    <glyph glyph-name="f_f_h" unicode="ffh" horiz-adv-x="2648" 
d="M1776 1536v-659q57 88 145 136t186 48q197 0 292 -129t95 -393v-539h-210v520q0 193 -50 272t-170 78q-82 0 -160 -50t-128 -134v-686h-211v1536h211zM570 1370q-74 0 -116 -38t-42 -181v-115h233v-182h-233v-854h-211v854h-117v182h117v133q0 176 67 273q84 119 281 119
q108 -1 217 -50l-61 -172q-61 31 -135 31zM1260 1370q-62 0 -105 -38t-43 -181v-115h277v-182h-277v-854h-211v854h-117v182h117v133q0 176 68 273q84 119 280 119q76 0 160 -27l-33 -180q-54 16 -116 16z" />
    <glyph glyph-name="f_f_t" unicode="fft" horiz-adv-x="2125" 
d="M1892 -20q-315 0 -315 380v494h-115v182h115l10 244h201v-244h285v-182h-285v-451q0 -51 3 -105t34 -93t93 -39t120 29l61 -166q-88 -49 -207 -49zM1271 1370q-73 0 -116 -38t-43 -181v-115h248v-182h-248v-854h-211v854h-117v182h117v133q0 176 68 273q84 119 280 119
q108 -1 217 -50l-61 -172q-61 31 -134 31zM570 1370q-74 0 -116 -38t-42 -181v-115h233v-182h-233v-854h-211v854h-117v182h117v133q0 176 67 273q84 119 281 119q108 -1 217 -50l-61 -172q-61 31 -135 31z" />
    <glyph glyph-name="f_iacute" unicode="f&#xed;" horiz-adv-x="1241" 
d="M570 1370q-74 0 -116 -38t-42 -181v-115h276v-182h-276v-854h-211v854h-117v182h117v133q0 176 67 273q84 119 281 119q108 -1 217 -50l-61 -172q-61 31 -135 31zM1282 1507l-293 -344l-131 105l272 358zM1077 0h-211v1036h211v-1036z" />
    <glyph glyph-name="t_t" unicode="tt" horiz-adv-x="1449" 
d="M1217 -20q-316 0 -316 380v494h-135v182h135l10 244h201v-244h285v-182h-285v-451q0 -51 3 -105t34 -93t93 -39t120 29l61 -166q-88 -49 -206 -49zM492 -20q-316 0 -316 380v494h-135v182h135l10 244h201v-244h285v-182h-285v-451q0 -51 3 -105t34 -93t93 -39t120 29
l61 -166q-88 -49 -206 -49z" />
    <glyph glyph-name=".notdef" 
d="M614 512h-125v186q79 27 114 51q62 43 64 101q1 57 -29 89t-81 32t-81 -32t-30 -87v-12h-116v8q0 98 65 163q66 65 163 65t163 -66q65 -64 65 -151t-47 -139t-125 -87v-121zM240 1241v-1122h647v1122h-647zM117 1362h895v-1362h-895v1362zM618 266h-135v142h135v-142z
" />
    <glyph glyph-name=".null" horiz-adv-x="0" 
 />
    <glyph glyph-name=".null" horiz-adv-x="0" 
 />
    <glyph glyph-name="nonmarkingreturn" horiz-adv-x="681" 
 />
    <glyph glyph-name="CR" unicode="&#xd;" horiz-adv-x="1024" 
 />
    <glyph glyph-name="space" unicode=" " horiz-adv-x="512" 
 />
    <glyph glyph-name="exclam" unicode="!" horiz-adv-x="653" 
d="M446 0h-239v254h239v-254zM451 1434v-234l-21 -756h-205l-22 756v234h248z" />
    <glyph glyph-name="quotedbl" unicode="&#x22;" horiz-adv-x="991" 
d="M815 879h-188l-21 555h228zM365 879h-189l-20 555h227z" />
    <glyph glyph-name="numbersign" unicode="#" horiz-adv-x="1413" 
d="M594 823l-51 -284h264l51 284h-264zM109 539h253l52 284h-172v162h198l68 377h180l-67 -377h266l67 377h181l-68 -377h238v-162h-267l-51 -284h184v-164h-210l-66 -375h-180l65 375h-266l-65 -375h-179l64 375h-225v164z" />
    <glyph glyph-name="dollar" unicode="$" 
d="M541 160q119 0 199 56t81 155q0 99 -68 150t-118 69q-220 76 -287 112q-138 72 -182 174q-27 62 -27 144q-1 154 103 251t268 111v195h141v-199q172 -20 340 -137l-129 -154q-125 113 -295 113q-85 0 -153 -46t-68 -132q0 -56 31 -84t49 -42q28 -21 120 -55l72 -27
q133 -46 193 -78q154 -81 200 -186q28 -65 27 -149q0 -173 -112 -283t-287 -134v-201h-139v194q-240 8 -449 209l146 138q164 -164 344 -164z" />
    <glyph glyph-name="percent" unicode="%" horiz-adv-x="1742" 
d="M1294 492q-72 0 -118 -48t-46 -125q0 -75 46 -123t118 -48t118 48t46 124t-46 124t-118 48zM1294 651q140 0 238 -96q98 -95 98 -235t-98 -236t-238 -96t-237 96q-98 96 -99 235q0 139 98 235t238 97zM1325 1460l119 -88l-1018 -1399l-121 88zM449 1286q-72 0 -118 -48
t-46 -124t46 -124t118 -48q71 0 117 48t46 124t-46 124t-117 48zM449 1446q139 0 237 -96t98 -236t-98 -235q-98 -97 -237 -97t-237 96t-99 236q0 139 98 236q99 96 238 96z" />
    <glyph glyph-name="ampersand" unicode="&#x26;" horiz-adv-x="1398" 
d="M496 678q-160 -80 -160 -265q0 -97 86 -173t205 -76q180 0 282 143l-161 146l124 143l555 -496l-124 -141l-252 223q-154 -207 -443 -207q-195 1 -339 135t-144 314q0 123 63 223t174 160q-133 147 -133 298t126 252q125 101 275 101t252 -72t138 -198l-195 -55
q-35 137 -192 137q-82 0 -138 -49q-57 -49 -57 -124t50 -140t169 -171l-122 -143z" />
    <glyph glyph-name="quotesingle" unicode="'" horiz-adv-x="540" 
d="M365 879h-189l-20 555h227z" />
    <glyph glyph-name="parenleft" unicode="(" horiz-adv-x="720" 
d="M94 619q0 639 553 985l88 -150q-426 -279 -426 -836t424 -825l-84 -149q-555 336 -555 975z" />
    <glyph glyph-name="parenright" unicode=")" horiz-adv-x="720" 
d="M627 619q0 -639 -555 -975l-84 149q424 267 424 825t-426 836l88 150q553 -346 553 -985z" />
    <glyph glyph-name="asterisk" unicode="*" horiz-adv-x="1011" 
d="M874 1118l-247 -55l176 -195l-160 -114l-137 233l-137 -233l-160 114l174 195l-246 55l60 187l237 -105l-26 258h196l-24 -258l235 105z" />
    <glyph glyph-name="plus" unicode="+" 
d="M653 1149v-422h422v-180h-422v-422h-180v422h-422v180h422v422h180z" />
    <glyph glyph-name="comma" unicode="," horiz-adv-x="512" 
d="M373 254l-140 -524h-200l106 524h234z" />
    <glyph glyph-name="hyphen" unicode="-" horiz-adv-x="935" 
d="M739 483h-542v187h542v-187z" />
    <glyph glyph-name="period" unicode="." horiz-adv-x="512" 
d="M375 0h-240v254h240v-254z" />
    <glyph glyph-name="slash" unicode="/" horiz-adv-x="768" 
d="M768 1497l-596 -1610l-172 66l596 1610z" />
    <glyph glyph-name="zero" unicode="0" horiz-adv-x="1132" 
d="M565 1192q-129 0 -197 -129t-69 -383q0 -254 70 -383q69 -129 197 -129t198 129t70 383t-70 383t-199 129zM566 1384q232 0 360 -187t129 -517q0 -330 -128 -517q-129 -187 -361 -187t-360 186q-128 188 -128 518t128 517t360 187z" />
    <glyph glyph-name="one" unicode="1" horiz-adv-x="712" 
d="M526 0h-217v1104q-10 -6 -200 -90v200q147 74 276 146h141v-1360z" />
    <glyph glyph-name="two" unicode="2" horiz-adv-x="1050" 
d="M117 184q594 622 594 824q-1 92 -61 140t-144 48t-142 -58t-59 -149l-215 41q12 156 138 255t290 99t289 -101t125 -268t-140 -365t-384 -462h585v-188h-876v184z" />
    <glyph glyph-name="three" unicode="3" horiz-adv-x="1071" 
d="M684 1016q0 74 -59 126t-143 52t-142 -38q-57 -38 -78 -105l-184 75q41 117 148 188q108 71 249 70q188 0 309 -100t121 -264q0 -90 -46 -169t-124 -120q106 -37 171 -129t65 -207q0 -193 -133 -307t-330 -113q-139 1 -260 63t-180 179l174 92q78 -143 256 -143
q106 0 180 56t74 158t-80 164t-179 62t-167 -14v207q125 4 186 18q78 23 125 74t47 125z" />
    <glyph glyph-name="four" unicode="4" horiz-adv-x="1110" 
d="M655 528v537q-214 -320 -374 -537h374zM868 0h-213v340h-604v215q139 180 596 805h221v-832h201v-188h-201v-340z" />
    <glyph glyph-name="five" unicode="5" horiz-adv-x="1030" 
d="M899 1360v-189h-506q-14 -264 -24 -358q82 37 190 37q172 0 292 -121t120 -307t-131 -316q-131 -131 -330 -131q-135 0 -258 65t-180 173l174 94q76 -141 243 -141q119 0 190 74t71 182t-72 174t-190 66t-195 -84l-152 88q20 209 47 694h711z" />
    <glyph glyph-name="six" unicode="6" horiz-adv-x="1103" 
d="M554 164q122 0 188 76t65 188q0 112 -65 180q-65 70 -161 70q-97 0 -171 -42t-113 -116q0 -152 67 -254q68 -102 190 -102zM1026 424q0 -188 -125 -319q-125 -130 -317 -130q-229 0 -368 161q-138 161 -138 386q0 313 192 555q193 242 490 363l84 -187
q-203 -89 -333 -207t-181 -294q114 114 290 114t291 -127t115 -315z" />
    <glyph glyph-name="seven" unicode="7" horiz-adv-x="937" 
d="M899 1360v-150q-295 -616 -563 -1259l-199 88q155 365 332 732q176 366 190 396h-639v193h879z" />
    <glyph glyph-name="eight" unicode="8" horiz-adv-x="1150" 
d="M576 1196q-89 0 -150 -55t-61 -139t61 -143q61 -58 149 -58t150 57q61 57 61 142t-60 141q-61 55 -150 55zM575 612q-102 0 -174 -66q-71 -66 -71 -160q0 -95 70 -159q71 -63 175 -63t177 63q72 63 72 159t-73 161q-74 65 -176 65zM575 -25q-205 0 -335 116t-129 286
q0 223 206 340q-166 100 -165 295q0 158 118 266t306 106q187 0 307 -107q119 -108 118 -265q1 -193 -167 -295q209 -117 208 -340q0 -170 -131 -286t-336 -116z" />
    <glyph glyph-name="nine" unicode="9" horiz-adv-x="1103" 
d="M550 1196q-122 0 -188 -75t-66 -187t66 -182q64 -70 159 -70t171 43t115 117q0 152 -67 253q-68 101 -190 101zM78 936q0 188 125 318t317 130q229 0 368 -159q138 -160 138 -387q0 -311 -192 -553t-490 -363l-84 184q420 184 514 502q-117 -112 -292 -112
q-176 0 -290 126t-114 314z" />
    <glyph glyph-name="colon" unicode=":" horiz-adv-x="512" 
d="M375 0h-240v254h240v-254zM375 782h-240v254h240v-254z" />
    <glyph glyph-name="semicolon" unicode=";" horiz-adv-x="512" 
d="M373 782h-238v254h238v-254zM373 254l-140 -524h-200l106 524h234z" />
    <glyph glyph-name="less" unicode="&#x3c;" 
d="M43 553v170l1038 414v-181l-800 -317l800 -320v-180z" />
    <glyph glyph-name="equal" unicode="=" 
d="M100 557h924v-180h-924v180zM100 899h924v-180h-924v180z" />
    <glyph glyph-name="greater" unicode="&#x3e;" 
d="M1083 723v-170l-1038 -414v180l801 320l-801 317v181z" />
    <glyph glyph-name="question" unicode="?" horiz-adv-x="1110" 
d="M664 0h-238v254h238v-254zM655 444h-221v334q76 27 122 46q46 20 98 56q104 73 104 197q0 80 -56 137q-56 58 -147 58q-90 0 -145 -58t-56 -157v-23h-209v15q0 181 121 295t294 114t290 -116t117 -259q0 -181 -99 -280q-80 -80 -213 -141v-218z" />
    <glyph glyph-name="at" unicode="@" horiz-adv-x="1636" 
d="M802 616q-94 0 -142 -60t-48 -143t50 -141t133 -59q51 -1 102 39t78 110v148q-78 106 -173 106zM807 -281q-291 0 -495 207t-204 500t205 499q205 205 509 205t506 -185t202 -480q0 -182 -82 -307t-236 -125t-208 160q-70 -125 -222 -125t-241 99q-90 99 -90 243t88 248
q88 105 235 106q113 0 201 -84v63h160v-313q1 -139 23 -189t65 -51q65 0 99 79t34 192q0 231 -146 367t-384 136t-391 -154q-153 -155 -153 -383t152 -385t375 -157q125 0 248 62l65 -152q-152 -76 -315 -76z" />
    <glyph glyph-name="A" unicode="A" horiz-adv-x="1355" 
d="M672 1100l-223 -613h446l-221 613h-2zM1071 0l-106 295h-588l-107 -295h-241l563 1434h186l547 -1434h-254z" />
    <glyph glyph-name="B" unicode="B" horiz-adv-x="1261" 
d="M406 1243v-414h126q324 0 324 203q0 113 -76 162t-284 49h-90zM406 639v-449h98q205 0 289 39q109 53 108 181q0 104 -74 166t-209 63h-212zM186 0v1434h351q243 0 391 -96t148 -301q0 -204 -210 -287q268 -82 269 -338q0 -250 -252 -358q-125 -54 -365 -54h-332z" />
    <glyph glyph-name="C" unicode="C" horiz-adv-x="1380" 
d="M350 711q0 -245 148 -393t389 -148q166 0 313 106l119 -161q-197 -139 -436 -140q-328 0 -547 206q-219 205 -219 527t225 536t545 214q211 0 397 -119l-104 -168q-143 92 -293 93q-233 0 -385 -154t-152 -399z" />
    <glyph glyph-name="D" unicode="D" horiz-adv-x="1470" 
d="M465 193q313 0 484 119t171 386t-150 405q-151 138 -425 138h-139v-1048h59zM186 0v1434h394q295 0 523 -160q115 -80 183 -222t68 -330t-68 -334q-68 -144 -184 -226q-228 -162 -541 -162h-375z" />
    <glyph glyph-name="E" unicode="E" horiz-adv-x="1187" 
d="M1061 0h-875v1434h875v-193h-655v-405h655v-193h-655v-450h655v-193z" />
    <glyph glyph-name="F" unicode="F" horiz-adv-x="1017" 
d="M930 604h-524v-604h-220v1434h744v-193h-524v-444h524v-193z" />
    <glyph glyph-name="G" unicode="G" horiz-adv-x="1640" 
d="M1264 610h-361v193h580v-549q-104 -135 -260 -207t-336 -72q-332 0 -551 207q-219 208 -219 528t225 534t554 214t556 -260l-154 -131q-172 197 -408 197t-388 -155t-152 -397t148 -393q148 -149 380 -149t386 147v293z" />
    <glyph glyph-name="H" unicode="H" horiz-adv-x="1533" 
d="M1348 0h-220v643h-722v-643h-220v1434h220v-598h722v598h220v-1434z" />
    <glyph glyph-name="I" unicode="I" horiz-adv-x="591" 
d="M406 0h-220v1434h220v-1434z" />
    <glyph glyph-name="J" unicode="J" horiz-adv-x="700" 
d="M524 1434v-1067q0 -184 -78 -288t-268 -104q-111 0 -223 50l63 178q66 -33 144 -33t112 49q31 41 31 176v1039h219z" />
    <glyph glyph-name="K" unicode="K" horiz-adv-x="1282" 
d="M406 0h-220v1434h220v-697l573 697h268l-479 -570l504 -864h-256l-398 688l-212 -254v-434z" />
    <glyph glyph-name="L" unicode="L" horiz-adv-x="1030" 
d="M1020 0h-834v1434h220v-1241h614v-193z" />
    <glyph glyph-name="M" unicode="M" horiz-adv-x="1906" 
d="M406 0h-220v1434h340l424 -1092l432 1092h338v-1434h-219v1171l-475 -1171h-154l-466 1171v-1171z" />
    <glyph glyph-name="N" unicode="N" horiz-adv-x="1542" 
d="M1356 0h-195l-755 1028v-1028h-220v1434h193l758 -1028v1028h219v-1434z" />
    <glyph glyph-name="O" unicode="O" horiz-adv-x="1716" 
d="M1599 717q0 -309 -214 -525t-527 -217q-313 0 -527 216q-214 215 -214 525t214 526t527 216t527 -216t214 -525zM1366 717q0 231 -144 389t-364 158t-363 -158q-145 -158 -145 -389t144 -389t364 -158q219 0 364 158q144 158 144 389z" />
    <glyph glyph-name="P" unicode="P" horiz-adv-x="1193" 
d="M406 1241v-483h165q330 0 330 237q0 115 -80 181t-211 65h-204zM186 1434h435q286 0 432 -182q82 -102 82 -234q0 -247 -162 -350t-352 -103h-215v-565h-220v1434z" />
    <glyph glyph-name="Q" unicode="Q" horiz-adv-x="1716" 
d="M1366 724q0 224 -144 382t-364 158t-363 -158q-145 -158 -145 -389t144 -389t364 -158q121 0 223 51l-196 197l137 137l213 -213q131 158 131 382zM117 716q0 310 214 526t527 216t527 -216t214 -526t-213 -523l191 -189l-137 -137l-209 207q-168 -98 -373 -99
q-313 0 -527 216q-214 215 -214 525z" />
    <glyph glyph-name="R" unicode="R" horiz-adv-x="1265" 
d="M406 1241v-450h163q143 0 229 54q85 53 85 161t-76 172t-199 63h-202zM186 1434h432q275 0 418 -178q80 -98 80 -252t-97 -254t-243 -136l451 -614h-275l-422 598h-124v-598h-220v1434z" />
    <glyph glyph-name="S" unicode="S" horiz-adv-x="1247" 
d="M643 1264q-106 0 -173 -50t-67 -140q0 -91 121 -147q49 -23 144 -57q94 -33 142 -52t116 -58t106 -81t66 -110t28 -165t-47 -186q-81 -154 -289 -217q-87 -26 -176 -26q-303 0 -526 222l154 145q96 -96 180 -134t196 -38t194 58q81 58 81 173q0 143 -214 225
q-33 12 -107 38q-280 97 -355 246q-33 67 -33 151q0 193 126 295t313 102q254 0 452 -153l-133 -158q-129 117 -299 117z" />
    <glyph glyph-name="T" unicode="T" horiz-adv-x="1001" 
d="M967 1241h-357v-1241h-219v1241h-356v193h932v-193z" />
    <glyph glyph-name="U" unicode="U" horiz-adv-x="1476" 
d="M1298 1434v-760q0 -346 -136 -522t-426 -176t-424 176t-134 522v760h219v-807q0 -225 90 -341t252 -116t251 116t89 341v807h219z" />
    <glyph glyph-name="V" unicode="V" horiz-adv-x="1316" 
d="M1307 1434l-564 -1434h-186l-547 1434h254l398 -1098h2l401 1098h242z" />
    <glyph glyph-name="W" unicode="W" horiz-adv-x="1843" 
d="M1028 1434l277 -1043h4l286 1043h238l-410 -1434h-219l-280 1055h-4l-302 -1055h-212l-396 1434h244l274 -1043h4l289 1043h207z" />
    <glyph glyph-name="X" unicode="X" horiz-adv-x="1361" 
d="M1343 1434l-518 -707l529 -727h-281l-399 549l-389 -549h-277l527 727l-510 707h284l381 -533l379 533h274z" />
    <glyph glyph-name="Y" unicode="Y" horiz-adv-x="1163" 
d="M686 0h-219v618l-457 816h273l303 -582h4l307 582h256l-467 -826v-608z" />
    <glyph glyph-name="Z" unicode="Z" horiz-adv-x="1128" 
d="M1090 193v-193h-1012v117l659 1124h-643v193h944v-117l-657 -1124h709z" />
    <glyph glyph-name="bracketleft" unicode="[" horiz-adv-x="647" 
d="M627 -344h-453v1878h453v-176h-260v-1528h260v-174z" />
    <glyph glyph-name="backslash" unicode="\" horiz-adv-x="763" 
d="M764 -47l-168 -66l-596 1612l168 64z" />
    <glyph glyph-name="bracketright" unicode="]" horiz-adv-x="647" 
d="M473 -344h-453v174h261v1528h-261v176h453v-1878z" />
    <glyph glyph-name="asciicircum" unicode="^" 
d="M977 707h-186l-228 489l-227 -489h-186l309 696h209z" />
    <glyph glyph-name="underscore" unicode="_" 
d="M1126 -475h-1126v147h1126v-147z" />
    <glyph glyph-name="grave" unicode="`" horiz-adv-x="737" 
d="M381 1165l-281 334l150 117l258 -354z" />
    <glyph glyph-name="a" unicode="a" horiz-adv-x="1132" 
d="M599 485q-77 0 -134 -13t-105 -55t-47 -118t55 -116t138 -40q125 0 262 115v209q-92 18 -169 18zM979 0h-195l-6 104q-113 -129 -303 -129q-156 0 -262 81t-107 239q0 257 291 325q78 17 167 17t204 -23v31q0 240 -236 240q-158 0 -325 -92l-60 170q209 98 418 98
q414 0 414 -432v-629z" />
    <glyph glyph-name="b" unicode="b" horiz-adv-x="1290" 
d="M662 166q158 0 244 106t87 248q0 142 -90 246t-237 104q-86 0 -170 -48t-121 -136v-371q51 -73 129 -111t158 -38zM164 1536h211v-633q53 76 142 117t183 41q216 0 362 -158t146 -381t-144 -385t-368 -162q-90 0 -178 38t-149 104l-4 -117h-201v1536z" />
    <glyph glyph-name="c" unicode="c" horiz-adv-x="991" 
d="M600 -25q-215 0 -367 151q-151 151 -151 385t156 392t383 158q174 0 311 -98l-103 -166q-95 73 -219 73t-218 -103t-95 -253q0 -150 95 -249q94 -99 222 -99t222 74l106 -156q-127 -109 -342 -109z" />
    <glyph glyph-name="d" unicode="d" horiz-adv-x="1290" 
d="M629 870q-158 0 -245 -106t-87 -248t90 -246t238 -104q86 0 170 48t120 136v371q-51 73 -129 111t-157 38zM1126 1536v-1536h-200l-6 137q-54 -78 -144 -120t-186 -42q-217 0 -363 158q-145 158 -145 381t144 385t352 162t337 -135v610h211z" />
    <glyph glyph-name="e" unicode="e" horiz-adv-x="1161" 
d="M598 885q-110 0 -186 -72t-105 -186h553q-6 109 -79 183t-183 75zM608 154q209 0 301 163l148 -96q-80 -127 -191 -186t-268 -60q-238 0 -377 153t-139 386t148 390t362 157t351 -137q136 -137 136 -344q0 -63 -10 -115h-774q10 -133 95 -222t218 -89z" />
    <glyph glyph-name="f" unicode="f" horiz-adv-x="700" 
d="M570 1370q-74 0 -116 -38t-42 -181v-115h276v-182h-276v-854h-211v854h-117v182h117v133q0 176 67 273q84 119 281 119q108 -1 217 -50l-61 -172q-61 31 -135 31z" />
    <glyph glyph-name="g" unicode="g" horiz-adv-x="1280" 
d="M590 0q-219 0 -364 153q-144 153 -144 373t144 378q144 157 368 157q90 0 178 -38t150 -103l4 116h200v-981q0 -164 -57 -272q-127 -242 -465 -242q-266 0 -465 140l82 178q76 -55 180 -91t197 -36q139 0 228 72t89 221v133q-53 -76 -142 -117t-183 -41zM629 870
q-160 0 -246 -101t-86 -243t90 -238q90 -97 238 -98q85 0 169 48t121 137v346q-51 73 -129 111t-157 38z" />
    <glyph glyph-name="h" unicode="h" horiz-adv-x="1247" 
d="M375 1536v-659q57 88 145 136t187 48q197 0 291 -129t96 -393v-539h-211v520q0 193 -49 272t-170 78q-82 0 -160 -50t-129 -134v-686h-211v1536h211z" />
    <glyph glyph-name="i" unicode="i" horiz-adv-x="538" 
d="M375 1225h-211v219h211v-219zM375 0h-211v1036h211v-1036z" />
    <glyph glyph-name="j" unicode="j" horiz-adv-x="557" 
d="M391 -88q0 -371 -317 -371q-117 0 -205 45l59 170q53 -28 128 -28t100 54t24 163v1091h211v-1124zM391 1225h-211v219h211v-219z" />
    <glyph glyph-name="k" unicode="k" horiz-adv-x="1073" 
d="M375 1536v-995l4 -2l399 497h254l-366 -426l397 -610h-254l-283 446l-151 -176v-270h-211v1536h211z" />
    <glyph glyph-name="l" unicode="l" horiz-adv-x="538" 
d="M375 1536v-1536h-211v1536h211z" />
    <glyph glyph-name="m" unicode="m" horiz-adv-x="1888" 
d="M1735 0h-211v520q0 195 -47 273t-166 77q-70 0 -142 -43t-125 -114q10 -88 11 -174v-539h-211v520q0 205 -51 279q-45 72 -152 71q-71 0 -143 -49t-123 -119v-702h-211v1036h201l4 -149q59 80 146 127t175 47q190 0 285 -141q12 -18 24 -46q131 186 357 187
q186 0 282 -125t97 -397v-539z" />
    <glyph glyph-name="n" unicode="n" horiz-adv-x="1247" 
d="M164 1036h201l6 -164q57 90 146 140t190 49q197 0 291 -129t96 -393v-539h-211v520q0 193 -49 272t-170 78q-82 0 -160 -50t-129 -134v-686h-211v1036z" />
    <glyph glyph-name="o" unicode="o" horiz-adv-x="1228" 
d="M932 518q0 148 -90 250t-228 102t-227 -102q-90 -102 -90 -250t90 -250t227 -102t228 102q90 103 90 250zM613 1061q228 0 381 -157t153 -386t-153 -386t-381 -157t-380 157t-151 386q0 229 151 386q152 157 380 157z" />
    <glyph glyph-name="p" unicode="p" horiz-adv-x="1290" 
d="M662 166q158 0 244 106t87 248q0 142 -90 246t-237 104q-86 0 -170 -48t-121 -136v-371q51 -73 129 -111t158 -38zM164 1036h201l6 -137q53 78 143 120t186 42q216 0 362 -158t146 -381t-144 -385t-352 -162t-337 136v-623h-211v1548z" />
    <glyph glyph-name="q" unicode="q" horiz-adv-x="1290" 
d="M629 870q-158 0 -245 -106t-87 -248t90 -246t238 -104q86 0 170 48q83 48 120 136v371q-51 73 -129 111t-157 38zM1126 -512h-211v645q-53 -76 -142 -117t-183 -41q-217 0 -363 158q-145 158 -145 381t144 385t368 162q90 0 178 -38t150 -103l4 116h200v-1548z" />
    <glyph glyph-name="r" unicode="r" horiz-adv-x="739" 
d="M375 0h-211v1036h201l6 -162q106 186 262 187q63 0 119 -14l-43 -213q-43 23 -99 22q-143 0 -235 -160v-696z" />
    <glyph glyph-name="s" unicode="s" horiz-adv-x="937" 
d="M479 889q-63 0 -102 -34t-39 -79t32 -76t62 -45q30 -13 89 -37q58 -24 92 -39q218 -96 218 -268q1 -172 -109 -254t-271 -82q-236 0 -373 166l139 121q109 -113 232 -112q75 0 123 36t48 90q1 84 -96 131q-34 15 -102 43t-104 45t-87 54q-96 70 -96 210q1 141 101 221
t243 81q197 0 328 -119l-123 -133q-88 80 -205 80z" />
    <glyph glyph-name="t" unicode="t" horiz-adv-x="724" 
d="M492 -20q-316 0 -316 380v494h-135v182h135l10 244h201v-244h285v-182h-285v-451q0 -51 3 -105t34 -93t93 -39t120 29l61 -166q-88 -49 -206 -49z" />
    <glyph glyph-name="u" unicode="u" horiz-adv-x="1247" 
d="M1083 0h-200l-6 164q-57 -90 -147 -139t-189 -50q-197 0 -292 129t-95 394v538h211v-520q0 -194 49 -272t170 -78q82 0 160 50t128 134v686h211v-1036z" />
    <glyph glyph-name="v" unicode="v" horiz-adv-x="1007" 
d="M770 1036h227l-409 -1036h-180l-394 1036h234l260 -768h4z" />
    <glyph glyph-name="w" unicode="w" horiz-adv-x="1525" 
d="M874 1036l201 -764h6l199 764h217l-301 -1036h-223l-209 754h-4l-213 -754h-232l-286 1036h227l184 -764h4l218 764h212z" />
    <glyph glyph-name="x" unicode="x" horiz-adv-x="1056" 
d="M1038 1036l-376 -506l380 -530h-270l-248 369l-250 -369h-262l389 520l-364 516h268l238 -352l237 352h258z" />
    <glyph glyph-name="y" unicode="y" horiz-adv-x="1003" 
d="M10 1036h234l254 -745h4l262 745h229l-583 -1505l-187 74l164 434z" />
    <glyph glyph-name="z" unicode="z" horiz-adv-x="944" 
d="M94 854v182h746v-94l-445 -760h479v-182h-757v96l442 758h-465z" />
    <glyph glyph-name="braceleft" unicode="{" horiz-adv-x="653" 
d="M559 -369q-170 0 -274 116t-105 296v221q0 104 -41 176t-123 88l4 181q160 37 160 286v152q0 180 104 296t275 116q39 0 72 -3v-178q-41 4 -58 4q-201 0 -200 -288v-154q0 -215 -135 -322q135 -113 135 -323v-197q0 -291 200 -291q17 1 58 5v-179q-33 -2 -72 -2z" />
    <glyph glyph-name="bar" unicode="|" horiz-adv-x="653" 
d="M420 -348h-184v2105h184v-2105z" />
    <glyph glyph-name="braceright" unicode="}" horiz-adv-x="653" 
d="M279 98v197q0 211 135 323q-135 106 -135 322v154q0 289 -201 288q-16 0 -58 -4v178q33 2 72 3q170 0 274 -116t105 -296v-152q0 -250 160 -286l4 -181q-82 -16 -123 -88t-41 -176v-221q0 -180 -104 -296t-275 -116q-39 0 -72 2v179q41 -4 58 -5q201 0 201 291z" />
    <glyph glyph-name="asciitilde" unicode="~" 
d="M59 596q0 120 79 192t206 72q72 0 140 -29t113 -63q119 -91 200 -90q39 0 69 26t31 56q0 31 -4 41l172 14q4 -29 4 -59q0 -121 -79 -193t-204 -71q-74 0 -142 28t-114 63q-120 91 -198 91q-41 0 -78 -32t-18 -91l-173 -14q-4 29 -4 59z" />
    <glyph glyph-name="uni00A0" unicode="&#xa0;" horiz-adv-x="512" 
 />
    <glyph glyph-name="exclamdown" unicode="&#xa1;" horiz-adv-x="653" 
d="M207 1036h239v-254h-239v254zM203 -397v235l22 754h205l21 -754v-235h-248z" />
    <glyph glyph-name="cent" unicode="&#xa2;" 
d="M733 -80h-141v182q-197 29 -322 174q-125 144 -125 356t126 362t321 182v184h141v-180q145 -12 262 -95l-102 -165q-94 74 -219 74t-218 -104q-94 -103 -94 -253t94 -249q94 -100 222 -100q127 0 221 74l107 -157q-111 -88 -273 -105v-180z" />
    <glyph glyph-name="sterling" unicode="&#xa3;" 
d="M1006 0h-846v193h114v446h-114v188h114v101q0 200 119 328t300 128t317 -79l-88 -177q-76 68 -211 68q-225 0 -226 -317v-52h273v-188h-273v-446h521v-193z" />
    <glyph glyph-name="currency" unicode="&#xa4;" 
d="M293 666q0 -113 79 -192q80 -79 192 -79t191 79t79 192q0 114 -79 192t-192 78t-191 -78t-79 -192zM119 665q0 136 78 248l-111 111l119 119l110 -109q113 76 247 76t249 -76l111 109l118 -119l-110 -111q78 -113 78 -249t-78 -246l110 -109l-118 -119l-111 109
q-113 -78 -249 -78t-247 78l-110 -109l-119 119l111 109q-78 111 -78 247z" />
    <glyph glyph-name="yen" unicode="&#xa5;" 
d="M106 524v162h293l-376 674h245l299 -547h4l287 547h244l-383 -674h291v-162h-344v-127h344v-159h-346v-238h-211v238h-347v159h345v127h-345z" />
    <glyph glyph-name="brokenbar" unicode="&#xa6;" horiz-adv-x="653" 
d="M420 758h-184v778h184v-778zM420 -406h-184v779h184v-779z" />
    <glyph glyph-name="section" unicode="&#xa7;" 
d="M357 722q-42 -50 -42 -109t46 -97t111 -61q66 -23 117 -39q52 -15 77 -23q63 27 107 77t44 109t-31 83t-48 36t-58 28q-42 16 -62 24t-73 24t-72 23q-74 -25 -116 -75zM547 1284q-76 0 -134 -35t-59 -102q0 -40 18 -59q39 -42 81 -62q66 -31 182 -68t174 -64
q57 -26 111 -66q113 -83 112 -228q0 -84 -52 -159t-140 -124q147 -85 147 -253t-124 -260t-318 -91q-274 0 -453 162l125 145q143 -131 324 -131q98 0 166 43t67 121q0 93 -166 151q-38 13 -104 31q-229 62 -313 137q-36 32 -63 85q-28 53 -28 118q0 211 197 302
q-145 91 -145 249t117 245q118 87 284 87q217 1 373 -112l-117 -142q-121 80 -262 80z" />
    <glyph glyph-name="dieresis" unicode="&#xa8;" horiz-adv-x="737" 
d="M694 1225h-215v219h215v-219zM258 1225h-215v219h215v-219z" />
    <glyph glyph-name="copyright" unicode="&#xa9;" horiz-adv-x="1636" 
d="M822 922q-86 0 -151 -68t-65 -178t62 -172q62 -64 156 -64t165 54l84 -123q-115 -78 -233 -78q-172 -1 -288 107t-116 277t118 281t286 111q110 0 219 -68l-78 -124q-73 45 -159 45zM274 683q0 -226 160 -388t385 -162t385 162t160 388t-160 387t-385 161t-385 -161
t-160 -387zM111 682q0 293 207 500q208 207 501 207t501 -207t208 -500t-208 -500t-501 -207t-501 207q-207 207 -207 500z" />
    <glyph glyph-name="ordfeminine" unicode="&#xaa;" horiz-adv-x="784" 
d="M238 999q0 -102 130 -102q62 0 144 68v135q-61 12 -102 12q-172 0 -172 -113zM362 1368q-106 0 -212 -59l-46 125q143 70 287 69q285 0 285 -295v-417h-146l-8 65q-70 -82 -185 -82t-190 56q-73 56 -73 168t89 166t220 55q55 -1 129 -15v17q-4 147 -150 147z" />
    <glyph glyph-name="guillemotleft" unicode="&#xab;" horiz-adv-x="1114" 
d="M117 678l305 315l106 -188l-260 -250l260 -248l-106 -188l-305 317v242zM586 678l305 315l106 -188l-260 -250l260 -248l-106 -188l-305 317v242z" />
    <glyph glyph-name="logicalnot" unicode="&#xac;" 
d="M47 868h1030v-608h-180v428h-850v180z" />
    <glyph glyph-name="uni00AD" unicode="&#xad;" horiz-adv-x="935" 
d="M739 483h-542v187h542v-187z" />
    <glyph glyph-name="registered" unicode="&#xae;" horiz-adv-x="1177" 
d="M240 987q0 -147 102 -251t248 -103q146 0 248 103q102 102 102 250t-102 252t-248 105q-146 0 -248 -104q-102 -105 -102 -252zM528 1139v-121q59 0 88 12t29 48q-1 36 -25 48t-92 13zM528 922v-181h-116v492h129q225 0 225 -150q0 -104 -96 -141l147 -201h-141l-125 181
h-23zM589 508q-199 0 -341 140t-142 340t142 340t341 140q200 0 341 -140t141 -340t-141 -340t-341 -140z" />
    <glyph glyph-name="macron" unicode="&#xaf;" horiz-adv-x="737" 
d="M684 1245h-631v158h631v-158z" />
    <glyph glyph-name="degree" unicode="&#xb0;" horiz-adv-x="946" 
d="M309 1108q0 -70 47 -117t115 -47t115 47t47 117t-47 117t-115 47t-115 -47t-47 -117zM156 1108q0 129 92 220t223 91t223 -91t92 -220t-92 -220t-223 -91t-223 91t-92 220z" />
    <glyph glyph-name="plusminus" unicode="&#xb1;" 
d="M653 1315v-422h422v-180h-422v-422h-180v422h-422v180h422v422h180zM51 180h1024v-180h-1024v180z" />
    <glyph glyph-name="twosuperior" unicode="&#xb2;" horiz-adv-x="659" 
d="M420 1346q0 54 -29 80t-73 26t-72 -32t-29 -85l-162 25q6 100 84 164q77 64 183 63q106 0 185 -61t79 -169q0 -109 -83 -223t-220 -247h338v-135h-549v127q164 164 282 323q66 90 66 144z" />
    <glyph glyph-name="threesuperior" unicode="&#xb3;" horiz-adv-x="667" 
d="M209 1239q194 0 194 113q1 44 -31 72t-81 28q-90 0 -113 -84l-133 57q27 76 93 119t168 43t182 -60t79 -168q0 -108 -104 -167q67 -20 105 -76t38 -125q0 -115 -84 -183t-192 -69q-108 0 -185 42q-78 42 -112 120l131 64q45 -88 145 -88q53 -1 91 29t38 85t-44 88t-95 33
t-90 -8v135z" />
    <glyph glyph-name="acute" unicode="&#xb4;" horiz-adv-x="737" 
d="M637 1499l-281 -334l-127 97l258 354z" />
    <glyph glyph-name="mu" unicode="&#xb5;" 
d="M1028 0h-201l-6 164q-57 -90 -146 -139t-189 -49t-175 36v-524h-213v1548h211v-520q0 -194 49 -272t170 -78q82 0 160 50t129 134v686h211v-1036z" />
    <glyph glyph-name="paragraph" unicode="&#xb6;" 
d="M287 1001q0 -104 60 -164t151 -69v469q-90 -10 -150 -71t-61 -165zM707 -358h-209v929q-178 25 -298 130t-120 300q0 150 81 251q146 182 431 182h115v-1792zM1026 -358h-209v1792h209v-1792z" />
    <glyph glyph-name="periodcentered" unicode="&#xb7;" horiz-adv-x="512" 
d="M375 524h-240v254h240v-254z" />
    <glyph glyph-name="cedilla" unicode="&#xb8;" horiz-adv-x="819" 
d="M450 -100q62 0 117 -56t55 -140t-65 -148q-66 -64 -160 -64q-145 0 -217 127l121 59q25 -66 92 -65q37 0 62 26q25 27 25 63t-26 64t-72 28t-71 -48l-131 68l90 213l121 -25l-49 -133l2 -2q44 33 106 33z" />
    <glyph glyph-name="onesuperior" unicode="&#xb9;" horiz-adv-x="448" 
d="M342 752h-162v639q-96 -43 -119 -52v146q4 2 175 90h106v-823z" />
    <glyph glyph-name="ordmasculine" unicode="&#xba;" horiz-adv-x="839" 
d="M614 1139q0 95 -54 159t-140 64t-140 -65t-54 -159t54 -158q54 -65 140 -65t140 65t54 159zM421 1503q157 0 259 -104t102 -260t-102 -260q-102 -105 -259 -105t-260 106t-104 259q-1 154 103 259t261 105z" />
    <glyph glyph-name="guillemotright" unicode="&#xbb;" horiz-adv-x="1114" 
d="M692 975l305 -299v-242l-305 -299l-106 172l260 246l-260 250zM223 975l305 -299v-242l-305 -299l-106 172l260 246l-260 250z" />
    <glyph glyph-name="onequarter" unicode="&#xbc;" horiz-adv-x="1554" 
d="M467 1434v-742h-156v568q-70 -33 -110 -50v142q4 2 159 82h107zM1133 305v234q-117 -176 -160 -234h160zM1286 737v-432h105v-127h-105v-178h-153v178h-320v133q145 188 315 426h158zM1190 1460l121 -88l-1020 -1399l-121 88z" />
    <glyph glyph-name="onehalf" unicode="&#xbd;" horiz-adv-x="1605" 
d="M467 1434v-742h-156v568q-70 -33 -110 -50v142q4 2 159 82h107zM1253 533q0 86 -88 88q-41 0 -65 -28t-23 -75l-153 27q6 92 77 149q72 58 169 58t170 -58t73 -149q0 -92 -80 -201q-57 -82 -186 -215h295v-129h-504v117q143 137 258 291q57 78 57 125zM1190 1460l121 -88
l-1020 -1399l-121 88z" />
    <glyph glyph-name="threequarters" unicode="&#xbe;" horiz-adv-x="1695" 
d="M328 1137q168 0 168 98q0 37 -26 61t-73 23q-76 0 -94 -76l-129 57q25 70 86 109t152 39q92 0 166 -54t73 -145q1 -45 -25 -89t-67 -66q57 -23 92 -72t35 -113q0 -105 -78 -165t-175 -60q-202 0 -271 150l129 59q35 -80 127 -80q47 0 79 26q31 25 31 73t-39 75t-89 27
t-72 -6v129zM1276 305v234q-117 -176 -160 -234h160zM1430 737v-432h102v-127h-102v-178h-154v178h-320v133q205 270 316 426h158zM1331 1460l121 -88l-1018 -1399l-121 88z" />
    <glyph glyph-name="questiondown" unicode="&#xbf;" horiz-adv-x="1110" 
d="M446 1038h238v-254h-238v254zM455 594h221v-334q-76 -27 -122 -46t-98 -55q-104 -72 -104 -198q0 -80 56 -137t147 -57q90 0 145 57t56 158v22h209v-14q0 -180 -121 -295t-294 -115t-290 116t-117 259q0 182 99 281q49 48 96 78t117 63v217z" />
    <glyph glyph-name="Agrave" unicode="&#xc0;" horiz-adv-x="1355" 
d="M723 1511l-363 261l119 149l340 -285zM672 1100l-223 -613h446l-221 613h-2zM1071 0l-106 295h-588l-107 -295h-241l563 1434h186l547 -1434h-254z" />
    <glyph glyph-name="Aacute" unicode="&#xc1;" horiz-adv-x="1355" 
d="M995 1772l-362 -261l-96 125l340 285zM672 1100l-223 -613h446l-221 613h-2zM1071 0l-106 295h-588l-107 -295h-241l563 1434h186l547 -1434h-254z" />
    <glyph glyph-name="Acircumflex" unicode="&#xc2;" horiz-adv-x="1355" 
d="M571 1886h228l221 -270l-125 -96l-211 223l-215 -223l-125 96zM672 1100l-223 -613h446l-221 613h-2zM1071 0l-106 295h-588l-107 -295h-241l563 1434h186l547 -1434h-254z" />
    <glyph glyph-name="Atilde" unicode="&#xc3;" horiz-adv-x="1355" 
d="M1073 1743q0 -91 -58 -145q-59 -54 -143 -54t-178 62t-131 63q-59 0 -63 -57q0 -14 2 -21l-142 -14q-6 25 -6 61q0 90 58 144t143 55q84 0 179 -62q95 -63 126 -63q66 -1 68 57q0 15 -2 21l141 14q6 -25 6 -61zM672 1100l-223 -613h446l-221 613h-2zM1071 0l-106 295
h-588l-107 -295h-241l563 1434h186l547 -1434h-254z" />
    <glyph glyph-name="Adieresis" unicode="&#xc4;" horiz-adv-x="1355" 
d="M1077 1563h-231v233h231v-233zM522 1563h-231v233h231v-233zM672 1100l-223 -613h446l-221 613h-2zM1071 0l-106 295h-588l-107 -295h-241l563 1434h186l547 -1434h-254z" />
    <glyph glyph-name="Aring" unicode="&#xc5;" horiz-adv-x="1355" 
d="M598 1683q0 -37 27 -63t63 -27q36 0 64 27q26 28 26 64t-26 63q-27 27 -64 27q-38 0 -64 -27t-26 -64zM487 1683q-1 81 59 141t142 60t141 -59t59 -141t-58 -142q-60 -59 -142 -59t-142 59t-59 141zM672 1100l-223 -613h446l-221 613h-2zM1071 0l-106 295h-588l-107 -295
h-241l563 1434h186l547 -1434h-254z" />
    <glyph glyph-name="AE" unicode="&#xc6;" horiz-adv-x="2031" 
d="M1028 487v621l-434 -621h434zM1903 0h-875v297h-565l-207 -297h-276l1050 1434h873v-193h-654v-405h654v-193h-654v-450h654v-193z" />
    <glyph glyph-name="Ccedilla" unicode="&#xc7;" horiz-adv-x="1380" 
d="M350 711q0 -245 148 -393t389 -148q166 0 313 106l119 -161q-197 -139 -436 -140q-66 0 -115 9l-47 -115l4 -2q37 33 107 33t120 -56q52 -56 52 -140t-66 -148t-160 -64q-145 0 -217 127l123 59q23 -66 90 -65q37 0 62 26q24 25 24 61t-22 64t-70 29q-47 0 -76 -47
l-131 70l88 190q-240 66 -386 255t-146 456q0 313 225 527t545 214q211 0 397 -119l-104 -168q-143 92 -293 93q-233 0 -385 -154t-152 -399z" />
    <glyph glyph-name="Egrave" unicode="&#xc8;" horiz-adv-x="1187" 
d="M709 1511l-363 261l119 149l340 -285zM1061 0h-875v1434h875v-193h-655v-405h655v-193h-655v-450h655v-193z" />
    <glyph glyph-name="Eacute" unicode="&#xc9;" horiz-adv-x="1187" 
d="M928 1772l-363 -261l-96 125l340 285zM1061 0h-875v1434h875v-193h-655v-405h655v-193h-655v-450h655v-193z" />
    <glyph glyph-name="Ecircumflex" unicode="&#xca;" horiz-adv-x="1187" 
d="M522 1886h228l221 -270l-125 -96l-211 223l-215 -223l-125 96zM1061 0h-875v1434h875v-193h-655v-405h655v-193h-655v-450h655v-193z" />
    <glyph glyph-name="Edieresis" unicode="&#xcb;" horiz-adv-x="1187" 
d="M1061 0h-875v1434h875v-193h-655v-405h655v-193h-655v-450h655v-193zM991 1563h-229v233h229v-233zM516 1563h-229v233h229v-233z" />
    <glyph glyph-name="Igrave" unicode="&#xcc;" horiz-adv-x="591" 
d="M336 1511l-363 261l119 149l340 -285zM406 0h-220v1434h220v-1434z" />
    <glyph glyph-name="Iacute" unicode="&#xcd;" horiz-adv-x="591" 
d="M627 1772l-363 -261l-96 125l340 285zM406 0h-220v1434h220v-1434z" />
    <glyph glyph-name="Icircumflex" unicode="&#xce;" horiz-adv-x="591" 
d="M184 1886h228l221 -270l-125 -96l-211 223l-215 -223l-125 96zM406 0h-220v1434h220v-1434z" />
    <glyph glyph-name="Idieresis" unicode="&#xcf;" horiz-adv-x="591" 
d="M406 0h-220v1434h220v-1434zM647 1563h-233v233h233v-233zM178 1563h-233v233h233v-233z" />
    <glyph glyph-name="Eth" unicode="&#xd0;" horiz-adv-x="1470" 
d="M465 193q313 0 484 119t171 386t-150 405q-151 138 -425 138h-139v-416h243v-172h-243v-460h59zM186 0v653h-141v172h141v609h394q295 0 523 -160q115 -80 183 -222t68 -330t-68 -334q-68 -144 -184 -226q-228 -162 -541 -162h-375z" />
    <glyph glyph-name="Ntilde" unicode="&#xd1;" horiz-adv-x="1542" 
d="M1149 1743q0 -91 -58 -145q-59 -54 -143 -54t-178 62t-131 63q-59 0 -64 -57q0 -14 3 -21l-142 -14q-6 25 -6 61q0 90 58 144t142 55q84 0 180 -62q95 -63 126 -63q66 -1 68 57q-1 15 -3 21l142 14q6 -25 6 -61zM1356 0h-195l-755 1028v-1028h-220v1434h193l758 -1028
v1028h219v-1434z" />
    <glyph glyph-name="Ograve" unicode="&#xd2;" horiz-adv-x="1716" 
d="M899 1511l-362 261l118 149l340 -285zM1599 717q0 -309 -214 -525t-527 -217q-313 0 -527 216q-214 215 -214 525t214 526t527 216t527 -216t214 -525zM1366 717q0 231 -144 389t-364 158t-363 -158q-145 -158 -145 -389t144 -389t364 -158q219 0 364 158
q144 158 144 389z" />
    <glyph glyph-name="Oacute" unicode="&#xd3;" horiz-adv-x="1716" 
d="M1188 1772l-363 -261l-96 125l340 285zM1599 717q0 -309 -214 -525t-527 -217q-313 0 -527 216q-214 215 -214 525t214 526t527 216t527 -216t214 -525zM1366 717q0 231 -144 389t-364 158t-363 -158q-145 -158 -145 -389t144 -389t364 -158q219 0 364 158
q144 158 144 389z" />
    <glyph glyph-name="Ocircumflex" unicode="&#xd4;" horiz-adv-x="1716" 
d="M745 1886h228l221 -270l-125 -96l-211 223l-215 -223l-125 96zM1599 717q0 -309 -214 -525t-527 -217q-313 0 -527 216q-214 215 -214 525t214 526t527 216t527 -216t214 -525zM1366 717q0 231 -144 389t-364 158t-363 -158q-145 -158 -145 -389t144 -389t364 -158
q219 0 364 158q144 158 144 389z" />
    <glyph glyph-name="Otilde" unicode="&#xd5;" horiz-adv-x="1716" 
d="M1059 1544q-84 0 -178 62t-131 63q-59 0 -64 -57q0 -14 2 -21l-141 -14q-6 25 -6 61q0 90 58 144q59 54 143 55q84 0 179 -62q95 -63 126 -63t49 15t18 36t-2 27l141 14q6 -25 7 -61q0 -91 -58 -145t-143 -54zM1599 717q0 -309 -214 -525t-527 -217q-313 0 -527 216
q-214 215 -214 525t214 526t527 216t527 -216t214 -525zM1366 717q0 231 -144 389t-364 158t-363 -158q-145 -158 -145 -389t144 -389t364 -158q219 0 364 158q144 158 144 389z" />
    <glyph glyph-name="Odieresis" unicode="&#xd6;" horiz-adv-x="1716" 
d="M1251 1563h-231v233h231v-233zM696 1563h-231v233h231v-233zM1599 717q0 -309 -214 -525t-527 -217q-313 0 -527 216q-214 215 -214 525t214 526t527 216t527 -216t214 -525zM1366 717q0 231 -144 389t-364 158t-363 -158q-145 -158 -145 -389t144 -389t364 -158
q219 0 364 158q144 158 144 389z" />
    <glyph glyph-name="multiply" unicode="&#xd7;" 
d="M264 1063l299 -299l299 299l127 -127l-299 -299l299 -299l-127 -127l-299 299l-299 -299l-127 127l299 299l-299 299z" />
    <glyph glyph-name="Oslash" unicode="&#xd8;" horiz-adv-x="1716" 
d="M350 719q0 -229 135 -381l592 874q-102 51 -219 52q-220 0 -364 -158t-144 -387zM1366 718q0 232 -145 390l-596 -881q104 -57 233 -57q219 0 364 158q144 158 144 390zM858 -25q-184 0 -346 84l-68 -100l-151 94l72 107q-117 102 -183 246t-65 311q0 309 214 525
t527 216q176 0 332 -78l59 88l150 -96l-60 -88q123 -104 192 -252t68 -315q0 -309 -214 -525t-527 -217z" />
    <glyph glyph-name="Ugrave" unicode="&#xd9;" horiz-adv-x="1476" 
d="M778 1511l-362 261l119 149l339 -285zM1298 1434v-760q0 -346 -136 -522t-426 -176t-424 176t-134 522v760h219v-807q0 -225 90 -341t252 -116t251 116t89 341v807h219z" />
    <glyph glyph-name="Uacute" unicode="&#xda;" horiz-adv-x="1476" 
d="M1061 1772l-363 -261l-96 125l340 285zM1298 1434v-760q0 -346 -136 -522t-426 -176t-424 176t-134 522v760h219v-807q0 -225 90 -341t252 -116t251 116t89 341v807h219z" />
    <glyph glyph-name="Ucircumflex" unicode="&#xdb;" horiz-adv-x="1476" 
d="M641 1886h227l222 -270l-125 -96l-211 223l-215 -223l-125 96zM1298 1434v-760q0 -346 -136 -522t-426 -176t-424 176t-134 522v760h219v-807q0 -225 90 -341t252 -116t251 116t89 341v807h219z" />
    <glyph glyph-name="Udieresis" unicode="&#xdc;" horiz-adv-x="1476" 
d="M1130 1563h-231v233h231v-233zM575 1563h-231v233h231v-233zM1298 1434v-760q0 -346 -136 -522t-426 -176t-424 176t-134 522v760h219v-807q0 -225 90 -341t252 -116t251 116t89 341v807h219z" />
    <glyph glyph-name="Yacute" unicode="&#xdd;" horiz-adv-x="1163" 
d="M893 1772l-363 -261l-96 125l340 285zM686 0h-219v618l-457 816h273l303 -582h4l307 582h256l-467 -826v-608z" />
    <glyph glyph-name="Thorn" unicode="&#xde;" horiz-adv-x="1226" 
d="M901 721q0 115 -80 181t-211 65h-204v-484h165q330 0 330 238zM186 1434h220v-275h215q285 0 432 -181q82 -102 82 -234q0 -248 -163 -351q-163 -104 -351 -102h-215v-291h-220v1434z" />
    <glyph glyph-name="germandbls" unicode="&#xdf;" horiz-adv-x="1288" 
d="M367 0h-209v1104q0 207 133 332t329 125t324 -114t129 -302q0 -84 -42 -159t-109 -122q130 -45 204 -150t74 -263q0 -213 -141 -345t-350 -131q-119 0 -213 52l71 176q66 -39 144 -39q137 0 207 78t70 217t-93 216q-92 77 -240 77q-61 0 -92 -4v165h45q96 1 175 63
t79 164t-65 168q-67 64 -183 64t-182 -81t-65 -226v-1065z" />
    <glyph glyph-name="agrave" unicode="&#xe0;" horiz-adv-x="1132" 
d="M553 1165l-281 334l150 117l258 -354zM599 485q-77 0 -134 -13t-105 -55t-47 -118t55 -116t138 -40q125 0 262 115v209q-92 18 -169 18zM979 0h-195l-6 104q-113 -129 -303 -129q-156 0 -262 81t-107 239q0 257 291 325q78 17 167 17t204 -23v31q0 240 -236 240
q-158 0 -325 -92l-60 170q209 98 418 98q414 0 414 -432v-629z" />
    <glyph glyph-name="aacute" unicode="&#xe1;" horiz-adv-x="1132" 
d="M842 1499l-281 -334l-127 97l258 354zM599 485q-77 0 -134 -13t-105 -55t-47 -118t55 -116t138 -40q125 0 262 115v209q-92 18 -169 18zM979 0h-195l-6 104q-113 -129 -303 -129q-156 0 -262 81t-107 239q0 257 291 325q78 17 167 17t204 -23v31q0 240 -236 240
q-158 0 -325 -92l-60 170q209 98 418 98q414 0 414 -432v-629z" />
    <glyph glyph-name="acircumflex" unicode="&#xe2;" horiz-adv-x="1132" 
d="M430 1593h213l211 -344l-123 -80l-196 277l-195 -277l-125 80zM599 485q-77 0 -134 -13t-105 -55t-47 -118t55 -116t138 -40q125 0 262 115v209q-92 18 -169 18zM979 0h-195l-6 104q-113 -129 -303 -129q-156 0 -262 81t-107 239q0 257 291 325q78 17 167 17t204 -23v31
q0 240 -236 240q-158 0 -325 -92l-60 170q209 98 418 98q414 0 414 -432v-629z" />
    <glyph glyph-name="atilde" unicode="&#xe3;" horiz-adv-x="1132" 
d="M702 1352q59 0 64 59q0 12 -2 19l141 14q8 -29 8 -53q0 -91 -59 -145q-58 -54 -144 -54t-181 62t-128 63q-59 0 -63 -60q0 -12 2 -18l-141 -14q-8 29 -9 53q0 90 60 144t144 54q85 0 180 -62t128 -62zM599 485q-77 0 -134 -13t-105 -55t-47 -118t55 -116t138 -40
q125 0 262 115v209q-92 18 -169 18zM979 0h-195l-6 104q-113 -129 -303 -129q-156 0 -262 81t-107 239q0 257 291 325q78 17 167 17t204 -23v31q0 240 -236 240q-158 0 -325 -92l-60 170q209 98 418 98q414 0 414 -432v-629z" />
    <glyph glyph-name="adieresis" unicode="&#xe4;" horiz-adv-x="1132" 
d="M874 1225h-215v219h215v-219zM438 1225h-215v219h215v-219zM599 485q-77 0 -134 -13t-105 -55t-47 -118t55 -116t138 -40q125 0 262 115v209q-92 18 -169 18zM979 0h-195l-6 104q-113 -129 -303 -129q-156 0 -262 81t-107 239q0 257 291 325q78 17 167 17t204 -23v31
q0 240 -236 240q-158 0 -325 -92l-60 170q209 98 418 98q414 0 414 -432v-629z" />
    <glyph glyph-name="aring" unicode="&#xe5;" horiz-adv-x="1132" 
d="M467 1364q0 -37 27 -64q28 -26 64 -26t63 26t26 64t-27 64t-63 26t-63 -26t-27 -64zM356 1364q0 82 60 141t141 59q82 0 141 -58q60 -60 60 -142t-60 -141t-141 -59t-141 58q-60 60 -60 142zM599 485q-77 0 -134 -13t-105 -55t-47 -118t55 -116t138 -40q125 0 262 115
v209q-92 18 -169 18zM979 0h-195l-6 104q-113 -129 -303 -129q-156 0 -262 81t-107 239q0 257 291 325q78 17 167 17t204 -23v31q0 240 -236 240q-158 0 -325 -92l-60 170q209 98 418 98q414 0 414 -432v-629z" />
    <glyph glyph-name="ae" unicode="&#xe6;" horiz-adv-x="1839" 
d="M1276 885q-110 0 -186 -72t-105 -186h553q-6 109 -79 183t-183 75zM475 -25q-156 0 -262 81t-107 239q0 257 291 325q78 17 167 17t204 -23v31q0 240 -236 240q-158 0 -325 -92l-60 170q209 98 418 98q254 0 348 -164q143 164 357 164t351 -137q136 -137 136 -344
q0 -63 -10 -115h-774q12 -131 96 -221t219 -90q207 -1 299 163l150 -96q-82 -127 -192 -186t-267 -60q-256 0 -397 172q-156 -172 -406 -172zM599 485q-77 0 -134 -13t-105 -55t-47 -118t55 -116t138 -40q162 1 293 148q-29 78 -39 176q-84 18 -161 18z" />
    <glyph glyph-name="ccedilla" unicode="&#xe7;" horiz-adv-x="991" 
d="M612 -25q-25 0 -37 2l-40 -108l2 -2q45 33 107 33t117 -56q54 -56 54 -140q1 -84 -65 -148t-160 -64q-145 0 -217 127l123 59q23 -66 90 -65q38 0 62 26q24 27 24 63t-26 64t-72 28t-70 -48l-131 68l78 184q-166 47 -268 186q-101 139 -101 350t156 369t383 158
q174 0 311 -98l-103 -166q-95 73 -219 73t-218 -103t-95 -253q0 -150 95 -249q94 -99 222 -99t222 74l106 -156q-127 -109 -330 -109z" />
    <glyph glyph-name="egrave" unicode="&#xe8;" horiz-adv-x="1161" 
d="M584 1165l-281 334l150 117l258 -354zM598 885q-110 0 -186 -72t-105 -186h553q-6 109 -79 183t-183 75zM608 154q209 0 301 163l148 -96q-80 -127 -191 -186t-268 -60q-238 0 -377 153t-139 386t148 390t362 157t351 -137q136 -137 136 -344q0 -63 -10 -115h-774
q10 -133 95 -222t218 -89z" />
    <glyph glyph-name="eacute" unicode="&#xe9;" horiz-adv-x="1161" 
d="M905 1499l-280 -334l-127 97l258 354zM598 885q-110 0 -186 -72t-105 -186h553q-6 109 -79 183t-183 75zM608 154q209 0 301 163l148 -96q-80 -127 -191 -186t-268 -60q-238 0 -377 153t-139 386t148 390t362 157t351 -137q136 -137 136 -344q0 -63 -10 -115h-774
q10 -133 95 -222t218 -89z" />
    <glyph glyph-name="ecircumflex" unicode="&#xea;" horiz-adv-x="1161" 
d="M494 1593h213l211 -344l-123 -80l-197 277l-195 -277l-124 80zM598 885q-110 0 -186 -72t-105 -186h553q-6 109 -79 183t-183 75zM608 154q209 0 301 163l148 -96q-80 -127 -191 -186t-268 -60q-238 0 -377 153t-139 386t148 390t362 157t351 -137q136 -137 136 -344
q0 -63 -10 -115h-774q10 -133 95 -222t218 -89z" />
    <glyph glyph-name="edieresis" unicode="&#xeb;" horiz-adv-x="1161" 
d="M926 1225h-215v219h215v-219zM489 1225h-215v219h215v-219zM598 885q-110 0 -186 -72t-105 -186h553q-6 109 -79 183t-183 75zM608 154q209 0 301 163l148 -96q-80 -127 -191 -186t-268 -60q-238 0 -377 153t-139 386t148 390t362 157t351 -137q136 -137 136 -344
q0 -63 -10 -115h-774q10 -133 95 -222t218 -89z" />
    <glyph glyph-name="igrave" unicode="&#xec;" horiz-adv-x="538" 
d="M248 1165l-281 334l150 117l258 -354zM375 0h-211v1036h211v-1036z" />
    <glyph glyph-name="iacute" unicode="&#xed;" horiz-adv-x="538" 
d="M569 1499l-280 -334l-127 97l258 354zM375 0h-211v1036h211v-1036z" />
    <glyph glyph-name="icircumflex" unicode="&#xee;" horiz-adv-x="538" 
d="M164 1593h213l211 -344l-123 -80l-197 277l-194 -277l-125 80zM375 0h-211v1036h211v-1036z" />
    <glyph glyph-name="idieresis" unicode="&#xef;" horiz-adv-x="538" 
d="M375 0h-211v1036h211v-1036zM590 1225h-215v219h215v-219zM168 1225h-215v219h215v-219z" />
    <glyph glyph-name="eth" unicode="&#xf0;" horiz-adv-x="1189" 
d="M611 778q-138 0 -228 -78t-90 -215t85 -232q86 -95 228 -95t216 99t75 253q0 86 -31 201q-117 67 -255 67zM1108 489q0 -215 -144 -365t-374 -149q-230 0 -370 151q-138 152 -138 354t134 341t327 140q131 0 250 -66q-111 186 -320 324l-113 -195l-141 84l111 192
q-78 43 -195 91l78 178q117 -53 211 -101l106 189l146 -82l-107 -186q539 -340 539 -900z" />
    <glyph glyph-name="ntilde" unicode="&#xf1;" horiz-adv-x="1247" 
d="M305 1278q-1 90 59 144t145 54t180 -62t128 -62q59 0 64 59q0 12 -2 19l141 14q8 -29 8 -53q0 -91 -59 -145t-145 -54t-180 62q-95 62 -128 63q-59 0 -63 -60q0 -12 2 -18l-142 -14q-8 29 -8 53zM164 1036h201l6 -164q57 90 146 140t190 49q197 0 291 -129t96 -393v-539
h-211v520q0 193 -49 272t-170 78q-82 0 -160 -50t-129 -134v-686h-211v1036z" />
    <glyph glyph-name="ograve" unicode="&#xf2;" horiz-adv-x="1228" 
d="M575 1165l-280 334l149 117l258 -354zM932 518q0 148 -90 250t-228 102t-227 -102q-90 -102 -90 -250t90 -250t227 -102t228 102q90 103 90 250zM613 1061q228 0 381 -157t153 -386t-153 -386t-381 -157t-380 157t-151 386q0 229 151 386q152 157 380 157z" />
    <glyph glyph-name="oacute" unicode="&#xf3;" horiz-adv-x="1228" 
d="M924 1499l-281 -334l-127 97l258 354zM932 518q0 148 -90 250t-228 102t-227 -102q-90 -102 -90 -250t90 -250t227 -102t228 102q90 103 90 250zM613 1061q228 0 381 -157t153 -386t-153 -386t-381 -157t-380 157t-151 386q0 229 151 386q152 157 380 157z" />
    <glyph glyph-name="ocircumflex" unicode="&#xf4;" horiz-adv-x="1228" 
d="M508 1593h213l211 -344l-123 -80l-197 277l-194 -277l-125 80zM932 518q0 148 -90 250t-228 102t-227 -102q-90 -102 -90 -250t90 -250t227 -102t228 102q90 103 90 250zM613 1061q228 0 381 -157t153 -386t-153 -386t-381 -157t-380 157t-151 386q0 229 151 386
q152 157 380 157z" />
    <glyph glyph-name="otilde" unicode="&#xf5;" horiz-adv-x="1228" 
d="M782 1352q59 0 64 59q0 12 -2 19l141 14q8 -29 8 -53q0 -91 -59 -145q-58 -54 -144 -54t-181 62t-128 63q-59 0 -63 -60q0 -12 2 -18l-141 -14q-8 29 -9 53q0 90 60 144t144 54q85 0 180 -62t128 -62zM932 518q0 148 -90 250t-228 102t-227 -102q-90 -102 -90 -250
t90 -250t227 -102t228 102q90 103 90 250zM613 1061q228 0 381 -157t153 -386t-153 -386t-381 -157t-380 157t-151 386q0 229 151 386q152 157 380 157z" />
    <glyph glyph-name="odieresis" unicode="&#xf6;" horiz-adv-x="1228" 
d="M940 1225h-215v219h215v-219zM504 1225h-215v219h215v-219zM932 518q0 148 -90 250t-228 102t-227 -102q-90 -102 -90 -250t90 -250t227 -102t228 102q90 103 90 250zM613 1061q228 0 381 -157t153 -386t-153 -386t-381 -157t-380 157t-151 386q0 229 151 386
q152 157 380 157z" />
    <glyph glyph-name="divide" unicode="&#xf7;" 
d="M682 909h-240v254h240v-254zM682 113h-240v254h240v-254zM49 549v178h1026v-178h-1026z" />
    <glyph glyph-name="oslash" unicode="&#xf8;" horiz-adv-x="1228" 
d="M297 526q0 -139 70 -233l372 549q-53 29 -125 28q-137 0 -227 -102t-90 -242zM932 514q0 143 -80 240l-375 -555q59 -33 137 -33q137 0 228 102q90 103 90 246zM614 1061q131 0 236 -55l51 75l121 -77l-53 -76q178 -162 178 -400t-153 -396q-153 -157 -380 -157
q-133 0 -247 60l-56 -82l-121 78l60 86q-168 158 -168 394t151 393q152 157 381 157z" />
    <glyph glyph-name="ugrave" unicode="&#xf9;" horiz-adv-x="1247" 
d="M625 1165l-281 334l150 117l258 -354zM1083 0h-200l-6 164q-57 -90 -147 -139t-189 -50q-197 0 -292 129t-95 394v538h211v-520q0 -194 49 -272t170 -78q82 0 160 50t128 134v686h211v-1036z" />
    <glyph glyph-name="uacute" unicode="&#xfa;" horiz-adv-x="1247" 
d="M924 1499l-281 -334l-127 97l258 354zM1083 0h-200l-6 164q-57 -90 -147 -139t-189 -50q-197 0 -292 129t-95 394v538h211v-520q0 -194 49 -272t170 -78q82 0 160 50t128 134v686h211v-1036z" />
    <glyph glyph-name="ucircumflex" unicode="&#xfb;" horiz-adv-x="1247" 
d="M526 1593h213l211 -344l-123 -80l-196 277l-195 -277l-125 80zM1083 0h-200l-6 164q-57 -90 -147 -139t-189 -50q-197 0 -292 129t-95 394v538h211v-520q0 -194 49 -272t170 -78q82 0 160 50t128 134v686h211v-1036z" />
    <glyph glyph-name="udieresis" unicode="&#xfc;" horiz-adv-x="1247" 
d="M944 1225h-215v219h215v-219zM508 1225h-215v219h215v-219zM1083 0h-200l-6 164q-57 -90 -147 -139t-189 -50q-197 0 -292 129t-95 394v538h211v-520q0 -194 49 -272t170 -78q82 0 160 50t128 134v686h211v-1036z" />
    <glyph glyph-name="yacute" unicode="&#xfd;" horiz-adv-x="1003" 
d="M778 1499l-280 -334l-127 97l258 354zM10 1036h234l254 -745h4l262 745h229l-583 -1505l-187 74l164 434z" />
    <glyph glyph-name="thorn" unicode="&#xfe;" horiz-adv-x="1290" 
d="M662 166q158 0 244 106t87 248q0 142 -90 246t-237 104q-86 0 -169 -47t-120 -135v-375q51 -71 128 -109t157 -38zM164 1536h213v-631q53 76 141 116t182 40q216 0 362 -158t146 -381t-144 -385t-352 -162t-335 134v-621h-213v2048z" />
    <glyph glyph-name="ydieresis" unicode="&#xff;" horiz-adv-x="1003" 
d="M831 1225h-215v219h215v-219zM395 1225h-215v219h215v-219zM10 1036h234l254 -745h4l262 745h229l-583 -1505l-187 74l164 434z" />
    <glyph glyph-name="Amacron" unicode="&#x100;" horiz-adv-x="1355" 
d="M1028 1583h-692v158h692v-158zM672 1100l-223 -613h446l-221 613h-2zM1071 0l-106 295h-588l-107 -295h-241l563 1434h186l547 -1434h-254z" />
    <glyph glyph-name="amacron" unicode="&#x101;" horiz-adv-x="1132" 
d="M887 1245h-631v158h631v-158zM599 485q-77 0 -134 -13t-105 -55t-47 -118t55 -116t138 -40q125 0 262 115v209q-92 18 -169 18zM979 0h-195l-6 104q-113 -129 -303 -129q-156 0 -262 81t-107 239q0 257 291 325q78 17 167 17t204 -23v31q0 240 -236 240q-158 0 -325 -92
l-60 170q209 98 418 98q414 0 414 -432v-629z" />
    <glyph glyph-name="Abreve" unicode="&#x102;" horiz-adv-x="1355" 
d="M840 1855h147v-14q0 -127 -87 -209t-216 -82t-216 82t-87 209v14h147v-16q0 -63 45 -103t111 -40t111 40t45 103v16zM672 1100l-223 -613h446l-221 613h-2zM1071 0l-106 295h-588l-107 -295h-241l563 1434h186l547 -1434h-254z" />
    <glyph glyph-name="abreve" unicode="&#x103;" horiz-adv-x="1132" 
d="M745 1505h148v-37q0 -127 -88 -215t-215 -88t-215 88t-88 215v37h151v-39q0 -66 44 -110t109 -45q65 0 109 45t45 110v39zM599 485q-77 0 -134 -13t-105 -55t-47 -118t55 -116t138 -40q125 0 262 115v209q-92 18 -169 18zM979 0h-195l-6 104q-113 -129 -303 -129
q-156 0 -262 81t-107 239q0 257 291 325q78 17 167 17t204 -23v31q0 240 -236 240q-158 0 -325 -92l-60 170q209 98 418 98q414 0 414 -432v-629z" />
    <glyph glyph-name="Aogonek" unicode="&#x104;" horiz-adv-x="1355" 
d="M905 -261q0 87 44 156t122 107l-106 293h-588l-107 -295h-241l563 1434h186l547 -1434q-121 -27 -178 -89t-57 -130q0 -88 90 -88q45 0 90 28l67 -116q-74 -63 -183 -63t-179 54q-70 56 -70 143zM672 1100l-223 -613h446l-221 613h-2z" />
    <glyph glyph-name="aogonek" unicode="&#x105;" horiz-adv-x="1132" 
d="M850 -307q47 0 92 28l66 -116q-74 -63 -182 -63t-180 54q-71 56 -71 148q0 162 209 264l-6 96q-113 -129 -303 -129q-156 0 -262 81t-107 239q0 257 291 325q78 17 167 17t204 -23v31q0 240 -236 240q-158 0 -325 -92l-60 170q209 98 418 98q414 0 414 -432v-629
q-82 -20 -151 -80t-68 -139q0 -88 90 -88zM599 485q-77 0 -134 -13t-105 -55t-47 -118t55 -116t138 -40q125 0 262 115v209q-92 18 -169 18z" />
    <glyph glyph-name="Cacute" unicode="&#x106;" horiz-adv-x="1380" 
d="M1188 1772l-363 -261l-96 125l340 285zM350 711q0 -245 148 -393t389 -148q166 0 313 106l119 -161q-197 -139 -436 -140q-328 0 -547 206q-219 205 -219 527t225 536t545 214q211 0 397 -119l-104 -168q-143 92 -293 93q-233 0 -385 -154t-152 -399z" />
    <glyph glyph-name="cacute" unicode="&#x107;" horiz-adv-x="991" 
d="M924 1499l-281 -334l-127 97l258 354zM600 -25q-215 0 -367 151q-151 151 -151 385t156 392t383 158q174 0 311 -98l-103 -166q-95 73 -219 73t-218 -103t-95 -253q0 -150 95 -249q94 -99 222 -99t222 74l106 -156q-127 -109 -342 -109z" />
    <glyph glyph-name="Ccircumflex" unicode="&#x108;" horiz-adv-x="1380" 
d="M754 1886h227l221 -270l-125 -96l-211 223l-215 -223l-125 96zM350 711q0 -245 148 -393t389 -148q166 0 313 106l119 -161q-197 -139 -436 -140q-328 0 -547 206q-219 205 -219 527t225 536t545 214q211 0 397 -119l-104 -168q-143 92 -293 93q-233 0 -385 -154
t-152 -399z" />
    <glyph glyph-name="ccircumflex" unicode="&#x109;" horiz-adv-x="991" 
d="M496 1593h213l211 -344l-123 -80l-197 277l-194 -277l-125 80zM600 -25q-215 0 -367 151q-151 151 -151 385t156 392t383 158q174 0 311 -98l-103 -166q-95 73 -219 73t-218 -103t-95 -253q0 -150 95 -249q94 -99 222 -99t222 74l106 -156q-127 -109 -342 -109z" />
    <glyph glyph-name="Cdotaccent" unicode="&#x10a;" horiz-adv-x="1380" 
d="M973 1563h-230v233h230v-233zM350 711q0 -245 148 -393t389 -148q166 0 313 106l119 -161q-197 -139 -436 -140q-328 0 -547 206q-219 205 -219 527t225 536t545 214q211 0 397 -119l-104 -168q-143 92 -293 93q-233 0 -385 -154t-152 -399z" />
    <glyph glyph-name="cdotaccent" unicode="&#x10b;" horiz-adv-x="991" 
d="M688 1225h-211v219h211v-219zM600 -25q-215 0 -367 151q-151 151 -151 385t156 392t383 158q174 0 311 -98l-103 -166q-95 73 -219 73t-218 -103t-95 -253q0 -150 95 -249q94 -99 222 -99t222 74l106 -156q-127 -109 -342 -109z" />
    <glyph glyph-name="Ccaron" unicode="&#x10c;" horiz-adv-x="1380" 
d="M977 1542h-227l-222 270l129 97l211 -223l215 223l121 -97zM350 711q0 -245 148 -393t389 -148q166 0 313 106l119 -161q-197 -139 -436 -140q-328 0 -547 206q-219 205 -219 527t225 536t545 214q211 0 397 -119l-104 -168q-143 92 -293 93q-233 0 -385 -154t-152 -399z
" />
    <glyph glyph-name="ccaron" unicode="&#x10d;" horiz-adv-x="991" 
d="M707 1169h-213l-211 344l127 78l196 -276l195 276l121 -78zM600 -25q-215 0 -367 151q-151 151 -151 385t156 392t383 158q174 0 311 -98l-103 -166q-95 73 -219 73t-218 -103t-95 -253q0 -150 95 -249q94 -99 222 -99t222 74l106 -156q-127 -109 -342 -109z" />
    <glyph glyph-name="Dcaron" unicode="&#x10e;" horiz-adv-x="1470" 
d="M776 1542h-227l-221 270l129 97l211 -223l215 223l121 -97zM465 193q313 0 484 119t171 386t-150 405q-151 138 -425 138h-139v-1048h59zM186 0v1434h394q295 0 523 -160q115 -80 183 -222t68 -330t-68 -334q-68 -144 -184 -226q-228 -162 -541 -162h-375z" />
    <glyph glyph-name="dcaron" unicode="&#x10f;" horiz-adv-x="1327" 
d="M1366 1118h-176l82 418h205zM629 870q-158 0 -245 -106t-87 -248t90 -246t238 -104q86 0 170 48t120 136v371q-51 73 -129 111t-157 38zM1126 1536v-1536h-200l-6 137q-54 -78 -144 -120t-186 -42q-217 0 -363 158q-145 158 -145 381t144 385t352 162t337 -135v610h211z
" />
    <glyph glyph-name="Dcroat" unicode="&#x110;" horiz-adv-x="1470" 
d="M465 193q313 0 484 119t171 386t-150 405q-151 138 -425 138h-139v-416h243v-172h-243v-460h59zM186 0v653h-141v172h141v609h394q295 0 523 -160q115 -80 183 -222t68 -330t-68 -334q-68 -144 -184 -226q-228 -162 -541 -162h-375z" />
    <glyph glyph-name="dcroat" unicode="&#x111;" horiz-adv-x="1290" 
d="M625 166q86 0 170 48t120 136v371q-51 73 -129 111t-157 38q-158 0 -245 -106t-87 -248t90 -247q91 -103 238 -103zM590 -25q-217 0 -363 158q-145 158 -145 381t144 385t352 162t337 -135v276h-333v160h333v174h211v-174h144v-160h-144v-1202h-200l-6 137
q-54 -78 -144 -120t-186 -42z" />
    <glyph glyph-name="Emacron" unicode="&#x112;" horiz-adv-x="1187" 
d="M985 1583h-692v158h692v-158zM1061 0h-875v1434h875v-193h-655v-405h655v-193h-655v-450h655v-193z" />
    <glyph glyph-name="emacron" unicode="&#x113;" horiz-adv-x="1161" 
d="M918 1245h-631v158h631v-158zM598 885q-110 0 -186 -72t-105 -186h553q-6 109 -79 183t-183 75zM608 154q209 0 301 163l148 -96q-80 -127 -191 -186t-268 -60q-238 0 -377 153t-139 386t148 390t362 157t351 -137q136 -137 136 -344q0 -63 -10 -115h-774
q10 -133 95 -222t218 -89z" />
    <glyph glyph-name="Ebreve" unicode="&#x114;" horiz-adv-x="1187" 
d="M819 1855h148v-14q0 -127 -87 -209t-216 -82t-217 82q-87 82 -87 209v14h148v-16q0 -63 45 -103t111 -40t110 40t45 103v16zM1061 0h-875v1434h875v-193h-655v-405h655v-193h-655v-450h655v-193z" />
    <glyph glyph-name="ebreve" unicode="&#x115;" horiz-adv-x="1161" 
d="M756 1505h147v-37q0 -127 -88 -215t-215 -88t-215 88t-88 215v37h152v-39q0 -66 44 -110t107 -45q63 0 110 45q46 45 46 110v39zM598 885q-110 0 -186 -72t-105 -186h553q-6 109 -79 183t-183 75zM608 154q209 0 301 163l148 -96q-80 -127 -191 -186t-268 -60
q-238 0 -377 153t-139 386t148 390t362 157t351 -137q136 -137 136 -344q0 -63 -10 -115h-774q10 -133 95 -222t218 -89z" />
    <glyph glyph-name="Edotaccent" unicode="&#x116;" horiz-adv-x="1187" 
d="M758 1563h-230v233h230v-233zM1061 0h-875v1434h875v-193h-655v-405h655v-193h-655v-450h655v-193z" />
    <glyph glyph-name="edotaccent" unicode="&#x117;" horiz-adv-x="1161" 
d="M696 1225h-211v219h211v-219zM598 885q-110 0 -186 -72t-105 -186h553q-6 109 -79 183t-183 75zM608 154q209 0 301 163l148 -96q-80 -127 -191 -186t-268 -60q-238 0 -377 153t-139 386t148 390t362 157t351 -137q136 -137 136 -344q0 -63 -10 -115h-774
q10 -133 95 -222t218 -89z" />
    <glyph glyph-name="Eogonek" unicode="&#x118;" horiz-adv-x="1187" 
d="M186 0v1434h875v-193h-655v-405h655v-193h-655v-450h655v-193q-119 -16 -182 -84t-64 -135q0 -88 90 -88q47 0 92 28l66 -116q-75 -63 -183 -63t-179 54q-71 56 -70 152q0 166 174 252h-619z" />
    <glyph glyph-name="eogonek" unicode="&#x119;" horiz-adv-x="1161" 
d="M608 154q209 0 301 163l148 -96q-96 -154 -260 -217q-97 -37 -151 -91t-54 -116q0 -104 90 -104q45 0 92 28l66 -116q-74 -63 -184 -63t-180 54q-69 56 -68 152q0 137 135 232q-211 20 -336 170t-125 374t148 380q148 157 362 157t351 -137q136 -137 136 -344
q0 -63 -10 -115h-774q10 -133 95 -222t218 -89zM598 885q-110 0 -186 -72t-105 -186h553q-6 109 -79 183t-183 75z" />
    <glyph glyph-name="Ecaron" unicode="&#x11a;" horiz-adv-x="1187" 
d="M743 1542h-227l-221 270l129 97l211 -223l215 223l121 -97zM1061 0h-875v1434h875v-193h-655v-405h655v-193h-655v-450h655v-193z" />
    <glyph glyph-name="ecaron" unicode="&#x11b;" horiz-adv-x="1161" 
d="M705 1169h-213l-211 344l127 78l196 -276l195 276l121 -78zM598 885q-110 0 -186 -72t-105 -186h553q-6 109 -79 183t-183 75zM608 154q209 0 301 163l148 -96q-80 -127 -191 -186t-268 -60q-238 0 -377 153t-139 386t148 390t362 157t351 -137q136 -137 136 -344
q0 -63 -10 -115h-774q10 -133 95 -222t218 -89z" />
    <glyph glyph-name="Gcircumflex" unicode="&#x11c;" horiz-adv-x="1640" 
d="M774 1886h227l222 -270l-125 -96l-211 223l-215 -223l-125 96zM1264 610h-361v193h580v-549q-104 -135 -260 -207t-336 -72q-332 0 -551 207q-219 208 -219 528t225 534t554 214t556 -260l-154 -131q-172 197 -408 197t-388 -155t-152 -397t148 -393q148 -149 380 -149
t386 147v293z" />
    <glyph glyph-name="gcircumflex" unicode="&#x11d;" horiz-adv-x="1280" 
d="M500 1593h213l211 -344l-123 -80l-197 277l-194 -277l-125 80zM590 0q-219 0 -364 153q-144 153 -144 373t144 378q144 157 368 157q90 0 178 -38t150 -103l4 116h200v-981q0 -164 -57 -272q-127 -242 -465 -242q-266 0 -465 140l82 178q76 -55 180 -91t197 -36
q139 0 228 72t89 221v133q-53 -76 -142 -117t-183 -41zM629 870q-160 0 -246 -101t-86 -243t90 -238q90 -97 238 -98q85 0 169 48t121 137v346q-51 73 -129 111t-157 38z" />
    <glyph glyph-name="Gbreve" unicode="&#x11e;" horiz-adv-x="1640" 
d="M1044 1855h148v-14q0 -127 -87 -209t-216 -82t-216 82t-87 209v14h147v-16q0 -63 45 -103t111 -40q67 0 111 40t44 103v16zM1264 610h-361v193h580v-549q-104 -135 -260 -207t-336 -72q-332 0 -551 207q-219 208 -219 528t225 534t554 214t556 -260l-154 -131
q-172 197 -408 197t-388 -155t-152 -397t148 -393q148 -149 380 -149t386 147v293z" />
    <glyph glyph-name="gbreve" unicode="&#x11f;" horiz-adv-x="1280" 
d="M778 1505h148v-37q0 -127 -88 -215t-215 -88t-215 88t-89 215v37h152v-39q0 -66 44 -110t109 -45q66 0 110 45t44 110v39zM590 0q-219 0 -364 153q-144 153 -144 373t144 378q144 157 368 157q90 0 178 -38t150 -103l4 116h200v-981q0 -164 -57 -272q-127 -242 -465 -242
q-266 0 -465 140l82 178q76 -55 180 -91t197 -36q139 0 228 72t89 221v133q-53 -76 -142 -117t-183 -41zM629 870q-160 0 -246 -101t-86 -243t90 -238q90 -97 238 -98q85 0 169 48t121 137v346q-51 73 -129 111t-157 38z" />
    <glyph glyph-name="Gdotaccent" unicode="&#x120;" horiz-adv-x="1640" 
d="M975 1563h-230v233h230v-233zM1264 610h-361v193h580v-549q-104 -135 -260 -207t-336 -72q-332 0 -551 207q-219 208 -219 528t225 534t554 214t556 -260l-154 -131q-172 197 -408 197t-388 -155t-152 -397t148 -393q148 -149 380 -149t386 147v293z" />
    <glyph glyph-name="gdotaccent" unicode="&#x121;" horiz-adv-x="1280" 
d="M711 1225h-211v219h211v-219zM590 0q-219 0 -364 153q-144 153 -144 373t144 378q144 157 368 157q90 0 178 -38t150 -103l4 116h200v-981q0 -164 -57 -272q-127 -242 -465 -242q-266 0 -465 140l82 178q76 -55 180 -91t197 -36q139 0 228 72t89 221v133
q-53 -76 -142 -117t-183 -41zM629 870q-160 0 -246 -101t-86 -243t90 -238q90 -97 238 -98q85 0 169 48t121 137v346q-51 73 -129 111t-157 38z" />
    <glyph glyph-name="Gcommaaccent" unicode="&#x122;" horiz-adv-x="1640" 
d="M834 -481h-170l73 364h197zM1264 610h-361v193h580v-549q-104 -135 -260 -207t-336 -72q-332 0 -551 207q-219 208 -219 528t225 534t554 214t556 -260l-154 -131q-172 197 -408 197t-388 -155t-152 -397t148 -393q148 -149 380 -149t386 147v293z" />
    <glyph glyph-name="gcommaaccent" unicode="&#x123;" horiz-adv-x="1280" 
d="M606 1540h176l-75 -373h-201zM590 0q-219 0 -364 153q-144 153 -144 373t144 378q144 157 368 157q90 0 178 -38t150 -103l4 116h200v-981q0 -164 -57 -272q-127 -242 -465 -242q-266 0 -465 140l82 178q76 -55 180 -91t197 -36q139 0 228 72t89 221v133
q-53 -76 -142 -117t-183 -41zM629 870q-160 0 -246 -101t-86 -243t90 -238q90 -97 238 -98q85 0 169 48t121 137v346q-51 73 -129 111t-157 38z" />
    <glyph glyph-name="Hcircumflex" unicode="&#x124;" horiz-adv-x="1533" 
d="M655 1886h228l221 -270l-125 -96l-211 223l-215 -223l-125 96zM1348 0h-220v643h-722v-643h-220v1434h220v-598h722v598h220v-1434z" />
    <glyph glyph-name="hcircumflex" unicode="&#x125;" horiz-adv-x="1247" 
d="M156 1898h227l221 -270l-125 -96l-211 223l-215 -223l-125 96zM375 1536v-659q57 88 145 136t187 48q197 0 291 -129t96 -393v-539h-211v520q0 193 -49 272t-170 78q-82 0 -160 -50t-129 -134v-686h-211v1536h211z" />
    <glyph glyph-name="Hbar" unicode="&#x126;" horiz-adv-x="1533" 
d="M406 836h722v213h-722v-213zM1348 0h-220v643h-722v-643h-220v1049h-182v165h182v220h220v-220h722v220h220v-220h182v-165h-182v-1049z" />
    <glyph glyph-name="hbar" unicode="&#x127;" horiz-adv-x="1247" 
d="M375 1536v-174h336v-160h-336v-325q57 88 145 136t187 48q197 0 291 -129t96 -393v-539h-211v520q0 193 -49 272t-170 78q-82 0 -160 -50t-129 -134v-686h-211v1202h-144v160h144v174h211z" />
    <glyph glyph-name="Itilde" unicode="&#x128;" horiz-adv-x="591" 
d="M657 1743q0 -91 -58 -145t-142 -54t-178 62t-132 63q-59 0 -63 -57q0 -14 2 -21l-141 -14q-6 25 -6 61q0 90 58 144t142 55q84 0 179 -62q94 -63 126 -63q68 -1 68 57q0 15 -2 21l141 14q6 -25 6 -61zM406 0h-220v1434h220v-1434z" />
    <glyph glyph-name="itilde" unicode="&#x129;" horiz-adv-x="538" 
d="M-90 1278q0 90 59 144t145 54t180 -62q95 -62 128 -62q59 0 63 59q0 12 -2 19l142 14q8 -29 8 -53q1 -91 -59 -145t-145 -54t-180 62t-128 63q-59 0 -64 -60q0 -12 2 -18l-141 -14q-8 29 -8 53zM375 0h-211v1036h211v-1036z" />
    <glyph glyph-name="Imacron" unicode="&#x12a;" horiz-adv-x="591" 
d="M643 1583h-692v158h692v-158zM406 0h-220v1434h220v-1434z" />
    <glyph glyph-name="imacron" unicode="&#x12b;" horiz-adv-x="538" 
d="M586 1245h-631v158h631v-158zM375 0h-211v1036h211v-1036z" />
    <glyph glyph-name="Ibreve" unicode="&#x12c;" horiz-adv-x="591" 
d="M453 1855h147v-14q0 -127 -87 -209t-216 -82t-216 82t-87 209v14h147v-16q0 -63 45 -103t111 -40t111 40t45 103v16zM406 0h-220v1434h220v-1434z" />
    <glyph glyph-name="ibreve" unicode="&#x12d;" horiz-adv-x="538" 
d="M426 1505h147v-37q0 -127 -88 -215t-215 -88t-215 88t-88 215v37h152v-39q0 -66 44 -110q45 -44 109 -45q64 0 109 45t45 110v39zM375 0h-211v1036h211v-1036z" />
    <glyph glyph-name="Iogonek" unicode="&#x12e;" horiz-adv-x="591" 
d="M186 1434h220v-1434q-106 -29 -156 -90t-51 -129q0 -88 90 -88q45 0 92 28l65 -116q-74 -63 -182 -63t-179 54q-71 56 -71 145t45 157t127 108v1428z" />
    <glyph glyph-name="iogonek" unicode="&#x12f;" horiz-adv-x="538" 
d="M164 1036h211v-1036q-101 -29 -149 -88t-48 -119q0 -100 88 -100q47 0 92 28l68 -116q-76 -63 -184 -63t-180 54q-71 56 -70 152q0 174 172 258v1030zM375 1225h-211v219h211v-219z" />
    <glyph glyph-name="Idotaccent" unicode="&#x130;" horiz-adv-x="591" 
d="M406 0h-220v1434h220v-1434zM412 1563h-232v233h232v-233z" />
    <glyph glyph-name="dotlessi" unicode="&#x131;" horiz-adv-x="538" 
d="M375 0h-211v1036h211v-1036z" />
    <glyph glyph-name="IJ" unicode="&#x132;" horiz-adv-x="1323" 
d="M406 0h-220v1434h220v-1434zM1147 1434v-1067q0 -184 -78 -288t-268 -104q-111 0 -223 50l63 178q67 -33 145 -33t111 49q31 41 31 176v1039h219z" />
    <glyph glyph-name="ij" unicode="&#x133;" horiz-adv-x="1097" 
d="M932 -86q0 -371 -318 -371q-117 0 -204 45l59 170q53 -28 128 -28t99 54t25 163v1089h211v-1122zM932 1225h-211v219h211v-219zM375 1225h-211v219h211v-219zM375 0h-211v1036h211v-1036z" />
    <glyph glyph-name="Jcircumflex" unicode="&#x134;" horiz-adv-x="700" 
d="M303 1886h227l222 -270l-125 -96l-211 223l-215 -223l-125 96zM524 1434v-1067q0 -184 -78 -288t-268 -104q-111 0 -223 50l63 178q66 -33 144 -33t112 49q31 41 31 176v1039h219z" />
    <glyph glyph-name="jcircumflex" unicode="&#x135;" horiz-adv-x="557" 
d="M180 1593h213l211 -344l-123 -80l-196 277l-195 -277l-125 80zM391 -86q0 -371 -317 -371q-117 0 -205 45l59 170q53 -28 128 -28t100 54t24 163v1089h211v-1122z" />
    <glyph glyph-name="Kcommaaccent" unicode="&#x136;" horiz-adv-x="1282" 
d="M670 -481h-170l73 364h197zM406 0h-220v1434h220v-697l573 697h268l-479 -570l504 -864h-256l-398 688l-212 -254v-434z" />
    <glyph glyph-name="kcommaaccent" unicode="&#x137;" horiz-adv-x="1073" 
d="M555 -481h-170l74 364h196zM375 1536v-995l4 -2l399 497h254l-366 -426l397 -610h-254l-283 446l-151 -176v-270h-211v1536h211z" />
    <glyph glyph-name="kgreenlandic" unicode="&#x138;" horiz-adv-x="1073" 
d="M164 1036h211v-495l4 -2l399 497h254l-366 -426l397 -610h-254l-283 446l-151 -176v-270h-211v1036z" />
    <glyph glyph-name="Lacute" unicode="&#x139;" horiz-adv-x="1030" 
d="M649 1772l-362 -261l-97 125l340 285zM1020 0h-834v1434h220v-1241h614v-193z" />
    <glyph glyph-name="lacute" unicode="&#x13a;" horiz-adv-x="538" 
d="M594 1862l-363 -260l-96 124l340 285zM375 1536v-1536h-211v1536h211z" />
    <glyph glyph-name="Lcommaaccent" unicode="&#x13b;" horiz-adv-x="1030" 
d="M625 -481h-170l73 364h197zM1020 0h-834v1434h220v-1241h614v-193z" />
    <glyph glyph-name="lcommaaccent" unicode="&#x13c;" horiz-adv-x="538" 
d="M262 -481h-170l74 364h196zM375 1536v-1536h-211v1536h211z" />
    <glyph glyph-name="Lcaron" unicode="&#x13d;" horiz-adv-x="1030" 
d="M727 1016h-176l82 418h205zM1020 0h-834v1434h220v-1241h614v-193z" />
    <glyph glyph-name="lcaron" unicode="&#x13e;" horiz-adv-x="567" 
d="M614 1118h-176l82 418h205zM375 1536v-1536h-211v1536h211z" />
    <glyph glyph-name="Ldot" unicode="&#x13f;" horiz-adv-x="1036" 
d="M950 641h-229v233h229v-233zM1020 0h-834v1434h220v-1241h614v-193z" />
    <glyph glyph-name="ldot" unicode="&#x140;" horiz-adv-x="604" 
d="M690 643h-229v234h229v-234zM375 1536v-1536h-211v1536h211z" />
    <glyph glyph-name="Lslash" unicode="&#x141;" horiz-adv-x="1030" 
d="M1020 0h-834v551l-182 -119v207l182 117v678h220v-568l301 197v-207l-301 -194v-469h614v-193z" />
    <glyph glyph-name="lslash" unicode="&#x142;" horiz-adv-x="538" 
d="M375 0h-211v635l-137 -88v203l137 88v698h211v-592l141 92v-205l-141 -90v-741z" />
    <glyph glyph-name="Nacute" unicode="&#x143;" horiz-adv-x="1542" 
d="M1108 1772l-363 -261l-96 125l340 285zM1356 0h-195l-755 1028v-1028h-220v1434h193l758 -1028v1028h219v-1434z" />
    <glyph glyph-name="nacute" unicode="&#x144;" horiz-adv-x="1247" 
d="M950 1499l-280 -334l-127 97l258 354zM164 1036h201l6 -164q57 90 146 140t190 49q197 0 291 -129t96 -393v-539h-211v520q0 193 -49 272t-170 78q-82 0 -160 -50t-129 -134v-686h-211v1036z" />
    <glyph glyph-name="Ncommaaccent" unicode="&#x145;" horiz-adv-x="1542" 
d="M752 -481h-170l73 364h197zM1356 0h-195l-755 1028v-1028h-220v1434h193l758 -1028v1028h219v-1434z" />
    <glyph glyph-name="ncommaaccent" unicode="&#x146;" horiz-adv-x="1247" 
d="M627 -481h-170l73 364h197zM164 1036h201l6 -164q57 90 146 140t190 49q197 0 291 -129t96 -393v-539h-211v520q0 193 -49 272t-170 78q-82 0 -160 -50t-129 -134v-686h-211v1036z" />
    <glyph glyph-name="Ncaron" unicode="&#x147;" horiz-adv-x="1542" 
d="M897 1542h-227l-221 270l129 97l210 -223l216 223l120 -97zM1356 0h-195l-755 1028v-1028h-220v1434h193l758 -1028v1028h219v-1434z" />
    <glyph glyph-name="ncaron" unicode="&#x148;" horiz-adv-x="1247" 
d="M756 1169h-213l-211 344l127 78l196 -276l195 276l121 -78zM164 1036h201l6 -164q57 90 146 140t190 49q197 0 291 -129t96 -393v-539h-211v520q0 193 -49 272t-170 78q-82 0 -160 -50t-129 -134v-686h-211v1036z" />
    <glyph glyph-name="napostrophe" unicode="&#x149;" horiz-adv-x="1265" 
d="M225 1036h201l6 -164q56 90 146 140t190 49q197 0 292 -129t95 -393v-539h-211v520q0 193 -49 272t-170 78q-82 0 -160 -50t-129 -134v-686h-211v1036zM158 1049h-197l102 501h228z" />
    <glyph glyph-name="Eng" unicode="&#x14a;" horiz-adv-x="1542" 
d="M1356 1434v-1500q0 -184 -78 -288t-268 -103q-111 0 -224 49l64 179q66 -33 144 -33t112 49q31 41 31 176v70l-731 995v-1028h-220v1434h193l758 -1028v1028h219z" />
    <glyph glyph-name="eng" unicode="&#x14b;" horiz-adv-x="1247" 
d="M1094 -86q0 -371 -318 -371q-117 0 -205 45l60 170q53 -28 128 -28t99 54t25 163v573q0 193 -49 272t-170 78q-82 0 -160 -50t-129 -134v-686h-211v1036h201l6 -164q57 90 146 140t190 49q197 0 291 -129t96 -393v-625z" />
    <glyph glyph-name="Omacron" unicode="&#x14c;" horiz-adv-x="1716" 
d="M1204 1583h-692v158h692v-158zM1599 717q0 -309 -214 -525t-527 -217q-313 0 -527 216q-214 215 -214 525t214 526t527 216t527 -216t214 -525zM1366 717q0 231 -144 389t-364 158t-363 -158q-145 -158 -145 -389t144 -389t364 -158q219 0 364 158q144 158 144 389z" />
    <glyph glyph-name="omacron" unicode="&#x14d;" horiz-adv-x="1228" 
d="M930 1245h-631v158h631v-158zM932 518q0 148 -90 250t-228 102t-227 -102q-90 -102 -90 -250t90 -250t227 -102t228 102q90 103 90 250zM613 1061q228 0 381 -157t153 -386t-153 -386t-381 -157t-380 157t-151 386q0 229 151 386q152 157 380 157z" />
    <glyph glyph-name="Obreve" unicode="&#x14e;" horiz-adv-x="1716" 
d="M1014 1855h147v-14q0 -127 -87 -209t-216 -82t-216 82t-87 209v14h147v-16q0 -63 46 -103t110 -40q66 0 111 40t45 103v16zM1599 717q0 -309 -214 -525t-527 -217q-313 0 -527 216q-214 215 -214 525t214 526t527 216t527 -216t214 -525zM1366 717q0 231 -144 389
t-364 158t-363 -158q-145 -158 -145 -389t144 -389t364 -158q219 0 364 158q144 158 144 389z" />
    <glyph glyph-name="obreve" unicode="&#x14f;" horiz-adv-x="1228" 
d="M770 1505h148v-37q0 -127 -88 -215t-216 -88q-127 0 -215 88t-88 215v37h152v-39q0 -66 44 -110q45 -44 109 -45q64 0 109 45t45 110v39zM932 518q0 148 -90 250t-228 102t-227 -102q-90 -102 -90 -250t90 -250t227 -102t228 102q90 103 90 250zM613 1061q228 0 381 -157
t153 -386t-153 -386t-381 -157t-380 157t-151 386q0 229 151 386q152 157 380 157z" />
    <glyph glyph-name="Ohungarumlaut" unicode="&#x150;" horiz-adv-x="1716" 
d="M1407 1763l-350 -252l-96 125l327 277zM961 1772l-363 -261l-96 121l340 285zM1599 717q0 -309 -214 -525t-527 -217q-313 0 -527 216q-214 215 -214 525t214 526t527 216t527 -216t214 -525zM1366 717q0 231 -144 389t-364 158t-363 -158q-145 -158 -145 -389t144 -389
t364 -158q219 0 364 158q144 158 144 389z" />
    <glyph glyph-name="ohungarumlaut" unicode="&#x151;" horiz-adv-x="1228" 
d="M1106 1497l-281 -334l-129 97l260 354zM770 1526l-291 -344l-127 94l266 369zM932 518q0 148 -90 250t-228 102t-227 -102q-90 -102 -90 -250t90 -250t227 -102t228 102q90 103 90 250zM613 1061q228 0 381 -157t153 -386t-153 -386t-381 -157t-380 157t-151 386
q0 229 151 386q152 157 380 157z" />
    <glyph glyph-name="OE" unicode="&#x152;" horiz-adv-x="2172" 
d="M858 170q176 0 313 111v872q-137 111 -313 111q-219 0 -363 -158q-145 -158 -145 -389t144 -389t364 -158zM2046 0h-875v66q-135 -90 -313 -91q-313 0 -527 216q-214 215 -214 525t214 526t527 216q172 0 313 -88v64h875v-193h-655v-405h655v-193h-655v-450h655v-193z
" />
    <glyph glyph-name="oe" unicode="&#x153;" horiz-adv-x="2000" 
d="M1438 885q-110 0 -187 -72q-76 -72 -104 -186h553q-6 109 -79 183t-183 75zM932 518q0 148 -90 250t-228 102t-227 -102q-90 -102 -90 -250t90 -250t227 -102t228 102q90 103 90 250zM614 1061q272 0 418 -219q145 219 406 219q209 0 345 -137t136 -344q0 -63 -10 -115
h-774q10 -133 95 -222t218 -89q209 0 301 163l147 -96q-80 -127 -190 -186t-268 -60q-281 0 -412 211q-68 -98 -174 -154t-238 -57q-229 0 -381 157t-151 386q0 229 151 386q152 157 381 157z" />
    <glyph glyph-name="Racute" unicode="&#x154;" horiz-adv-x="1265" 
d="M924 1772l-363 -261l-96 125l340 285zM406 1241v-450h163q143 0 229 54q85 53 85 161t-76 172t-199 63h-202zM186 1434h432q275 0 418 -178q80 -98 80 -252t-97 -254t-243 -136l451 -614h-275l-422 598h-124v-598h-220v1434z" />
    <glyph glyph-name="racute" unicode="&#x155;" horiz-adv-x="739" 
d="M725 1499l-281 -334l-127 97l258 354zM375 0h-211v1036h201l6 -162q106 186 262 187q63 0 119 -14l-43 -213q-43 23 -99 22q-143 0 -235 -160v-696z" />
    <glyph glyph-name="Rcommaaccent" unicode="&#x156;" horiz-adv-x="1265" 
d="M657 -481h-170l74 364h197zM406 1241v-450h163q143 0 229 54q85 53 85 161t-76 172t-199 63h-202zM186 1434h432q275 0 418 -178q80 -98 80 -252t-97 -254t-243 -136l451 -614h-275l-422 598h-124v-598h-220v1434z" />
    <glyph glyph-name="rcommaaccent" unicode="&#x157;" horiz-adv-x="739" 
d="M262 -481h-170l74 364h196zM375 0h-211v1036h201l6 -162q106 186 262 187q63 0 119 -14l-43 -213q-43 23 -99 22q-143 0 -235 -160v-696z" />
    <glyph glyph-name="Rcaron" unicode="&#x158;" horiz-adv-x="1265" 
d="M743 1542h-227l-221 270l129 97l211 -223l215 223l121 -97zM406 1241v-450h163q143 0 229 54q85 53 85 161t-76 172t-199 63h-202zM186 1434h432q275 0 418 -178q80 -98 80 -252t-97 -254t-243 -136l451 -614h-275l-422 598h-124v-598h-220v1434z" />
    <glyph glyph-name="rcaron" unicode="&#x159;" horiz-adv-x="739" 
d="M555 1169h-213l-211 344l127 78l197 -276l194 276l121 -78zM375 0h-211v1036h201l6 -162q106 186 262 187q63 0 119 -14l-43 -213q-43 23 -99 22q-143 0 -235 -160v-696z" />
    <glyph glyph-name="Sacute" unicode="&#x15a;" horiz-adv-x="1253" 
d="M977 1772l-363 -261l-96 125l340 285zM643 1264q-106 0 -173 -50t-67 -140q0 -91 121 -147q49 -23 144 -57q94 -33 142 -52t116 -58t106 -81t66 -110t28 -165t-47 -186q-81 -154 -289 -217q-87 -26 -176 -26q-303 0 -526 222l154 145q96 -96 180 -134t196 -38t194 58
q81 58 81 173q0 143 -214 225q-33 12 -107 38q-280 97 -355 246q-33 67 -33 151q0 193 126 295t313 102q254 0 452 -153l-133 -158q-129 117 -299 117z" />
    <glyph glyph-name="sacute" unicode="&#x15b;" horiz-adv-x="937" 
d="M813 1499l-281 -334l-126 97l258 354zM479 889q-63 0 -102 -34t-39 -79t32 -76t62 -45q30 -13 89 -37q58 -24 92 -39q218 -96 218 -268q1 -172 -109 -254t-271 -82q-236 0 -373 166l139 121q109 -113 232 -112q75 0 123 36t48 90q1 84 -96 131q-34 15 -102 43t-104 45
t-87 54q-96 70 -96 210q1 141 101 221t243 81q197 0 328 -119l-123 -133q-88 80 -205 80z" />
    <glyph glyph-name="Scircumflex" unicode="&#x15c;" horiz-adv-x="1253" 
d="M532 1886h228l221 -270l-125 -96l-211 223l-215 -223l-125 96zM643 1264q-106 0 -173 -50t-67 -140q0 -91 121 -147q49 -23 144 -57q94 -33 142 -52t116 -58t106 -81t66 -110t28 -165t-47 -186q-81 -154 -289 -217q-87 -26 -176 -26q-303 0 -526 222l154 145
q96 -96 180 -134t196 -38t194 58q81 58 81 173q0 143 -214 225q-33 12 -107 38q-280 97 -355 246q-33 67 -33 151q0 193 126 295t313 102q254 0 452 -153l-133 -158q-129 117 -299 117z" />
    <glyph glyph-name="scircumflex" unicode="&#x15d;" horiz-adv-x="937" 
d="M383 1593h213l211 -344l-123 -80l-197 277l-194 -277l-125 80zM479 889q-63 0 -102 -34t-39 -79t32 -76t62 -45q30 -13 89 -37q58 -24 92 -39q218 -96 218 -268q1 -172 -109 -254t-271 -82q-236 0 -373 166l139 121q109 -113 232 -112q75 0 123 36t48 90q1 84 -96 131
q-34 15 -102 43t-104 45t-87 54q-96 70 -96 210q1 141 101 221t243 81q197 0 328 -119l-123 -133q-88 80 -205 80z" />
    <glyph glyph-name="Scedilla" unicode="&#x15e;" horiz-adv-x="1247" 
d="M643 1264q-106 0 -173 -50t-67 -140q0 -91 121 -147q49 -23 144 -57q94 -33 142 -52t116 -58t106 -81t66 -110q29 -68 28 -147q0 -145 -78 -250q-141 -186 -411 -197l-45 -106l4 -2q36 33 106 33t121 -56t51 -140t-66 -148t-161 -64q-143 0 -217 127l123 59
q25 -66 92 -65q37 0 61 26q24 25 24 61t-24 64q-22 28 -68 29q-46 0 -75 -47l-133 70l78 166q-231 29 -420 215l154 145q96 -96 180 -134t196 -38t194 58q81 58 81 173q0 143 -214 225q-33 12 -107 38q-280 97 -355 246q-33 67 -33 151q0 193 126 295t313 102
q254 0 452 -153l-133 -158q-129 117 -299 117z" />
    <glyph glyph-name="scedilla" unicode="&#x15f;" horiz-adv-x="937" 
d="M479 889q-63 0 -102 -34t-39 -79t32 -76t62 -45q30 -13 89 -37q58 -24 92 -39q218 -96 218 -276q0 -155 -100 -237t-252 -89l-39 -108l2 -2q45 33 107 33t117 -56t55 -140t-67 -148t-160 -64q-145 0 -218 127l123 59q25 -66 93 -65q36 0 60 26q24 27 24 63t-25 64t-72 28
t-69 -48l-131 68l69 172q-168 29 -270 155l139 121q109 -113 232 -112q75 0 123 36t48 90q1 84 -96 131q-34 15 -102 43t-104 45t-87 54q-96 70 -96 210q1 141 101 221t243 81q197 0 328 -119l-123 -133q-88 80 -205 80z" />
    <glyph glyph-name="Scaron" unicode="&#x160;" horiz-adv-x="1253" 
d="M754 1542h-228l-221 270l129 97l211 -223l215 223l121 -97zM643 1264q-106 0 -173 -50t-67 -140q0 -91 121 -147q49 -23 144 -57q94 -33 142 -52t116 -58t106 -81t66 -110t28 -165t-47 -186q-81 -154 -289 -217q-87 -26 -176 -26q-303 0 -526 222l154 145
q96 -96 180 -134t196 -38t194 58q81 58 81 173q0 143 -214 225q-33 12 -107 38q-280 97 -355 246q-33 67 -33 151q0 193 126 295t313 102q254 0 452 -153l-133 -158q-129 117 -299 117z" />
    <glyph glyph-name="scaron" unicode="&#x161;" horiz-adv-x="937" 
d="M598 1169h-213l-211 344l127 78l197 -276l194 276l121 -78zM479 889q-63 0 -102 -34t-39 -79t32 -76t62 -45q30 -13 89 -37q58 -24 92 -39q218 -96 218 -268q1 -172 -109 -254t-271 -82q-236 0 -373 166l139 121q109 -113 232 -112q75 0 123 36t48 90q1 84 -96 131
q-34 15 -102 43t-104 45t-87 54q-96 70 -96 210q1 141 101 221t243 81q197 0 328 -119l-123 -133q-88 80 -205 80z" />
    <glyph glyph-name="uni0162" unicode="&#x162;" horiz-adv-x="1001" 
d="M967 1241h-357v-1241h-43l-47 -131l2 -2q44 33 106 33t117 -56t55 -140t-65 -148q-66 -64 -160 -64q-145 0 -217 127l121 59q25 -66 92 -65q37 0 62 26q25 27 25 63t-26 64t-72 28t-71 -48l-131 68l78 186h-45v1241h-356v193h932v-193z" />
    <glyph glyph-name="uni0163" unicode="&#x163;" horiz-adv-x="724" 
d="M176 360v494h-135v182h135l10 244h201v-244h285v-182h-285v-451q0 -51 3 -105t34 -93t93 -39t120 29l61 -166q-88 -49 -206 -49h-21l-41 -111l2 -2q44 33 106 33t117 -56t55 -140t-65 -148q-66 -64 -160 -64q-145 0 -217 127l121 59q25 -66 92 -65q37 0 62 26
q25 27 25 63t-26 64t-72 28t-71 -48l-131 68l80 192q-172 73 -172 354z" />
    <glyph glyph-name="Tcaron" unicode="&#x164;" horiz-adv-x="1001" 
d="M610 1542h-227l-221 270l129 97l211 -223l215 223l121 -97zM967 1241h-357v-1241h-219v1241h-356v193h932v-193z" />
    <glyph glyph-name="tcaron" unicode="&#x165;" horiz-adv-x="724" 
d="M680 1169h-176l82 418h205zM492 -20q-316 0 -316 380v494h-135v182h135l10 244h201v-244h285v-182h-285v-451q0 -51 3 -105t34 -93t93 -39t120 29l61 -166q-88 -49 -206 -49z" />
    <glyph glyph-name="Tbar" unicode="&#x166;" horiz-adv-x="1001" 
d="M967 1241h-357v-414h224v-178h-224v-649h-219v649h-223v178h223v414h-356v193h932v-193z" />
    <glyph glyph-name="tbar" unicode="&#x167;" horiz-adv-x="724" 
d="M492 -20q-316 0 -316 380v105h-135v166h135v223h-135v182h135l10 244h201v-244h285v-182h-285v-223h285v-166h-285v-62q0 -51 3 -105t34 -93t93 -39t120 29l61 -166q-88 -49 -206 -49z" />
    <glyph glyph-name="Utilde" unicode="&#x168;" horiz-adv-x="1476" 
d="M1096 1743q0 -91 -58 -145t-143 -54q-84 0 -178 62t-131 63q-59 0 -64 -57q0 -14 2 -21l-141 -14q-6 25 -6 61q0 90 58 144q59 54 143 55q84 0 179 -62q95 -63 126 -63t49 15t18 36t-2 27l142 14q6 -25 6 -61zM1298 1434v-760q0 -346 -136 -522t-426 -176t-424 176
t-134 522v760h219v-807q0 -225 90 -341t252 -116t251 116t89 341v807h219z" />
    <glyph glyph-name="utilde" unicode="&#x169;" horiz-adv-x="1247" 
d="M281 1278q0 90 59 144q58 54 144 54t181 -62t128 -62q59 0 63 59q0 12 -2 19l141 14q8 -29 9 -53q0 -91 -60 -145t-144 -54q-85 0 -180 62t-128 63q-59 0 -64 -60q0 -12 2 -18l-141 -14q-8 29 -8 53zM1083 0h-200l-6 164q-57 -90 -147 -139t-189 -50q-197 0 -292 129
t-95 394v538h211v-520q0 -194 49 -272t170 -78q82 0 160 50t128 134v686h211v-1036z" />
    <glyph glyph-name="Umacron" unicode="&#x16a;" horiz-adv-x="1476" 
d="M1083 1583h-692v158h692v-158zM1298 1434v-760q0 -346 -136 -522t-426 -176t-424 176t-134 522v760h219v-807q0 -225 90 -341t252 -116t251 116t89 341v807h219z" />
    <glyph glyph-name="umacron" unicode="&#x16b;" horiz-adv-x="1247" 
d="M934 1245h-631v158h631v-158zM1083 0h-200l-6 164q-57 -90 -147 -139t-189 -50q-197 0 -292 129t-95 394v538h211v-520q0 -194 49 -272t170 -78q82 0 160 50t128 134v686h211v-1036z" />
    <glyph glyph-name="Ubreve" unicode="&#x16c;" horiz-adv-x="1476" 
d="M895 1855h147v-14q0 -127 -87 -209t-216 -82t-216 82t-87 209v14h148v-16q0 -63 45 -103t111 -40t110 40q45 40 45 103v16zM1298 1434v-760q0 -346 -136 -522t-426 -176t-424 176t-134 522v760h219v-807q0 -225 90 -341t252 -116t251 116t89 341v807h219z" />
    <glyph glyph-name="ubreve" unicode="&#x16d;" horiz-adv-x="1247" 
d="M782 1505h148v-37q0 -127 -88 -215t-215 -88t-215 88t-88 215v37h151v-39q0 -66 44 -110t109 -45q66 0 110 45t44 110v39zM1083 0h-200l-6 164q-57 -90 -147 -139t-189 -50q-197 0 -292 129t-95 394v538h211v-520q0 -194 49 -272t170 -78q82 0 160 50t128 134v686h211
v-1036z" />
    <glyph glyph-name="Uring" unicode="&#x16e;" horiz-adv-x="1476" 
d="M647 1683q0 -37 27 -63q28 -26 64 -27q36 0 63 27q27 28 27 64t-27 63t-64 27t-63 -27t-27 -64zM537 1683q0 81 59 141t141 60q81 0 141 -59t60 -141t-59 -142q-59 -59 -141 -59t-142 59q-59 59 -59 141zM1298 1434v-760q0 -346 -136 -522t-426 -176t-424 176t-134 522
v760h219v-807q0 -225 90 -341t252 -116t251 116t89 341v807h219z" />
    <glyph glyph-name="uring" unicode="&#x16f;" horiz-adv-x="1247" 
d="M535 1354q1 -37 27 -64q26 -26 63 -26t63 26t27 64q0 38 -27 64q-28 26 -64 26t-62 -26t-27 -64zM424 1354q0 84 58 142t142 58t143 -58q58 -58 58 -142t-58 -142t-142 -59q-84 0 -143 58q-58 59 -58 143zM1083 0h-200l-6 164q-57 -90 -147 -139t-189 -50
q-197 0 -292 129t-95 394v538h211v-520q0 -194 49 -272t170 -78q82 0 160 50t128 134v686h211v-1036z" />
    <glyph glyph-name="Uhungarumlaut" unicode="&#x170;" horiz-adv-x="1476" 
d="M1280 1763l-350 -252l-96 125l327 277zM834 1772l-363 -261l-96 121l340 285zM1298 1434v-760q0 -346 -136 -522t-426 -176t-424 176t-134 522v760h219v-807q0 -225 90 -341t252 -116t251 116t89 341v807h219z" />
    <glyph glyph-name="uhungarumlaut" unicode="&#x171;" horiz-adv-x="1247" 
d="M1085 1497l-280 -334l-129 97l260 354zM750 1526l-291 -344l-127 94l266 369zM1083 0h-200l-6 164q-57 -90 -147 -139t-189 -50q-197 0 -292 129t-95 394v538h211v-520q0 -194 49 -272t170 -78q82 0 160 50t128 134v686h211v-1036z" />
    <glyph glyph-name="Uogonek" unicode="&#x172;" horiz-adv-x="1476" 
d="M1298 1434v-760q0 -565 -362 -672q-78 -23 -139 -82t-62 -133q0 -94 90 -94q45 0 90 28l68 -116q-73 -63 -183 -63t-180 54q-70 56 -69 152q0 147 127 229q-500 33 -500 697v760h219v-807q0 -225 90 -341t252 -116t251 116t89 341v807h219z" />
    <glyph glyph-name="uogonek" unicode="&#x173;" horiz-adv-x="1247" 
d="M680 -252q0 164 203 256l-6 160q-57 -90 -147 -139t-189 -50q-197 0 -292 129t-95 394v538h211v-520q0 -194 49 -272t170 -78q82 0 160 50t128 134v686h211v-1036q-219 -72 -219 -219q0 -88 90 -88q47 0 93 28l65 -116q-74 -63 -182 -63t-179 54q-71 56 -71 152z" />
    <glyph glyph-name="Wcircumflex" unicode="&#x174;" horiz-adv-x="1843" 
d="M813 1886h227l222 -270l-125 -96l-211 223l-215 -223l-125 96zM1028 1434l277 -1043h4l286 1043h238l-410 -1434h-219l-280 1055h-4l-302 -1055h-212l-396 1434h244l274 -1043h4l289 1043h207z" />
    <glyph glyph-name="wcircumflex" unicode="&#x175;" horiz-adv-x="1525" 
d="M662 1593h212l211 -344l-122 -80l-197 277l-195 -277l-125 80zM874 1036l201 -764h6l199 764h217l-301 -1036h-223l-209 754h-4l-213 -754h-232l-286 1036h227l184 -764h4l218 764h212z" />
    <glyph glyph-name="Ycircumflex" unicode="&#x176;" horiz-adv-x="1163" 
d="M471 1886h227l222 -270l-125 -96l-211 223l-215 -223l-125 96zM686 0h-219v618l-457 816h273l303 -582h4l307 582h256l-467 -826v-608z" />
    <glyph glyph-name="ycircumflex" unicode="&#x177;" horiz-adv-x="1003" 
d="M412 1593h213l211 -344l-123 -80l-197 277l-194 -277l-125 80zM10 1036h234l254 -745h4l262 745h229l-583 -1505l-187 74l164 434z" />
    <glyph glyph-name="Ydieresis" unicode="&#x178;" horiz-adv-x="1163" 
d="M956 1563h-229v233h229v-233zM467 1563h-229v233h229v-233zM686 0h-221v618l-455 816h273l303 -582h4l307 582h256l-467 -826v-608z" />
    <glyph glyph-name="Zacute" unicode="&#x179;" horiz-adv-x="1128" 
d="M868 1772l-362 -261l-96 125l340 285zM1090 193v-193h-1012v117l659 1124h-643v193h944v-117l-657 -1124h709z" />
    <glyph glyph-name="zacute" unicode="&#x17a;" horiz-adv-x="944" 
d="M772 1499l-280 -334l-127 97l258 354zM94 854v182h746v-94l-445 -760h479v-182h-757v96l442 758h-465z" />
    <glyph glyph-name="Zdotaccent" unicode="&#x17b;" horiz-adv-x="1128" 
d="M666 1563h-230v233h230v-233zM1090 193v-193h-1012v117l659 1124h-643v193h944v-117l-657 -1124h709z" />
    <glyph glyph-name="zdotaccent" unicode="&#x17c;" horiz-adv-x="944" 
d="M565 1225h-211v219h211v-219zM94 854v182h746v-94l-445 -760h479v-182h-757v96l442 758h-465z" />
    <glyph glyph-name="Zcaron" unicode="&#x17d;" horiz-adv-x="1128" 
d="M674 1542h-228l-221 270l129 97l211 -223l215 223l121 -97zM1090 193v-193h-1012v117l659 1124h-643v193h944v-117l-657 -1124h709z" />
    <glyph glyph-name="zcaron" unicode="&#x17e;" horiz-adv-x="944" 
d="M598 1169h-213l-211 344l127 78l197 -276l194 276l121 -78zM94 854v182h746v-94l-445 -760h479v-182h-757v96l442 758h-465z" />
    <glyph glyph-name="longs" unicode="&#x17f;" horiz-adv-x="634" 
d="M528 1370q-74 0 -116 -38t-43 -181v-1151h-211v1169q0 176 67 273q84 119 281 119q108 -1 217 -50l-61 -172q-60 31 -134 31z" />
    <glyph glyph-name="florin" unicode="&#x192;" 
d="M821 827v-188h-266l-82 -725q-18 -164 -101 -253t-212 -89q-78 0 -172 25l45 180q49 -17 109 -17t86 45t38 150l78 684h-162v188h183l24 215q19 164 109 253t229 89t279 -67l-80 -172q-78 51 -166 51t-120 -46t-44 -146l-21 -177h246z" />
    <glyph glyph-name="Aringacute" unicode="&#x1fa;" horiz-adv-x="1355" 
d="M672 1100l-223 -613h446l-221 613h-2zM1071 0l-106 295h-588l-107 -295h-241l563 1434h186l547 -1434h-254zM598 1663q0 -37 27 -64t63 -27t64 28q27 26 26 63q0 37 -26 63t-64 27q-38 -1 -64 -27t-26 -63zM487 1663q-1 82 59 141q60 60 142 60t141 -60t59 -141
q0 -82 -58 -141q-60 -60 -142 -60t-142 60t-59 141zM997 2118l-374 -224l-80 123l360 250z" />
    <glyph glyph-name="aringacute" unicode="&#x1fb;" horiz-adv-x="1132" 
d="M599 485q-77 0 -134 -13t-105 -55t-47 -118t55 -116t138 -40q125 0 262 115v209q-92 18 -169 18zM979 0h-195l-6 104q-113 -129 -303 -129q-156 0 -262 81t-107 239q0 257 291 325q78 17 167 17t204 -23v31q0 240 -236 240q-158 0 -325 -92l-60 170q209 98 418 98
q414 0 414 -432v-629zM866 1778l-374 -224l-80 123l360 250zM467 1323q0 -37 27 -63q28 -26 64 -27q36 0 63 27q27 28 27 64t-28 62q-26 26 -63 27q-37 -1 -63 -27t-27 -63zM356 1323q0 82 60 141q60 60 141 60q82 0 141 -60q60 -60 60 -141q0 -82 -60 -141
q-60 -60 -141 -60t-141 60t-60 141z" />
    <glyph glyph-name="AEacute" unicode="&#x1fc;" horiz-adv-x="2031" 
d="M1513 1772l-362 -261l-96 125l340 285zM1028 487v621l-434 -621h434zM1903 0h-875v297h-565l-207 -297h-276l1050 1434h873v-193h-654v-405h654v-193h-654v-450h654v-193z" />
    <glyph glyph-name="aeacute" unicode="&#x1fd;" horiz-adv-x="1839" 
d="M1227 1499l-281 -334l-127 97l258 354zM1276 885q-110 0 -186 -72t-105 -186h553q-6 109 -79 183t-183 75zM475 -25q-156 0 -262 81t-107 239q0 257 291 325q78 17 167 17t204 -23v31q0 240 -236 240q-158 0 -325 -92l-60 170q209 98 418 98q254 0 348 -164
q143 164 357 164t351 -137q136 -137 136 -344q0 -63 -10 -115h-774q12 -131 96 -221t219 -90q207 -1 299 163l150 -96q-82 -127 -192 -186t-267 -60q-256 0 -397 172q-156 -172 -406 -172zM599 485q-77 0 -134 -13t-105 -55t-47 -118t55 -116t138 -40q162 1 293 148
q-29 78 -39 176q-84 18 -161 18z" />
    <glyph glyph-name="Oslashacute" unicode="&#x1fe;" horiz-adv-x="1716" 
d="M1188 1772l-363 -261l-96 125l340 285zM350 719q0 -229 135 -381l592 874q-102 51 -219 52q-220 0 -364 -158t-144 -387zM1366 718q0 232 -145 390l-596 -881q104 -57 233 -57q219 0 364 158q144 158 144 390zM858 -25q-184 0 -346 84l-68 -100l-151 94l72 107
q-117 102 -183 246t-65 311q0 309 214 525t527 216q176 0 332 -78l59 88l150 -96l-60 -88q123 -104 192 -252t68 -315q0 -309 -214 -525t-527 -217z" />
    <glyph glyph-name="oslashacute" unicode="&#x1ff;" horiz-adv-x="1228" 
d="M297 526q0 -139 70 -233l372 549q-53 29 -125 28q-137 0 -227 -102t-90 -242zM932 514q0 143 -80 240l-375 -555q59 -33 137 -33q137 0 228 102q90 103 90 246zM614 1061q131 0 236 -55l51 75l121 -77l-53 -76q178 -162 178 -400t-153 -396q-153 -157 -380 -157
q-133 0 -247 60l-56 -82l-121 78l60 86q-168 158 -168 394t151 393q152 157 381 157zM924 1499l-281 -334l-127 97l258 354z" />
    <glyph glyph-name="Scommaaccent" unicode="&#x218;" horiz-adv-x="1247" 
d="M547 -481h-170l74 364h196zM643 1264q-106 0 -173 -50t-67 -140q0 -91 121 -147q49 -23 144 -57q94 -33 142 -52t116 -58t106 -81t66 -110t28 -165t-47 -186q-81 -154 -289 -217q-87 -26 -176 -26q-303 0 -526 222l154 145q96 -96 180 -134t196 -38t194 58q81 58 81 173
q0 143 -214 225q-33 12 -107 38q-280 97 -355 246q-33 67 -33 151q0 193 126 295t313 102q254 0 452 -153l-133 -158q-129 117 -299 117z" />
    <glyph glyph-name="scommaaccent" unicode="&#x219;" horiz-adv-x="937" 
d="M416 -481h-170l73 364h197zM479 889q-63 0 -102 -34t-39 -79t32 -76t62 -45q30 -13 89 -37q58 -24 92 -39q218 -96 218 -268q1 -172 -109 -254t-271 -82q-236 0 -373 166l139 121q109 -113 232 -112q75 0 123 36t48 90q1 84 -96 131q-34 15 -102 43t-104 45t-87 54
q-96 70 -96 210q1 141 101 221t243 81q197 0 328 -119l-123 -133q-88 80 -205 80z" />
    <glyph glyph-name="uni021A" unicode="&#x21a;" horiz-adv-x="1001" 
d="M489 -481h-170l74 364h197zM967 1241h-357v-1241h-219v1241h-356v193h932v-193z" />
    <glyph glyph-name="uni021B" unicode="&#x21b;" horiz-adv-x="724" 
d="M375 -481h-170l74 364h196zM492 -20q-316 0 -316 380v494h-135v182h135l10 244h201v-244h285v-182h-285v-451q0 -51 3 -105t34 -93t93 -39t120 29l61 -166q-88 -49 -206 -49z" />
    <glyph glyph-name="dotlessj" unicode="&#x237;" horiz-adv-x="557" 
d="M391 -86q0 -371 -317 -371q-117 0 -205 45l59 170q53 -28 128 -28t100 54t24 163v1089h211v-1122z" />
    <glyph glyph-name="apostrophe" unicode="&#x2bc;" horiz-adv-x="737" 
d="M309 1479h226l-123 -451h-185z" />
    <glyph glyph-name="circumflex" unicode="&#x2c6;" horiz-adv-x="737" 
d="M262 1593h213l211 -344l-123 -80l-196 277l-195 -277l-125 80z" />
    <glyph glyph-name="caron" unicode="&#x2c7;" horiz-adv-x="737" 
d="M471 1169h-213l-211 344l127 78l197 -276l194 276l121 -78z" />
    <glyph glyph-name="uni02C9" unicode="&#x2c9;" horiz-adv-x="737" 
d="M684 1245h-631v158h631v-158z" />
    <glyph glyph-name="breve" unicode="&#x2d8;" horiz-adv-x="737" 
d="M524 1505h148v-37q0 -127 -88 -215t-215 -88t-215 88t-88 215v37h151v-39q0 -66 44 -110t109 -45q66 0 110 45t44 110v39z" />
    <glyph glyph-name="dotaccent" unicode="&#x2d9;" horiz-adv-x="737" 
d="M475 1225h-211v219h211v-219z" />
    <glyph glyph-name="ring" unicode="&#x2da;" horiz-adv-x="737" 
d="M279 1389q1 -37 27 -64t63 -27t63 27t27 64q0 37 -27 63q-28 26 -64 27q-36 -1 -62 -27t-27 -63zM168 1389q0 82 59 141t141 59t142 -59q59 -59 59 -141q0 -81 -59 -141t-141 -60t-142 59q-59 60 -59 142z" />
    <glyph glyph-name="ogonek" unicode="&#x2db;" horiz-adv-x="737" 
d="M504 23v-23q-104 -29 -162 -91t-59 -128q0 -88 90 -88q47 0 92 28l65 -116q-74 -63 -182 -63t-179 54q-71 56 -71 152q1 189 234 275h172z" />
    <glyph glyph-name="tilde" unicode="&#x2dc;" horiz-adv-x="737" 
d="M8 1278q0 90 60 144t144 54q85 0 180 -62t128 -62q59 0 64 59q0 12 -2 19l141 14q8 -29 8 -53q0 -91 -59 -145q-58 -54 -144 -54t-181 62t-128 63q-59 0 -63 -60q0 -12 2 -18l-142 -14q-8 29 -8 53z" />
    <glyph glyph-name="hungarumlaut" unicode="&#x2dd;" horiz-adv-x="737" 
d="M817 1497l-280 -334l-129 97l260 354zM481 1526l-291 -344l-127 94l267 369z" />
    <glyph glyph-name="uni0394" unicode="&#x394;" 
d="M811 184l-252 695h-4l-256 -695h512zM1116 0h-1108l455 1171h205z" />
    <glyph glyph-name="uni03A9" unicode="&#x3a9;" horiz-adv-x="1626" 
d="M39 188h371q-154 109 -232 262t-78 318q0 286 197 488t516 202t516 -202t197 -488q0 -166 -78 -318t-231 -262h370v-188h-661v207q172 61 269 217t97 352t-124 341t-355 145t-355 -144t-124 -342q0 -196 97 -352t269 -217v-207h-661v188z" />
    <glyph glyph-name="uni03BC" unicode="&#x3bc;" 
d="M1028 0h-201l-6 164q-57 -90 -146 -139t-189 -49t-175 36v-524h-213v1548h211v-520q0 -194 49 -272t170 -78q82 0 160 50t129 134v686h211v-1036z" />
    <glyph glyph-name="pi" unicode="&#x3c0;" 
d="M705 346v508h-318v-721q0 -66 -12 -133h-215q16 61 16 150v704h-121v182h1051v-182h-191v-489q0 -47 3 -68q6 -133 100 -152l-86 -180q-227 58 -227 381z" />
    <glyph glyph-name="Wgrave" unicode="&#x1e80;" horiz-adv-x="1843" 
d="M967 1511l-363 261l119 149l340 -285zM1028 1434l277 -1043h4l286 1043h238l-410 -1434h-219l-280 1055h-4l-302 -1055h-212l-396 1434h244l274 -1043h4l289 1043h207z" />
    <glyph glyph-name="wgrave" unicode="&#x1e81;" horiz-adv-x="1525" 
d="M745 1165l-280 334l149 117l258 -354zM874 1036l201 -764h6l199 764h217l-301 -1036h-223l-209 754h-4l-213 -754h-232l-286 1036h227l184 -764h4l218 764h212z" />
    <glyph glyph-name="Wacute" unicode="&#x1e82;" horiz-adv-x="1843" 
d="M1255 1772l-362 -261l-96 125l340 285zM1028 1434l277 -1043h4l286 1043h238l-410 -1434h-219l-280 1055h-4l-302 -1055h-212l-396 1434h244l274 -1043h4l289 1043h207z" />
    <glyph glyph-name="wacute" unicode="&#x1e83;" horiz-adv-x="1525" 
d="M1067 1499l-281 -334l-127 97l259 354zM874 1036l201 -764h6l199 764h217l-301 -1036h-223l-209 754h-4l-213 -754h-232l-286 1036h227l184 -764h4l218 764h212z" />
    <glyph glyph-name="Wdieresis" unicode="&#x1e84;" horiz-adv-x="1843" 
d="M1319 1563h-232v233h232v-233zM764 1563h-232v233h232v-233zM1028 1434l277 -1043h4l286 1043h238l-410 -1434h-219l-280 1055h-4l-302 -1055h-212l-396 1434h244l274 -1043h4l289 1043h207z" />
    <glyph glyph-name="wdieresis" unicode="&#x1e85;" horiz-adv-x="1525" 
d="M1094 1225h-215v219h215v-219zM657 1225h-215v219h215v-219zM874 1036l201 -764h6l199 764h217l-301 -1036h-223l-209 754h-4l-213 -754h-232l-286 1036h227l184 -764h4l218 764h212z" />
    <glyph glyph-name="Ygrave" unicode="&#x1ef2;" horiz-adv-x="1163" 
d="M678 1511l-363 261l119 149l340 -285zM686 0h-219v618l-457 816h273l303 -582h4l307 582h256l-467 -826v-608z" />
    <glyph glyph-name="ygrave" unicode="&#x1ef3;" horiz-adv-x="1003" 
d="M545 1165l-281 334l150 117l258 -354zM10 1036h234l254 -745h4l262 745h229l-583 -1505l-187 74l164 434z" />
    <glyph glyph-name="thinspace" unicode="&#x2009;" horiz-adv-x="256" 
 />
    <glyph glyph-name="endash" unicode="&#x2013;" horiz-adv-x="1228" 
d="M1126 543h-1024v188h1024v-188z" />
    <glyph glyph-name="emdash" unicode="&#x2014;" horiz-adv-x="1843" 
d="M1741 543h-1639v188h1639v-188z" />
    <glyph glyph-name="quoteleft" unicode="&#x2018;" horiz-adv-x="575" 
d="M457 1434l-107 -525h-233l139 525h201z" />
    <glyph glyph-name="quoteright" unicode="&#x2019;" horiz-adv-x="575" 
d="M117 909l106 525h234l-140 -525h-200z" />
    <glyph glyph-name="quotesinglbase" unicode="&#x201a;" horiz-adv-x="575" 
d="M117 -270l106 524h234l-140 -524h-200z" />
    <glyph glyph-name="quotedblleft" unicode="&#x201c;" horiz-adv-x="1089" 
d="M932 1434l-107 -525h-233l139 525h201zM498 1434l-107 -525h-233l139 525h201z" />
    <glyph glyph-name="quotedblright" unicode="&#x201d;" horiz-adv-x="1089" 
d="M592 909l106 525h234l-139 -525h-201zM158 909l106 525h234l-140 -525h-200z" />
    <glyph glyph-name="quotedblbase" unicode="&#x201e;" horiz-adv-x="1089" 
d="M592 -270l106 524h234l-139 -524h-201zM158 -270l106 524h234l-140 -524h-200z" />
    <glyph glyph-name="dagger" unicode="&#x2020;" horiz-adv-x="849" 
d="M344 283v329l6 332l-137 -6h-76v154h76l137 -7l-6 250v99h162v-99l-6 -250l137 7h76v-154h-76l-137 6l6 -332v-329h-162z" />
    <glyph glyph-name="daggerdbl" unicode="&#x2021;" horiz-adv-x="849" 
d="M713 870v-153l-213 4l6 -146v-292h-162v292l6 146l-213 -4v153h76l137 -6l-2 45v95l2 81l-213 -4v152l213 -6l-6 207h162l-6 -207l213 6v-152l-213 4l2 -81v-95l-2 -45l137 6h76z" />
    <glyph glyph-name="bullet" unicode="&#x2022;" horiz-adv-x="671" 
d="M72 592q0 108 78 186t186 78t186 -78t78 -186t-78 -186t-186 -78t-186 78t-78 186z" />
    <glyph glyph-name="ellipsis" unicode="&#x2026;" horiz-adv-x="1536" 
d="M1399 0h-240v254h240v-254zM379 0h-240v254h240v-254zM887 0h-240v254h240v-254z" />
    <glyph glyph-name="perthousand" unicode="&#x2030;" horiz-adv-x="2537" 
d="M2089 492q-72 0 -118 -48t-46 -125q0 -75 46 -123t118 -48t118 48t46 124t-46 124t-118 48zM2089 651q139 0 237 -96q98 -95 99 -235q0 -140 -98 -236q-97 -96 -237 -96t-239 96q-98 96 -98 235t98 236q99 96 238 96zM1294 492q-72 0 -118 -48t-46 -125q0 -75 46 -123
t118 -48t118 48t46 124t-46 124t-118 48zM1294 651q140 0 238 -96q98 -95 98 -235t-98 -236t-238 -96t-237 96q-98 96 -99 235q0 139 98 235t238 97zM1325 1460l119 -88l-1018 -1399l-121 88zM449 1286q-72 0 -118 -48t-46 -124t46 -124t118 -48q71 0 117 48t46 124t-46 124
t-117 48zM449 1446q139 0 237 -96t98 -236t-98 -235q-98 -97 -237 -97t-237 96t-99 236q0 139 98 236q99 96 238 96z" />
    <glyph glyph-name="guilsinglleft" unicode="&#x2039;" horiz-adv-x="647" 
d="M117 678l305 315l106 -188l-260 -250l260 -248l-106 -188l-305 317v242z" />
    <glyph glyph-name="guilsinglright" unicode="&#x203a;" horiz-adv-x="647" 
d="M223 991l305 -315v-242l-305 -317l-106 190l260 246l-260 250z" />
    <glyph glyph-name="fraction" unicode="&#x2044;" horiz-adv-x="278" 
d="M588 1460l121 -88l-1018 -1399l-121 88z" />
    <glyph glyph-name="zerosuperior" unicode="&#x2070;" horiz-adv-x="700" 
d="M350 1587q145 -1 225 -113t80 -311t-80 -311t-225 -113q-145 0 -225 113q-80 114 -80 312t80 310t225 113zM350 877q137 1 137 287t-137 286t-137 -286t137 -287z" />
    <glyph glyph-name="foursuperior" unicode="&#x2074;" horiz-adv-x="692" 
d="M395 1092v272q-137 -209 -188 -272h188zM555 1575v-483h117v-131h-117v-209h-160v209h-356v143q72 88 350 471h166z" />
    <glyph glyph-name="fivesuperior" unicode="&#x2075;" horiz-adv-x="653" 
d="M561 1442h-297q-4 -104 -12 -187q47 20 106 21q102 0 173 -74t71 -186t-82 -193q-82 -80 -188 -80t-180 41q-76 41 -113 115l131 68q39 -88 133 -88q59 0 95 40t36 95t-36 91t-100 36t-103 -51l-109 71q18 170 27 414h448v-133z" />
    <glyph glyph-name="sixsuperior" unicode="&#x2076;" horiz-adv-x="688" 
d="M352 1149q-94 0 -141 -78q0 -86 34 -141q34 -56 99 -56t99 40t34 100t-35 97q-35 38 -90 38zM401 1282q97 0 169 -76t73 -192q0 -116 -80 -195q-80 -80 -212 -80q-132 1 -219 97t-87 239q0 193 120 335t308 214l55 -131q-236 -96 -292 -264q68 53 165 53z" />
    <glyph glyph-name="sevensuperior" unicode="&#x2077;" horiz-adv-x="581" 
d="M561 1575v-100q-186 -389 -336 -754l-147 67q82 190 299 652h-365v135h549z" />
    <glyph glyph-name="eightsuperior" unicode="&#x2078;" horiz-adv-x="712" 
d="M461 1351q0 45 -30 73t-74 28q-45 0 -75 -29t-30 -73t31 -74q31 -31 75 -31t73 31q30 31 30 75zM357 1112q-52 0 -89 -35t-37 -85t37 -85t89 -35t87 35t35 86t-35 85t-87 34zM621 1352q0 -104 -99 -168q123 -72 123 -201q0 -104 -82 -174t-207 -70q-124 0 -206 70
t-82 174q0 131 120 201q-98 66 -98 169t76 169t192 66t189 -66q74 -66 74 -170z" />
    <glyph glyph-name="ninesuperior" unicode="&#x2079;" horiz-adv-x="688" 
d="M336 1180q90 0 141 77q0 85 -35 141t-99 56t-98 -40t-34 -99t35 -97t90 -38zM290 1047q-102 -1 -174 75t-71 191q0 115 79 195t212 79q133 0 220 -96t87 -238q0 -193 -120 -336t-308 -215l-55 134q236 94 291 264q-59 -53 -161 -53z" />
    <glyph glyph-name="plussuperior" unicode="&#x207a;" horiz-adv-x="688" 
d="M276 827v242h-239v133h239v242h134v-242h241v-133h-241v-242h-134z" />
    <glyph glyph-name="minussuperior" unicode="&#x207b;" horiz-adv-x="698" 
d="M59 1202h580v-133h-580v133z" />
    <glyph glyph-name="equalsuperior" unicode="&#x207c;" horiz-adv-x="698" 
d="M59 1087h580v-133h-580v133zM59 1315h580v-129h-580v129z" />
    <glyph glyph-name="parenleftsuperior" unicode="&#x207d;" horiz-adv-x="452" 
d="M53 1126q0 380 348 592l60 -108q-250 -162 -250 -484t248 -481l-58 -108q-348 209 -348 589z" />
    <glyph glyph-name="parenrightsuperior" unicode="&#x207e;" horiz-adv-x="452" 
d="M242 1125q0 320 -250 485l59 108q346 -216 346 -594t-348 -587l-57 108q250 160 250 480z" />
    <glyph glyph-name="zeroinferior" unicode="&#x2080;" horiz-adv-x="700" 
d="M350 473q145 0 225 -113q80 -114 80 -312t-80 -310t-225 -113q-145 0 -225 113q-80 114 -80 312t80 310t225 113zM350 -238q137 0 137 287t-137 287t-137 -287t137 -287z" />
    <glyph glyph-name="oneinferior" unicode="&#x2081;" horiz-adv-x="448" 
d="M342 -365h-162v639q-96 -43 -119 -51v146q4 2 175 90h106v-824z" />
    <glyph glyph-name="twoinferior" unicode="&#x2082;" horiz-adv-x="659" 
d="M420 230q0 54 -29 80t-73 26t-72 -32t-29 -85l-162 25q6 100 84 164q77 64 183 63q106 0 185 -61t79 -169t-83 -223t-220 -247h338v-136h-549v127q164 164 282 324q66 90 66 144z" />
    <glyph glyph-name="threeinferior" unicode="&#x2083;" horiz-adv-x="667" 
d="M209 123q194 0 194 113q1 44 -31 72t-81 28q-90 0 -113 -84l-133 57q27 76 93 119t168 43t182 -60t79 -168q0 -108 -104 -167q67 -20 105 -76t38 -125q0 -115 -84 -183t-192 -69q-108 0 -185 42q-78 42 -112 120l131 63q45 -88 145 -88q53 0 91 30t38 85t-44 88t-95 33
t-90 -8v135z" />
    <glyph glyph-name="fourinferior" unicode="&#x2084;" horiz-adv-x="692" 
d="M395 -25v273q-137 -209 -188 -273h188zM555 459v-484h117v-131h-117v-209h-160v209h-356v144q72 88 350 471h166z" />
    <glyph glyph-name="fiveinferior" unicode="&#x2085;" horiz-adv-x="653" 
d="M561 326h-297q-4 -104 -12 -187q47 20 106 21q102 0 173 -74t71 -186t-82 -193q-82 -80 -188 -80t-180 41q-76 41 -113 115l131 67q39 -88 133 -88q59 0 95 40t36 96t-36 91q-36 36 -100 36t-103 -52l-109 72q18 170 27 414h448v-133z" />
    <glyph glyph-name="sixinferior" unicode="&#x2086;" horiz-adv-x="688" 
d="M352 33q-94 0 -141 -78q0 -86 34 -141q34 -56 99 -56t99 40t34 100t-35 97q-35 38 -90 38zM401 166q97 0 169 -76t73 -192q0 -116 -80 -195q-80 -80 -212 -80t-219 96t-87 240q0 193 120 335t308 214l55 -131q-236 -96 -292 -264q68 53 165 53z" />
    <glyph glyph-name="seveninferior" unicode="&#x2087;" horiz-adv-x="581" 
d="M561 459v-101q-186 -389 -336 -753l-147 67q82 190 299 652h-365v135h549z" />
    <glyph glyph-name="eightinferior" unicode="&#x2088;" horiz-adv-x="712" 
d="M461 235q0 45 -30 73t-74 28q-45 0 -75 -29t-30 -73t31 -74q31 -31 75 -31t73 31q30 31 30 75zM357 -4q-52 0 -89 -35t-37 -85t37 -85t89 -35t87 35t35 86t-35 85t-87 34zM621 236q0 -104 -99 -168q123 -72 123 -201q0 -104 -82 -174t-207 -70q-124 0 -206 70t-82 174
q0 131 120 201q-98 66 -98 169t76 169t192 66t189 -66q74 -66 74 -170z" />
    <glyph glyph-name="nineinferior" unicode="&#x2089;" horiz-adv-x="688" 
d="M336 63q90 0 141 78q0 85 -35 141t-99 56t-98 -40t-34 -99t35 -97t90 -39zM45 197q0 115 79 195t212 79q133 0 220 -96t87 -238q0 -193 -120 -336t-308 -215l-55 133q236 94 291 265q-59 -54 -161 -54t-174 76t-71 191z" />
    <glyph glyph-name="parenleftinferior" unicode="&#x208d;" horiz-adv-x="452" 
d="M53 9q0 380 348 593l60 -108q-250 -162 -250 -484t248 -481l-58 -109q-348 209 -348 589z" />
    <glyph glyph-name="parenrightinferior" unicode="&#x208e;" horiz-adv-x="452" 
d="M242 9q0 320 -250 485l59 108q346 -215 346 -594t-348 -588l-57 109q250 160 250 480z" />
    <glyph glyph-name="Euro" unicode="&#x20ac;" horiz-adv-x="1331" 
d="M23 760v162h182q70 215 248 339q178 123 404 123t405 -110l-97 -166q-127 88 -290 88t-277 -72t-168 -202h541v-162h-584q-4 -53 -4 -93t4 -65h584v-162h-543q55 -130 170 -202q114 -72 282 -72t304 98l112 -155q-188 -133 -429 -133t-419 123q-178 124 -245 341h-180
v162h149q-4 49 -4 77t4 81h-149z" />
    <glyph glyph-name="afii61352" unicode="&#x2116;" horiz-adv-x="2318" 
d="M2093 1102q0 94 -54 159q-55 65 -141 65t-140 -66q-54 -64 -54 -158t54 -159t140 -65t141 65q54 65 54 159zM1897 1466q157 0 261 -105t103 -259q0 -154 -103 -259q-102 -105 -260 -105t-260 104t-102 260t102 260t259 104zM1358 0h-197l-755 1028v-1028h-220v1434h193
l758 -1028v1028h221v-1434z" />
    <glyph glyph-name="trademark" unicode="&#x2122;" horiz-adv-x="2007" 
d="M1024 592h-166v842h258l236 -613l241 613h258v-842h-165v647l-265 -647h-139l-258 647v-647zM723 1288h-201v-696h-166v696h-200v146h567v-146z" />
    <glyph glyph-name="Omega" unicode="&#x2126;" horiz-adv-x="1626" 
d="M39 188h371q-154 109 -232 262t-78 318q0 286 197 488t516 202t516 -202t197 -488q0 -166 -78 -318t-231 -262h370v-188h-661v207q172 61 269 217t97 352t-124 341t-355 145t-355 -144t-124 -342q0 -196 97 -352t269 -217v-207h-661v188z" />
    <glyph glyph-name="onethird" unicode="&#x2153;" horiz-adv-x="1607" 
d="M1085 438q169 0 168 99q1 37 -25 61t-73 23q-76 0 -94 -76l-129 57q25 70 86 109t152 39t165 -54t74 -145q0 -45 -26 -89t-66 -67q57 -23 92 -71t35 -113q0 -105 -78 -165t-175 -60q-202 0 -271 149l129 60q35 -80 127 -80q46 -1 78 25t32 74t-39 75t-89 27t-73 -7v129z
M467 1434v-742h-156v568q-70 -33 -110 -50v142q4 2 159 82h107zM1190 1460l121 -88l-1020 -1399l-121 88z" />
    <glyph glyph-name="twothirds" unicode="&#x2154;" horiz-adv-x="1794" 
d="M1272 438q168 0 168 99q0 37 -26 61t-73 23q-76 0 -94 -76l-129 57q25 70 86 109t152 39q92 0 166 -54t73 -145q1 -45 -25 -89t-67 -67q57 -23 92 -71t35 -113q0 -105 -78 -165t-175 -60q-202 0 -271 149l129 60q35 -80 127 -80q47 -1 79 25t32 74t-39 75t-89 27t-73 -7
v129zM412 1448q98 0 170 -56t72 -148t-79 -204q-74 -98 -188 -213h295v-131h-504v117q154 150 258 291q58 78 58 126q1 87 -88 89q-39 0 -64 -28t-25 -74l-153 26q6 93 78 149t170 56zM1376 1460l121 -88l-1020 -1399l-121 88z" />
    <glyph glyph-name="oneeighth" unicode="&#x215b;" horiz-adv-x="1634" 
d="M467 1434v-742h-156v568q-70 -33 -110 -50v142q4 2 159 82h107zM1096 217q0 -43 30 -73t78 -30q47 0 78 30t31 73t-31 74t-78 31q-48 0 -78 -31t-30 -74zM1204 629q-38 1 -66 -25t-28 -64t27 -64t67 -26t67 26t27 64t-28 64t-66 25zM1470 209q0 -94 -76 -158
q-77 -63 -191 -63q-113 0 -189 62t-76 159q0 121 111 182q-91 59 -91 151t69 152t177 60t176 -60t68 -152q0 -93 -90 -151q112 -59 112 -182zM1190 1460l121 -88l-1020 -1399l-121 88z" />
    <glyph glyph-name="threeeighths" unicode="&#x215c;" horiz-adv-x="1777" 
d="M328 1137q168 0 168 98q0 37 -26 61t-73 23q-76 0 -94 -76l-129 57q25 70 86 109t152 39q92 0 166 -54t73 -145q1 -45 -25 -89t-67 -66q57 -23 92 -72t35 -113q0 -105 -78 -165t-175 -60q-202 0 -271 150l129 59q35 -80 127 -80q47 0 79 26q31 25 31 73t-39 75t-89 27
t-72 -6v129zM1237 217q0 -43 32 -73t78 -30q45 0 77 30t32 73t-32 74t-78 31t-77 -31q-32 -31 -32 -74zM1440 540q0 38 -27 64t-65 25q-38 1 -67 -25q-28 -26 -28 -64t27 -64t67 -26q41 0 67 26t26 64zM1614 209q0 -93 -77 -157t-191 -64t-189 62q-76 62 -76 159
q0 121 111 182q-90 57 -90 151t68 152q69 60 178 60q108 0 176 -60t68 -152q0 -93 -91 -151q113 -59 113 -182zM1331 1460l121 -88l-1018 -1399l-121 88z" />
    <glyph glyph-name="fiveeighths" unicode="&#x215d;" horiz-adv-x="1751" 
d="M1212 217q0 -43 32 -73t78 -30t78 30t32 73t-32 74t-78 31t-78 -31t-32 -74zM1321 629q-39 1 -65 -25t-27 -64q1 -38 27 -64t66 -26t67 26t27 64t-28 64t-67 25zM1587 209q0 -93 -77 -157q-76 -64 -190 -64t-190 63t-75 158q0 119 112 182q-90 57 -90 151t68 152
q69 60 177 60t176 -60t69 -152q0 -93 -90 -151q110 -59 110 -182zM645 1305h-268q0 -12 -12 -160q39 20 96 20q92 -1 155 -67q64 -66 64 -168t-76 -174t-186 -72q-178 0 -254 143l129 62q31 -76 117 -76q50 0 80 34t30 82t-31 79q-31 30 -85 30t-93 -45l-100 68
q16 170 25 373h409v-129zM1307 1460l120 -88l-1017 -1399l-121 88z" />
    <glyph glyph-name="seveneighths" unicode="&#x215e;" horiz-adv-x="1636" 
d="M182 1303v131h506v-97q-160 -322 -305 -675l-143 65q68 158 274 576h-332zM1098 217q0 -43 30 -73t78 -30q47 0 78 30t31 73t-31 74t-78 31q-48 0 -78 -31t-30 -74zM1206 629q-38 1 -66 -25t-28 -64t27 -64t67 -26t67 26t27 64t-28 64t-66 25zM1473 209q0 -93 -77 -157
t-191 -64q-113 0 -189 62t-76 159q0 121 111 182q-90 59 -90 151t68 152q69 60 177 60t178 -60q68 -60 68 -151q0 -92 -90 -152q111 -59 111 -182zM1192 1460l121 -88l-1020 -1399l-121 88z" />
    <glyph glyph-name="uni2192" unicode="&#x2192;" horiz-adv-x="1951" 
d="M137 459v164h1362l-403 397l118 117l601 -596l-601 -598l-118 118l403 398h-1362z" />
    <glyph glyph-name="uni2194" unicode="&#x2194;" horiz-adv-x="2330" 
d="M856 1020l-405 -397h1429l-403 397l116 117l600 -596l-600 -598l-116 118l403 398h-1429l405 -398l-117 -118l-602 598l602 596z" />
    <glyph glyph-name="uni21D2" unicode="&#x21d2;" horiz-adv-x="1986" 
d="M137 309v164h1413l70 68l-70 67h-1413v164h1247l-251 248l116 117l600 -596l-600 -598l-116 118l251 248h-1247z" />
    <glyph glyph-name="uni21D4" unicode="&#x21d4;" horiz-adv-x="2519" 
d="M436 608l-69 -67l69 -68h1647l69 68l-69 67h-1647zM1917 772l-252 248l117 117l600 -596l-600 -598l-117 118l252 248h-1313l252 -248l-117 -118l-602 598l602 596l117 -117l-254 -248h1315z" />
    <glyph glyph-name="uni21FD" unicode="&#x21fd;" horiz-adv-x="1951" 
d="M580 752l-215 -211l215 -213v424zM741 623h1074v-164h-1074v-514l-604 596l604 594v-512z" />
    <glyph glyph-name="uni21FE" unicode="&#x21fe;" horiz-adv-x="1949" 
d="M1587 541l-215 211v-424zM1212 459h-1075v164h1075v512l600 -594l-600 -596v514z" />
    <glyph glyph-name="uni21FF" unicode="&#x21ff;" horiz-adv-x="2519" 
d="M2154 541l-215 211v-424zM580 752l-215 -211l215 -213v424zM1780 459h-1039v-514l-604 596l604 594v-512h1039v512l602 -594l-602 -596v514z" />
    <glyph glyph-name="uni2200" unicode="&#x2200;" horiz-adv-x="1355" 
d="M682 334l225 612h-448l221 -612h2zM29 1434h254l108 -295h586l106 295h242l-561 -1434h-189z" />
    <glyph glyph-name="partialdiff" unicode="&#x2202;" 
d="M631 852q-177 0 -283 -83t-106 -237t94 -261t237 -107t232 98q88 98 88 251t-57 290q-98 49 -205 49zM1106 512q0 -231 -150 -384t-388 -153t-389 163t-151 380t147 368q146 151 366 150q90 0 164 -26q-185 220 -644 413l74 176q467 -195 719 -455t252 -632z" />
    <glyph glyph-name="uni2203" unicode="&#x2203;" horiz-adv-x="1187" 
d="M127 1434h874v-1434h-874v193h655v405h-655v193h655v450h-655v193z" />
    <glyph glyph-name="uni2204" unicode="&#x2204;" horiz-adv-x="1187" 
d="M782 1241h-43l-129 -450h172v450zM782 598h-227l-117 -405h344v405zM127 1434h491l50 170l163 -43l-36 -127h206v-1434h-618l-47 -168l-164 43l35 125h-80v193h135l117 405h-252v193h307l129 450h-436v193z" />
    <glyph glyph-name="Delta" unicode="&#x2206;" horiz-adv-x="1296" 
d="M971 193l-328 899h-2l-330 -899h660zM1294 0h-1292l555 1434h188z" />
    <glyph glyph-name="uni2208" unicode="&#x2208;" 
d="M1004 0h-250q-336 0 -497 139t-161 379t161 379t497 139h250v-180h-295q-171 0 -269 -68t-125 -178h689v-182h-689q27 -114 124 -180t270 -66h295v-182z" />
    <glyph glyph-name="uni2209" unicode="&#x2209;" 
d="M315 428q27 -127 138 -188l53 188h-191zM627 850q-133 -14 -211 -79t-101 -161h244zM1004 1036v-180h-197l-70 -246h267v-182h-320l-68 -242q57 -4 93 -4h295v-182h-250q-102 0 -187 12l-82 -278l-163 43l79 278q-305 121 -305 463q0 226 144 364t442 152l76 271l166 -45
l-64 -224h144z" />
    <glyph glyph-name="product" unicode="&#x220f;" 
d="M1118 979h-184v-979h-219v979h-303v-979h-219v979h-185v192h1110v-192z" />
    <glyph glyph-name="summation" unicode="&#x2211;" 
d="M1096 193v-193h-1061v115l512 626l-490 576v117h987v-193h-641l420 -493l-434 -555h707z" />
    <glyph glyph-name="minus" unicode="&#x2212;" 
d="M100 727h924v-180h-924v180z" />
    <glyph glyph-name="uni2215" unicode="&#x2215;" horiz-adv-x="763" 
d="M768 1497l-596 -1610l-172 66l596 1610z" />
    <glyph glyph-name="uni2219" unicode="&#x2219;" 
d="M682 512h-240v254h240v-254z" />
    <glyph glyph-name="radical" unicode="&#x221a;" 
d="M-2 854v182h352l191 -737h4l366 1237h226l-496 -1536h-213l-256 854h-174z" />
    <glyph glyph-name="infinity" unicode="&#x221e;" horiz-adv-x="1593" 
d="M430 676q-63 0 -106 -49t-43 -116t43 -118t106 -51q86 0 246 168q-158 166 -246 166zM1163 342q63 0 107 49q43 49 43 116t-43 118t-107 51q-86 0 -245 -168q157 -166 245 -166zM1169 854q145 0 246 -102t101 -244q0 -144 -102 -244t-245 -100q-94 0 -181 53t-193 168
q-113 -117 -196 -169t-175 -52q-145 0 -246 101q-100 101 -100 245t101 244t245 100q92 0 178 -53t197 -168q113 117 195 169t175 52z" />
    <glyph glyph-name="uni2229" unicode="&#x2229;" 
d="M1024 424v-424h-182v494q0 387 -279 387t-278 -387v-494h-183v424q0 637 461 637q227 -1 344 -153t117 -484z" />
    <glyph glyph-name="uni222A" unicode="&#x222a;" 
d="M102 612v424h183v-493q1 -385 279 -385t278 385v493h182v-424q0 -637 -461 -637q-227 1 -344 153t-117 484z" />
    <glyph glyph-name="integral" unicode="&#x222b;" 
d="M822 1370q-78 0 -110 -34t-38 -183l-53 -1225q-7 -207 -89 -294t-231 -87q-78 0 -195 50l58 172q66 -33 120 -33t88 36t40 183l51 1225q8 209 89 295t247 86q102 -1 219 -50l-57 -172q-61 31 -139 31z" />
    <glyph glyph-name="uni2234" unicode="&#x2234;" 
d="M684 565h-240v254h240v-254zM999 0h-237v254h237v-254zM367 0h-240v254h240v-254z" />
    <glyph glyph-name="approxequal" unicode="&#x2248;" 
d="M745 326q-79 0 -193 49t-173 49q-104 0 -152 -82l-129 90q80 174 281 174q77 0 193 -49t173 -49q103 0 154 82l127 -90q-80 -174 -281 -174zM745 670q-79 0 -193 49t-173 49q-102 0 -152 -82l-129 90q80 174 281 174q77 0 193 -49t173 -49q103 0 154 80l127 -90
q-80 -172 -281 -172z" />
    <glyph glyph-name="notequal" unicode="&#x2260;" 
d="M1024 899v-180h-317l-110 -162h427v-180h-549l-205 -303l-137 96l140 207h-173v180h294l109 162h-403v180h525l204 303l140 -96l-140 -207h195z" />
    <glyph glyph-name="lessequal" unicode="&#x2264;" 
d="M43 176h1038v-176h-1038v176zM43 705v167l1038 416v-180l-800 -320l800 -319v-180z" />
    <glyph glyph-name="greaterequal" unicode="&#x2265;" 
d="M43 176h1038v-176h-1038v176zM1081 872v-167l-1038 -416v180l801 319l-801 320v180z" />
    <glyph glyph-name="uni2282" unicode="&#x2282;" 
d="M1004 0h-250q-336 0 -497 139t-161 379t161 379t497 139h250v-180h-295q-207 0 -307 -95t-99 -241q0 -146 99 -242q99 -95 307 -96h295v-182z" />
    <glyph glyph-name="uni2283" unicode="&#x2283;" 
d="M373 0h-250v182h295q207 0 306 96t99 241t-99 241t-306 96h-295v180h250q337 0 497 -139t160 -379t-160 -379t-497 -139z" />
    <glyph glyph-name="uni2284" unicode="&#x2284;" 
d="M303 518q0 -193 150 -278l174 610q-164 -18 -244 -110t-80 -222zM1004 1036v-180h-197l-191 -670q57 -4 93 -4h295v-182h-250q-102 0 -187 12l-82 -278l-163 43l79 278q-305 121 -305 463q0 226 144 364t442 152l76 271l166 -45l-64 -224h144z" />
    <glyph glyph-name="uni2285" unicode="&#x2285;" 
d="M823 518q0 190 -151 279l-174 -611q166 18 246 110t79 222zM1030 518q0 -225 -143 -363t-443 -153l-75 -268l-166 43l63 223h-143v182h196l191 666q-39 8 -92 8h-295v180h250q109 0 186 -14l82 283l164 -45l-82 -279q307 -121 307 -463z" />
    <glyph glyph-name="uni2286" unicode="&#x2286;" 
d="M125 0v182h879v-182h-879zM1004 344h-250q-336 0 -497 139t-161 379t161 379t497 139h250v-182h-295q-207 0 -307 -95t-99 -241q0 -146 99 -242q99 -95 307 -96h295v-180z" />
    <glyph glyph-name="uni2287" unicode="&#x2287;" 
d="M123 0v182h878v-182h-878zM373 344h-250v180h295q207 0 306 96t99 241t-99 241t-306 96h-295v182h250q337 0 497 -139t160 -379t-160 -379t-497 -139z" />
    <glyph glyph-name="uni22C4" unicode="&#x22c4;" 
d="M356 512l207 -332l207 332l-207 330zM563 -123l-401 635l401 635l402 -635z" />
    <glyph glyph-name="triangle" unicode="&#x25b3;" horiz-adv-x="815" 
d="M754 586l-631 -359v713z" />
    <glyph glyph-name="lozenge" unicode="&#x25ca;" 
d="M860 717l-297 528l-295 -528l295 -529zM68 717l401 717h190l402 -717l-402 -717h-190z" />
    <glyph glyph-name="circle" unicode="&#x25cb;" horiz-adv-x="749" 
d="M72 592q0 125 89 214t214 89t214 -89t89 -214t-89 -214t-214 -89t-214 89t-89 214z" />
    <glyph glyph-name="uni25FB" unicode="&#x25fb;" 
d="M356 645v-414h414v414h-414zM190 811h746v-745h-746v745z" />
    <glyph glyph-name="commainferior" unicode="&#xf6e1;" horiz-adv-x="337" 
d="M258 -193l-86 -329h-149l67 329h168z" />
    <glyph glyph-name="commasuperior" unicode="&#xf6e2;" horiz-adv-x="337" 
d="M258 924l-86 -330h-149l67 330h168z" />
    <glyph glyph-name="hypheninferior" unicode="&#xf6e5;" horiz-adv-x="565" 
d="M444 -80h-323v133h323v-133z" />
    <glyph glyph-name="hyphensuperior" unicode="&#xf6e6;" horiz-adv-x="565" 
d="M444 1036h-323v133h323v-133z" />
    <glyph glyph-name="periodinferior" unicode="&#xf6e7;" horiz-adv-x="323" 
d="M246 -365h-168v170h168v-170z" />
    <glyph glyph-name="periodsuperior" unicode="&#xf6e8;" horiz-adv-x="323" 
d="M246 752h-168v170h168v-170z" />
    <glyph glyph-name="s_t" unicode="&#xfb06;" horiz-adv-x="1662" 
d="M1430 -20q-316 0 -316 380v494h-135v182h135l10 244h201v-244h285v-182h-285v-451q0 -51 3 -105t34 -93t93 -39t120 29l61 -166q-88 -49 -206 -49zM479 889q-63 0 -102 -34t-39 -79t32 -76t62 -45q30 -13 89 -37q58 -24 92 -39q218 -96 218 -268q1 -172 -109 -254
t-271 -82q-236 0 -373 166l139 121q109 -113 232 -112q75 0 123 36t48 90q1 84 -96 131q-34 15 -102 43t-104 45t-87 54q-96 70 -96 210q1 141 101 221t243 81q197 0 328 -119l-123 -133q-88 80 -205 80z" />
    <glyph glyph-name="M.salt" horiz-adv-x="1716" 
d="M401 0h-215v1434h281l389 -807h4l391 807h279v-1434h-215v1102l-387 -785h-142l-385 783v-1100z" />
    <glyph glyph-name="trademark.salt" horiz-adv-x="1804" 
d="M723 1288h-201v-696h-166v696h-198v146h565v-146zM858 1434h197l205 -430l206 430h193v-842h-164v543l-186 -375h-101l-184 373v-541h-166v842z" />
    <glyph glyph-name="hyphen.case" horiz-adv-x="935" 
d="M739 596h-542v186h542v-186z" />
    <glyph glyph-name="zero.lf" horiz-adv-x="1132" 
d="M565 1192q-129 0 -197 -129t-69 -383q0 -254 70 -383q69 -129 197 -129t198 129t70 383t-70 383t-199 129zM566 1384q232 0 360 -187t129 -517q0 -330 -128 -517q-129 -187 -361 -187t-360 186q-128 188 -128 518t128 517t360 187z" />
    <glyph glyph-name="one.lf" horiz-adv-x="712" 
d="M526 0h-217v1104q-10 -6 -200 -90v200q147 74 276 146h141v-1360z" />
    <glyph glyph-name="two.lf" horiz-adv-x="1050" 
d="M117 184q594 622 594 824q-1 92 -61 140t-144 48t-142 -58t-59 -149l-215 41q12 156 138 255t290 99t289 -101t125 -268t-140 -365q-139 -198 -384 -462h585v-188h-876v184z" />
    <glyph glyph-name="three.lf" horiz-adv-x="1071" 
d="M684 1017q0 75 -59 127t-143 52t-142 -38q-57 -38 -78 -107l-184 75q41 117 148 188q108 71 249 70q188 0 309 -100t121 -264q0 -90 -46 -169t-124 -120q106 -37 171 -129t65 -207q0 -193 -133 -307t-330 -113q-139 1 -260 63t-180 179l174 92q78 -143 256 -143
q106 0 180 56t74 158t-80 164t-179 62t-167 -14v207q125 4 186 18q78 23 125 74t47 126z" />
    <glyph glyph-name="four.lf" horiz-adv-x="1110" 
d="M655 528v537q-214 -320 -374 -537h374zM868 0h-213v340h-604v215q139 180 596 805h221v-832h201v-188h-201v-340z" />
    <glyph glyph-name="five.lf" horiz-adv-x="1030" 
d="M899 1360v-189h-506q-14 -264 -24 -356q82 37 190 37q170 0 291 -122t121 -308t-131 -316q-131 -131 -330 -131q-135 0 -258 65t-180 173l174 94q76 -141 243 -141q119 0 190 74t71 182t-72 175t-188 67t-197 -86l-152 90q20 207 47 692h711z" />
    <glyph glyph-name="six.lf" horiz-adv-x="1103" 
d="M554 164q122 0 188 76t65 188q0 112 -65 180q-65 70 -161 70q-97 0 -171 -42t-113 -116q0 -152 67 -254q68 -102 190 -102zM1026 424q0 -188 -125 -319q-125 -130 -317 -130q-229 0 -368 161q-138 161 -138 386q0 313 192 555q193 242 490 363l84 -187
q-203 -89 -333 -207t-181 -294q114 114 290 114t291 -127t115 -315z" />
    <glyph glyph-name="seven.lf" horiz-adv-x="937" 
d="M899 1360v-150q-295 -616 -563 -1259l-199 88q155 365 332 732q176 366 190 396h-639v193h879z" />
    <glyph glyph-name="eight.lf" horiz-adv-x="1150" 
d="M576 1196q-89 0 -150 -55t-61 -139t61 -143q61 -58 149 -58t150 57q61 57 61 142t-60 141q-61 55 -150 55zM575 612q-102 0 -174 -66q-71 -66 -71 -160q0 -95 70 -159q71 -63 175 -63t177 63q72 63 72 159t-73 161q-74 65 -176 65zM575 -25q-205 0 -335 116t-129 286
q0 223 206 340q-166 100 -165 295q0 158 118 266t306 106q187 0 307 -107q119 -108 118 -265q0 -193 -167 -295q209 -117 208 -340q0 -170 -131 -286t-336 -116z" />
    <glyph glyph-name="nine.lf" horiz-adv-x="1103" 
d="M521 682q95 0 171 43t115 117q0 152 -67 253q-68 101 -190 101t-188 -75t-66 -187t66 -182q64 -70 159 -70zM78 936q0 188 125 318t317 130q229 0 368 -159q138 -160 138 -387q0 -311 -192 -553t-490 -363l-84 184q420 184 514 502q-117 -112 -292 -112q-176 0 -290 126
t-114 314z" />
    <glyph glyph-name="dollar.lf" 
d="M541 160q119 0 199 56t81 155q0 99 -68 150t-118 69q-220 76 -287 112q-138 72 -182 174q-27 62 -27 144q-1 154 103 251t268 111v195h141v-199q172 -20 340 -137l-129 -154q-125 113 -295 113q-85 0 -153 -46t-68 -132q0 -56 31 -84t49 -42q28 -21 120 -55l72 -27
q133 -46 193 -78q154 -81 200 -186q28 -65 27 -149q0 -173 -112 -283t-287 -134v-201h-139v194q-240 8 -449 209l146 138q164 -164 344 -164z" />
    <glyph glyph-name="Euro.lf" horiz-adv-x="1331" 
d="M23 760v162h182q70 215 248 339q178 123 404 123t405 -110l-97 -166q-127 88 -290 88t-277 -72t-168 -202h541v-162h-584q-4 -53 -4 -93t4 -65h584v-162h-543q55 -130 170 -202q114 -72 282 -72t304 98l112 -155q-188 -133 -429 -133t-419 123q-178 124 -245 341h-180
v162h149q-4 49 -4 77t4 81h-149z" />
    <glyph glyph-name="cent.lf" 
d="M733 -80h-141v182q-197 29 -322 174q-125 144 -125 356t126 362t321 182v184h141v-180q145 -12 262 -95l-102 -165q-94 74 -219 74t-218 -104q-94 -103 -94 -253t94 -249q94 -100 222 -100q127 0 221 74l107 -157q-111 -88 -273 -105v-180z" />
    <glyph glyph-name="sterling.lf" 
d="M1006 0h-846v193h114v446h-114v188h114v101q0 200 119 328t300 128t317 -79l-88 -177q-76 68 -211 68q-225 0 -226 -317v-52h273v-188h-273v-446h521v-193z" />
    <glyph glyph-name="yen.lf" 
d="M106 524v162h293l-376 674h245l299 -547h4l287 547h244l-383 -674h291v-162h-344v-127h344v-159h-346v-238h-211v238h-347v159h345v127h-345z" />
    <glyph glyph-name="florin.lf" 
d="M821 827v-188h-266l-82 -725q-18 -164 -101 -253t-212 -89q-78 0 -172 25l45 180q49 -17 109 -17t86 45t38 150l78 684h-162v188h183l24 215q19 164 109 253t229 89t279 -67l-80 -172q-78 51 -166 51t-120 -46t-44 -146l-21 -177h246z" />
    <glyph glyph-name="afii61352.lf" horiz-adv-x="2318" 
d="M2093 1102q0 94 -54 159q-55 65 -141 65t-140 -66q-54 -64 -54 -158t54 -159t140 -65t141 65q54 65 54 159zM1897 1466q157 0 261 -105t103 -259q0 -154 -103 -259q-102 -105 -260 -105t-260 104t-102 260t102 260t259 104zM1358 0h-197l-755 1028v-1028h-220v1434h193
l758 -1028v1028h221v-1434z" />
    <glyph glyph-name="percent.lf" horiz-adv-x="1742" 
d="M1294 492q-72 0 -118 -48t-46 -125q0 -75 46 -123t118 -48t118 48t46 124t-46 124t-118 48zM1294 651q140 0 238 -96q98 -95 98 -235t-98 -236t-238 -96t-237 96q-98 96 -99 235q0 139 98 235t238 97zM1325 1460l119 -88l-1018 -1399l-121 88zM449 1286q-72 0 -118 -48
t-46 -124t46 -124t118 -48q71 0 117 48t46 124t-46 124t-117 48zM449 1446q139 0 237 -96t98 -236t-98 -235q-98 -97 -237 -97t-237 96t-99 236q0 139 98 236q99 96 238 96z" />
    <glyph glyph-name="perthousand.lf" horiz-adv-x="2537" 
d="M2089 492q-72 0 -118 -48t-46 -125q0 -75 46 -123t118 -48t118 48t46 124t-46 124t-118 48zM2089 651q139 0 237 -96q98 -95 99 -235q0 -140 -98 -236q-97 -96 -237 -96t-239 96q-98 96 -98 235t98 236q99 96 238 96zM1294 492q-72 0 -118 -48t-46 -125q0 -75 46 -123
t118 -48t118 48t46 124t-46 124t-118 48zM1294 651q140 0 238 -96q98 -95 98 -235t-98 -236t-238 -96t-237 96q-98 96 -99 235q0 139 98 235t238 97zM1325 1460l119 -88l-1018 -1399l-121 88zM449 1286q-72 0 -118 -48t-46 -124t46 -124t118 -48q71 0 117 48t46 124t-46 124
t-117 48zM449 1446q139 0 237 -96t98 -236t-98 -235q-98 -97 -237 -97t-237 96t-99 236q0 139 98 236q99 96 238 96z" />
    <glyph glyph-name="zero.osf" horiz-adv-x="1261" 
d="M631 872q-141 0 -237 -100t-95 -253q0 -153 95 -253q94 -100 236 -100t237 100t95 253t-94 253q-96 100 -237 100zM630 1061q226 0 390 -159t164 -385t-163 -384t-390 -158t-390 158t-163 385t163 385t389 158z" />
    <glyph glyph-name="one.osf" horiz-adv-x="712" 
d="M526 0h-217v799q-68 -35 -200 -88v200q147 74 276 146h141v-1057z" />
    <glyph glyph-name="two.osf" horiz-adv-x="1048" 
d="M496 1061q162 0 274 -91q113 -91 113 -243q0 -180 -215 -356q-98 -78 -269 -183h574v-188h-852v209q332 225 407 293q133 119 134 223q0 72 -48 110q-48 37 -125 37q-78 0 -127 -49t-53 -133l-211 43q16 147 126 237t272 91z" />
    <glyph glyph-name="three.osf" horiz-adv-x="1071" 
d="M684 692q0 74 -59 126t-143 52t-142 -38q-57 -38 -78 -105l-184 76q40 117 148 187t249 71q188 0 309 -100t121 -265q0 -90 -46 -169t-124 -119q106 -37 171 -129t65 -207q0 -192 -133 -306t-330 -114q-139 0 -260 62t-180 180l174 92q78 -143 256 -144q106 0 180 56
t74 158t-80 164t-179 62t-167 -14v207q124 4 194 23q70 20 117 70t47 124z" />
    <glyph glyph-name="four.osf" horiz-adv-x="1132" 
d="M702 188v539q-223 -297 -430 -539h430zM1100 0h-187v-324h-211v324h-661v217q389 469 661 819h211v-848h187v-188z" />
    <glyph glyph-name="five.osf" horiz-adv-x="1030" 
d="M899 1036v-188h-506q-14 -264 -24 -359q82 37 190 37q172 0 292 -120t120 -306t-131 -317t-330 -131q-135 0 -258 64t-180 173l174 95q76 -141 243 -142q119 0 190 74t71 182t-72 174t-190 66t-195 -84l-152 88q20 209 47 694h711z" />
    <glyph glyph-name="six.osf" horiz-adv-x="1103" 
d="M554 164q122 0 188 76t65 188q0 112 -65 180q-65 70 -161 70q-97 0 -171 -42t-113 -116q0 -152 67 -254q68 -102 190 -102zM1026 424q0 -188 -125 -319q-125 -130 -317 -130q-229 0 -368 161q-138 161 -138 386q0 313 192 555q193 242 490 363l84 -187
q-203 -89 -333 -207t-181 -294q114 114 290 114t291 -127t115 -315z" />
    <glyph glyph-name="seven.osf" horiz-adv-x="937" 
d="M899 1036v-149q-295 -616 -563 -1260l-199 88q162 382 335 740t187 389h-639v192h879z" />
    <glyph glyph-name="eight.osf" horiz-adv-x="1150" 
d="M576 1196q-89 0 -150 -55t-61 -139t61 -143q61 -58 149 -58t150 57q61 57 61 142t-60 141q-61 55 -150 55zM575 612q-102 0 -174 -66q-71 -66 -71 -160q0 -95 70 -159q71 -63 175 -63t177 63q72 63 72 159t-73 161q-74 65 -176 65zM575 -25q-205 0 -335 116t-129 286
q0 223 206 340q-166 100 -165 295q0 158 118 266t306 106q187 0 307 -107q119 -108 118 -265q1 -193 -167 -295q209 -117 208 -340q0 -170 -131 -286t-336 -116z" />
    <glyph glyph-name="nine.osf" horiz-adv-x="1103" 
d="M550 872q-122 0 -188 -74t-66 -188q0 -112 66 -182q64 -70 159 -70t171 43t115 117q0 152 -67 253q-68 101 -190 101zM482 172q-176 0 -290 126t-114 314t125 319q125 130 317 130q230 0 368 -160t138 -387q0 -311 -192 -553q-193 -241 -490 -362l-84 184
q420 184 514 502q-117 -113 -292 -113z" />
    <glyph glyph-name="dollar.osf" 
d="M541 160q119 0 199 56t81 155q0 99 -68 150t-118 69q-220 76 -287 112q-138 72 -182 174q-27 62 -27 144q-1 154 103 251t268 111v195h141v-199q172 -20 340 -137l-129 -154q-125 113 -295 113q-85 0 -153 -46t-68 -132q0 -56 31 -84t49 -42q28 -21 120 -55l72 -27
q133 -46 193 -78q154 -81 200 -186q28 -65 27 -149q0 -173 -112 -283t-287 -134v-201h-139v194q-240 8 -449 209l146 138q164 -164 344 -164z" />
    <glyph glyph-name="Euro.osf" horiz-adv-x="1331" 
d="M23 760v162h182q70 215 248 339q178 123 404 123t405 -110l-97 -166q-127 88 -290 88t-277 -72t-168 -202h541v-162h-584q-4 -53 -4 -93t4 -65h584v-162h-543q55 -130 170 -202q114 -72 282 -72t304 98l112 -155q-188 -133 -429 -133t-419 123q-178 124 -245 341h-180
v162h149q-4 49 -4 77t4 81h-149z" />
    <glyph glyph-name="cent.osf" 
d="M733 -80h-141v182q-197 29 -322 174q-125 144 -125 356t126 362t321 182v184h141v-180q145 -12 262 -95l-102 -165q-94 74 -219 74t-218 -104q-94 -103 -94 -253t94 -249q94 -100 222 -100q127 0 221 74l107 -157q-111 -88 -273 -105v-180z" />
    <glyph glyph-name="sterling.osf" 
d="M711 1194q-224 0 -226 -315v-52h273v-188h-273v-446h521v-193h-846v193h114v446h-114v188h114v99q0 202 119 330t301 128t316 -81l-88 -175q-74 66 -211 66z" />
    <glyph glyph-name="yen.osf" 
d="M106 547v139h293l-376 674h245l299 -547h4l287 547h244l-383 -674h293v-139h-346v-113h346v-139h-348v-295h-211v295h-347v139h345v113h-345z" />
    <glyph glyph-name="florin.osf" 
d="M821 827v-188h-266l-82 -725q-18 -164 -101 -253t-212 -89q-78 0 -172 25l45 180q49 -17 109 -17t86 45t38 150l78 684h-162v188h183l24 215q19 164 109 253t229 89t279 -67l-80 -172q-78 51 -166 51t-120 -46t-44 -146l-21 -177h246z" />
    <glyph glyph-name="afii61352.osf" horiz-adv-x="2318" 
d="M2093 1102q0 94 -54 159q-55 65 -141 65t-140 -66q-54 -64 -54 -158t54 -159t140 -65t141 65q54 65 54 159zM1897 1466q157 0 261 -105t103 -259q0 -154 -103 -259q-102 -105 -260 -105t-260 104t-102 260t102 260t259 104zM1358 0h-197l-755 1028v-1028h-220v1434h193
l758 -1028v1028h221v-1434z" />
    <glyph glyph-name="percent.osf" horiz-adv-x="1742" 
d="M1294 492q-72 0 -118 -48t-46 -125q0 -75 46 -123t118 -48t118 48t46 124t-46 124t-118 48zM1294 651q140 0 238 -96q98 -95 98 -235t-98 -236t-238 -96t-237 96q-98 96 -99 235q0 139 98 235t238 97zM1325 1460l119 -88l-1018 -1399l-121 88zM449 1286q-72 0 -118 -48
t-46 -124t46 -124t118 -48q71 0 117 48t46 124t-46 124t-117 48zM449 1446q139 0 237 -96t98 -236t-98 -235q-98 -97 -237 -97t-237 96t-99 236q0 139 98 236q99 96 238 96z" />
    <glyph glyph-name="perthousand.osf" horiz-adv-x="2537" 
d="M2089 492q-72 0 -118 -48t-46 -125q0 -75 46 -123t118 -48t118 48t46 124t-46 124t-118 48zM2089 651q139 0 237 -96q98 -95 99 -235q0 -140 -98 -236q-97 -96 -237 -96t-239 96q-98 96 -98 235t98 236q99 96 238 96zM1294 492q-72 0 -118 -48t-46 -125q0 -75 46 -123
t118 -48t118 48t46 124t-46 124t-118 48zM1294 651q140 0 238 -96q98 -95 98 -235t-98 -236t-238 -96t-237 96q-98 96 -99 235q0 139 98 235t238 97zM1325 1460l119 -88l-1018 -1399l-121 88zM449 1286q-72 0 -118 -48t-46 -124t46 -124t118 -48q71 0 117 48t46 124t-46 124
t-117 48zM449 1446q139 0 237 -96t98 -236t-98 -235q-98 -97 -237 -97t-237 96t-99 236q0 139 98 236q99 96 238 96z" />
    <glyph glyph-name="zero.slash" 
d="M561 1192q-242 0 -262 -424h528q-24 424 -266 424zM561 168q242 0 266 426h-528q20 -426 262 -426zM563 1384q231 0 359 -187t129 -517q0 -330 -128 -517q-127 -187 -359 -187t-360 186q-128 188 -128 518t128 517t359 187z" />
    <glyph glyph-name="zero.tf" 
d="M563 1192q-129 0 -197 -129t-69 -383q0 -254 70 -383q69 -129 197 -129t198 129t69 383q0 254 -69 383q-70 129 -199 129zM564 1384q232 0 360 -187t129 -517q0 -330 -128 -517q-129 -187 -361 -187t-360 186q-128 188 -128 518t128 517t360 187z" />
    <glyph glyph-name="one.tf" 
d="M223 190h312v938q-156 -78 -351 -159v202q225 106 410 201h158v-1182h286v-190h-815v190z" />
    <glyph glyph-name="two.tf" 
d="M137 184q594 622 594 824q0 92 -60 140q-61 48 -145 48t-142 -58t-58 -149l-215 41q12 156 138 255q125 99 289 99t289 -101t125 -268t-139 -365t-385 -462h586v-188h-877v184z" />
    <glyph glyph-name="three.tf" 
d="M502 1194q-84 0 -142 -38t-77 -105l-185 75q41 117 149 188t249 70q188 0 309 -100t121 -264q0 -90 -46 -169t-124 -120q106 -37 171 -129t64 -207q0 -193 -133 -307t-330 -113q-139 1 -260 63t-180 179l174 92q78 -143 256 -143q106 0 180 56t74 158t-80 164t-179 62
t-167 -14v207q125 4 186 18q78 23 125 74t47 125t-58 126q-60 52 -144 52z" />
    <glyph glyph-name="four.tf" 
d="M651 528v537q-215 -320 -375 -537h375zM864 0h-213v340h-604v215q139 180 596 805h221v-832h201v-188h-201v-340z" />
    <glyph glyph-name="five.tf" 
d="M936 1360v-189h-506q-14 -264 -24 -358q82 37 190 37q172 0 292 -121t120 -307t-131 -316q-131 -131 -330 -131q-135 0 -258 65t-180 173l174 94q76 -141 243 -141q119 0 190 74q70 74 70 182t-71 174q-72 66 -190 66t-195 -84l-152 88q20 209 47 694h711z" />
    <glyph glyph-name="six.tf" 
d="M564 164q122 0 188 76t66 188t-66 180q-64 70 -160 70t-171 -42t-114 -116q0 -152 67 -254t190 -102zM594 -25q-229 0 -368 161q-138 161 -138 386q0 313 192 555t490 363l84 -187q-203 -89 -333 -207t-181 -294q115 114 291 114t291 -127q114 -127 114 -315t-125 -319
q-125 -130 -317 -130z" />
    <glyph glyph-name="seven.tf" 
d="M989 1360v-150q-295 -616 -563 -1259l-199 88q139 327 323 712q185 386 200 416h-639v193h878z" />
    <glyph glyph-name="eight.tf" 
d="M564 1196q-89 0 -150 -55q-62 -55 -62 -139t62 -143q62 -58 149 -58q88 0 150 57q61 57 61 142t-60 141q-61 55 -150 55zM563 612q-102 0 -174 -66t-72 -160t71 -158t175 -64t176 63t72 159t-73 160q-73 66 -175 66zM1030 377q0 -170 -131 -286t-336 -116t-335 116
t-130 286q0 223 207 340q-166 100 -166 295q0 158 119 266t306 106q187 0 306 -108t119 -264q0 -193 -168 -295q209 -117 209 -340z" />
    <glyph glyph-name="nine.tf" 
d="M563 1196q-123 0 -189 -75t-65 -187q0 -112 65 -182t160 -70t171 43q75 43 114 117q0 152 -66 253q-67 101 -190 101zM90 936q0 188 125 318t317 130q229 0 368 -159q138 -160 138 -387q0 -311 -192 -553t-490 -363l-84 184q420 184 514 502q-118 -112 -292 -112
t-289 126t-115 314z" />
    <glyph glyph-name="dollar.tf" 
d="M541 160q119 0 199 56t81 155q0 99 -68 150t-118 69q-220 76 -287 112q-138 72 -182 174q-27 62 -27 144q-1 154 103 251t268 111v195h141v-199q172 -20 340 -137l-129 -154q-125 113 -295 113q-85 0 -153 -46t-68 -132q0 -56 31 -84t49 -42q28 -21 120 -55l72 -27
q133 -46 193 -78q154 -81 200 -186q28 -65 27 -149q0 -173 -112 -283t-287 -134v-201h-139v194q-240 8 -449 209l146 138q164 -164 344 -164z" />
    <glyph glyph-name="Euro.tf" 
d="M39 760v162h162q43 221 160 342q118 121 305 120q142 0 250 -74t161 -214l-188 -68q-70 164 -221 164q-193 0 -248 -270h344v-162h-363q-2 -27 -2 -81t2 -77h363v-162h-346q55 -272 250 -272q178 0 241 225l195 -57q-113 -360 -438 -361q-186 0 -306 122
q-119 122 -161 343h-160v162h141q-2 25 -2 78t2 80h-141z" />
    <glyph glyph-name="cent.tf" 
d="M733 -80h-141v182q-197 29 -322 174q-125 144 -125 356t126 362t321 182v184h141v-180q145 -12 262 -95l-102 -165q-94 74 -219 74t-218 -104q-94 -103 -94 -253t94 -249q94 -100 222 -100q127 0 221 74l107 -157q-111 -88 -273 -105v-180z" />
    <glyph glyph-name="sterling.tf" 
d="M1006 0h-846v193h114v446h-114v188h114v101q0 200 119 328t300 128t317 -79l-88 -177q-76 68 -211 68q-225 0 -226 -317v-52h273v-188h-273v-446h521v-193z" />
    <glyph glyph-name="yen.tf" 
d="M106 524v162h293l-376 674h245l299 -547h4l287 547h244l-383 -674h291v-162h-344v-127h344v-159h-346v-238h-211v238h-347v159h345v127h-345z" />
    <glyph glyph-name="florin.tf" 
d="M821 827v-188h-266l-82 -725q-18 -164 -101 -253t-212 -89q-78 0 -172 25l45 180q49 -17 109 -17t86 45t38 150l78 684h-162v188h183l24 215q19 164 109 253t229 89t279 -67l-80 -172q-78 51 -166 51t-120 -46t-44 -146l-21 -177h246z" />
    <glyph glyph-name="afii61352.tf" horiz-adv-x="2318" 
d="M2093 1102q0 94 -54 159q-55 65 -141 65t-140 -66q-54 -64 -54 -158t54 -159t140 -65t141 65q54 65 54 159zM1897 1466q157 0 261 -105t103 -259q0 -154 -103 -259q-102 -105 -260 -105t-260 104t-102 260t102 260t259 104zM1358 0h-197l-755 1028v-1028h-220v1434h193
l758 -1028v1028h221v-1434z" />
    <glyph glyph-name="percent.tf" horiz-adv-x="1742" 
d="M1294 492q-72 0 -118 -48t-46 -125q0 -75 46 -123t118 -48t118 48t46 124t-46 124t-118 48zM1294 651q140 0 238 -96q98 -95 98 -235t-98 -236t-238 -96t-237 96q-98 96 -99 235q0 139 98 235t238 97zM1325 1460l119 -88l-1018 -1399l-121 88zM449 1286q-72 0 -118 -48
t-46 -124t46 -124t118 -48q71 0 117 48t46 124t-46 124t-117 48zM449 1446q139 0 237 -96t98 -236t-98 -235q-98 -97 -237 -97t-237 96t-99 236q0 139 98 236q99 96 238 96z" />
    <glyph glyph-name="perthousand.tf" horiz-adv-x="2537" 
d="M2089 492q-72 0 -118 -48t-46 -125q0 -75 46 -123t118 -48t118 48t46 124t-46 124t-118 48zM2089 651q139 0 237 -96q98 -95 99 -235q0 -140 -98 -236q-97 -96 -237 -96t-239 96q-98 96 -98 235t98 236q99 96 238 96zM1294 492q-72 0 -118 -48t-46 -125q0 -75 46 -123
t118 -48t118 48t46 124t-46 124t-118 48zM1294 651q140 0 238 -96q98 -95 98 -235t-98 -236t-238 -96t-237 96q-98 96 -99 235q0 139 98 235t238 97zM1325 1460l119 -88l-1018 -1399l-121 88zM449 1286q-72 0 -118 -48t-46 -124t46 -124t118 -48q71 0 117 48t46 124t-46 124
t-117 48zM449 1446q139 0 237 -96t98 -236t-98 -235q-98 -97 -237 -97t-237 96t-99 236q0 139 98 236q99 96 238 96z" />
    <glyph glyph-name="zeroslash.tosf" 
d="M563 872q-115 0 -185 -70t-85 -196h538q-17 126 -85 196t-183 70zM562 166q234 0 269 266h-538q35 -266 269 -266zM563 1061q221 0 359 -156t137 -387q0 -231 -137 -387q-136 -156 -358 -156t-359 156t-137 387t137 387t358 156z" />
    <glyph glyph-name="zero.tosf" 
d="M563 872q-133 0 -205 -93t-72 -261t72 -260t205 -92t205 92t72 260t-72 261t-205 93zM563 1061q221 0 359 -156t137 -387q0 -231 -137 -387q-136 -156 -358 -156t-359 156t-137 387t137 387t358 156z" />
    <glyph glyph-name="one.tosf" 
d="M223 190h312v623q-162 -78 -351 -160v205q227 102 410 199h158v-867h286v-190h-815v190z" />
    <glyph glyph-name="two.tosf" 
d="M534 1061q162 0 275 -91t113 -243q0 -180 -215 -356q-98 -78 -269 -183h574v-188h-852v209q332 225 407 293q133 119 133 223q0 72 -47 110q-47 37 -125 37t-127 -49t-53 -133l-211 43q16 147 126 237q109 90 271 91z" />
    <glyph glyph-name="three.tosf" 
d="M502 870q-84 0 -142 -37q-57 -38 -77 -106l-185 76q41 117 149 187t249 71q188 0 309 -100t121 -265q0 -90 -46 -169t-124 -119q106 -37 171 -129t64 -207q0 -192 -133 -306t-330 -114q-139 0 -260 62t-180 180l174 92q78 -143 256 -144q106 0 180 56t74 158t-80 164
t-179 62t-167 -14v207q124 4 194 23q70 20 117 70t47 124t-58 126q-60 52 -144 52z" />
    <glyph glyph-name="four.tosf" 
d="M692 188v539q-197 -265 -430 -539h430zM1092 0h-187v-324h-213v324h-661v217q377 453 663 819h211v-848h187v-188z" />
    <glyph glyph-name="five.tosf" 
d="M936 1036v-188h-506q-14 -264 -24 -359q82 37 190 37q172 0 292 -120t120 -306t-131 -317t-330 -131q-135 0 -258 64t-180 173l174 95q76 -141 243 -142q119 0 190 74q70 74 70 182t-71 174q-72 66 -190 66t-195 -84l-152 88q20 209 47 694h711z" />
    <glyph glyph-name="six.tosf" 
d="M564 164q122 0 188 76t66 188t-66 180q-64 70 -160 70t-171 -42t-114 -116q0 -152 67 -254t190 -102zM594 -25q-229 0 -368 161q-138 161 -138 386q0 313 192 555t490 363l84 -187q-203 -89 -333 -207t-181 -294q115 114 291 114t291 -127q114 -127 114 -315t-125 -319
q-125 -130 -317 -130z" />
    <glyph glyph-name="seven.tosf" 
d="M989 1036v-149q-295 -616 -563 -1260l-199 88q168 395 523 1129h-639v192h878z" />
    <glyph glyph-name="eight.tosf" 
d="M564 1196q-89 0 -150 -55q-62 -55 -62 -139t62 -143q62 -58 149 -58q88 0 150 57q61 57 61 142t-60 141q-61 55 -150 55zM563 612q-102 0 -174 -66t-72 -160t71 -158t175 -64t176 63t72 159t-73 160q-73 66 -175 66zM1030 377q0 -170 -131 -286t-336 -116t-335 116
t-130 286q0 223 207 340q-166 100 -166 295q0 158 119 266t306 106q187 0 306 -108t119 -264q0 -193 -168 -295q209 -117 209 -340z" />
    <glyph glyph-name="nine.tosf" 
d="M563 872q-123 0 -189 -74t-65 -188q0 -112 65 -182t160 -70t171 43q75 43 114 117q0 152 -66 253q-67 101 -190 101zM494 172q-174 0 -289 126t-115 314t125 319q125 130 317 130q230 0 368 -160t138 -387q0 -311 -192 -553q-193 -241 -490 -362l-84 184q420 184 514 502
q-118 -113 -292 -113z" />
    <glyph glyph-name="dollar.tosf" 
d="M541 160q119 0 199 56t81 155q0 99 -68 150t-118 69q-220 76 -287 112q-138 72 -182 174q-27 62 -27 144q-1 154 103 251t268 111v195h141v-199q172 -20 340 -137l-129 -154q-125 113 -295 113q-85 0 -153 -46t-68 -132q0 -56 31 -84t49 -42q28 -21 120 -55l72 -27
q133 -46 193 -78q154 -81 200 -186q28 -65 27 -149q0 -173 -112 -283t-287 -134v-201h-139v194q-240 8 -449 209l146 138q164 -164 344 -164z" />
    <glyph glyph-name="Euro.tosf" 
d="M39 760v162h162q43 221 160 342q118 121 305 120q142 0 250 -74t161 -214l-188 -68q-70 164 -221 164q-193 0 -248 -270h344v-162h-363q-2 -27 -2 -81t2 -77h363v-162h-346q55 -272 250 -272q178 0 241 225l195 -57q-113 -360 -438 -361q-186 0 -306 122
q-119 122 -161 343h-160v162h141q-2 25 -2 78t2 80h-141z" />
    <glyph glyph-name="cent.tosf" 
d="M733 -80h-141v182q-197 29 -322 174q-125 144 -125 356t126 362t321 182v184h141v-180q145 -12 262 -95l-102 -165q-94 74 -219 74t-218 -104q-94 -103 -94 -253t94 -249q94 -100 222 -100q127 0 221 74l107 -157q-111 -88 -273 -105v-180z" />
    <glyph glyph-name="sterling.tosf" 
d="M1006 0h-846v193h114v446h-114v188h114v101q0 200 119 328t300 128t317 -79l-88 -177q-76 68 -211 68q-225 0 -226 -317v-52h273v-188h-273v-446h521v-193z" />
    <glyph glyph-name="yen.tosf" 
d="M106 524v162h293l-376 674h245l299 -547h4l287 547h244l-383 -674h291v-162h-344v-127h344v-159h-346v-238h-211v238h-347v159h345v127h-345z" />
    <glyph glyph-name="florin.tosf" 
d="M821 827v-188h-266l-82 -725q-18 -164 -101 -253t-212 -89q-78 0 -172 25l45 180q49 -17 109 -17t86 45t38 150l78 684h-162v188h183l24 215q19 164 109 253t229 89t279 -67l-80 -172q-78 51 -166 51t-120 -46t-44 -146l-21 -177h246z" />
    <glyph glyph-name="afii61352.tosf" horiz-adv-x="2318" 
d="M2093 1102q0 94 -54 159q-55 65 -141 65t-140 -66q-54 -64 -54 -158t54 -159t140 -65t141 65q54 65 54 159zM1897 1466q157 0 261 -105t103 -259q0 -154 -103 -259q-102 -105 -260 -105t-260 104t-102 260t102 260t259 104zM1358 0h-197l-755 1028v-1028h-220v1434h193
l758 -1028v1028h221v-1434z" />
    <glyph glyph-name="percent.tosf" horiz-adv-x="1742" 
d="M1294 492q-72 0 -118 -48t-46 -125q0 -75 46 -123t118 -48t118 48t46 124t-46 124t-118 48zM1294 651q140 0 238 -96q98 -95 98 -235t-98 -236t-238 -96t-237 96q-98 96 -99 235q0 139 98 235t238 97zM1325 1460l119 -88l-1018 -1399l-121 88zM449 1286q-72 0 -118 -48
t-46 -124t46 -124t118 -48q71 0 117 48t46 124t-46 124t-117 48zM449 1446q139 0 237 -96t98 -236t-98 -235q-98 -97 -237 -97t-237 96t-99 236q0 139 98 236q99 96 238 96z" />
    <glyph glyph-name="perthousand.tosf" horiz-adv-x="2537" 
d="M2089 492q-72 0 -118 -48t-46 -125q0 -75 46 -123t118 -48t118 48t46 124t-46 124t-118 48zM2089 651q139 0 237 -96q98 -95 99 -235q0 -140 -98 -236q-97 -96 -237 -96t-239 96q-98 96 -98 235t98 236q99 96 238 96zM1294 492q-72 0 -118 -48t-46 -125q0 -75 46 -123
t118 -48t118 48t46 124t-46 124t-118 48zM1294 651q140 0 238 -96q98 -95 98 -235t-98 -236t-238 -96t-237 96q-98 96 -99 235q0 139 98 235t238 97zM1325 1460l119 -88l-1018 -1399l-121 88zM449 1286q-72 0 -118 -48t-46 -124t46 -124t118 -48q71 0 117 48t46 124t-46 124
t-117 48zM449 1446q139 0 237 -96t98 -236t-98 -235q-98 -97 -237 -97t-237 96t-99 236q0 139 98 236q99 96 238 96z" />
    <glyph glyph-name="germandbls.cap" horiz-adv-x="2494" 
d="M643 1264q-106 0 -173 -50t-67 -140q0 -91 121 -147q49 -23 144 -57q94 -33 142 -52t116 -58t106 -81t66 -110t28 -165t-47 -186q-81 -154 -289 -217q-87 -26 -176 -26q-303 0 -526 222l154 145q96 -96 180 -134t196 -38t194 58q81 58 81 173q0 143 -214 225
q-33 12 -107 38q-280 97 -355 246q-33 67 -33 151q0 193 126 295t313 102q254 0 452 -153l-133 -158q-129 117 -299 117zM1890 1264q-106 0 -173 -50t-67 -124q0 -75 55 -123q34 -32 98 -56q65 -24 135 -49t119 -44q48 -19 116 -58q67 -39 105 -81t67 -110t29 -165t-47 -186
t-125 -140q-158 -103 -340 -103q-303 0 -527 222l154 145q96 -96 180 -134t197 -38q114 0 194 58t80 175t-133 185q-65 35 -164 68q-302 103 -379 254q-33 67 -32 151q0 193 126 295t312 102q252 0 452 -153l-133 -158q-129 117 -299 117z" />
    <glyph glyph-name="idotaccent" horiz-adv-x="538" 
d="M375 1225h-211v219h211v-219zM375 0h-211v1036h211v-1036z" />
    <glyph glyph-name="s_p" horiz-adv-x="2228" 
d="M1599 166q158 0 245 106t87 248t-90 246t-237 104q-86 0 -170 -48t-121 -136v-371q51 -73 129 -111t157 -38zM1102 1036h201l6 -137q53 78 143 120t186 42q216 0 362 -158t146 -381t-144 -385t-352 -162t-337 136v-623h-211v1548zM479 889q-63 0 -102 -34t-39 -79t32 -76
t62 -45q30 -13 89 -37q58 -24 92 -39q218 -96 218 -268q1 -172 -109 -254t-271 -82q-236 0 -373 166l139 121q109 -113 232 -112q75 0 123 36t48 90q1 84 -96 131q-34 15 -102 43t-104 45t-87 54q-96 70 -96 210q1 141 101 221t243 81q197 0 328 -119l-123 -133
q-88 80 -205 80z" />
    <glyph glyph-name="c_t" horiz-adv-x="1746" 
d="M1513 -20q-315 0 -315 380v494h-135v182h135l10 244h201v-244h285v-182h-285v-451q0 -51 3 -105t34 -93t93 -39t120 29l61 -166q-88 -49 -207 -49zM600 -25q-215 0 -367 151q-151 151 -151 385t156 392t383 158q174 0 311 -98l-103 -166q-95 73 -219 73t-218 -103
t-95 -253q0 -150 95 -249q94 -99 222 -99t222 74l106 -156q-127 -109 -342 -109z" />
    <glyph glyph-name="c_h" horiz-adv-x="2238" 
d="M1366 1536v-659q57 88 145 136t187 48q197 0 292 -129t95 -393v-539h-211v520q0 193 -49 272t-170 78q-82 0 -160 -50t-129 -134v-686h-211v1536h211zM600 -25q-215 0 -367 151q-151 151 -151 385t156 392t383 158q174 0 311 -98l-103 -166q-95 73 -219 73t-218 -103
t-95 -253q0 -150 95 -249q94 -99 222 -99t222 74l106 -156q-127 -109 -342 -109z" />
    <glyph glyph-name="c_k" horiz-adv-x="2064" 
d="M1366 1536v-995l4 -2l399 497h254l-366 -426l397 -610h-254l-282 446l-152 -176v-270h-211v1536h211zM600 -25q-215 0 -367 151q-151 151 -151 385t156 392t383 158q174 0 311 -98l-103 -166q-95 73 -219 73t-218 -103t-95 -253q0 -150 95 -249q94 -99 222 -99t222 74
l106 -156q-127 -109 -342 -109z" />
    <glyph glyph-name="T_h" horiz-adv-x="2166" 
d="M1294 1536v-659q58 88 146 136t186 48q197 0 292 -129t95 -393v-539h-211v520q0 193 -49 272t-170 78q-82 0 -160 -50t-129 -134v-686h-211v1536h211zM967 1241h-357v-1241h-219v1241h-356v193h932v-193z" />
    <glyph glyph-name="a.sup" horiz-adv-x="700" 
d="M219 945q1 -95 115 -93q54 0 121 57v121q-43 10 -95 10t-97 -23q-44 -24 -44 -72zM614 752h-139l-10 57q-61 -72 -167 -72t-171 51q-66 51 -66 153t81 151t171 49t142 -13v15q0 131 -131 131q-90 0 -193 -57l-43 116q127 66 261 66t200 -70t65 -196v-381z" />
    <glyph glyph-name="b.sup" horiz-adv-x="790" 
d="M408 1262q-106 0 -154 -93v-221q54 -74 144 -74t136 58t46 138t-47 136t-125 56zM743 1070q0 -136 -85 -234t-214 -99q-129 0 -200 86l-6 -71h-144v921h160v-362q68 88 194 88t210 -96q85 -97 85 -233z" />
    <glyph glyph-name="c.sup" horiz-adv-x="610" 
d="M369 737q-137 0 -230 91q-92 92 -92 236t94 240q93 96 223 95q130 0 224 -72l-84 -115q-53 50 -124 50t-120 -56t-49 -140q0 -83 48 -137t119 -54t128 47l84 -109q-84 -76 -221 -76z" />
    <glyph glyph-name="d.sup" horiz-adv-x="790" 
d="M381 874q106 0 156 93v221q-59 74 -147 74t-134 -58q-45 -58 -45 -138t47 -136t123 -56zM350 737q-134 1 -218 97q-85 96 -85 232t85 234t209 98t196 -77v352h159v-921h-145l-8 79q-59 -94 -193 -94z" />
    <glyph glyph-name="e.sup" horiz-adv-x="716" 
d="M371 1274q-121 0 -154 -135h289q-4 59 -42 97t-93 38zM367 737q-143 0 -232 91q-88 90 -88 234t92 240q93 96 225 97q132 0 219 -84t87 -209q0 -29 -8 -78h-453q8 -72 53 -117t115 -45q111 0 170 92l106 -69q-102 -152 -286 -152z" />
    <glyph glyph-name="f.sup" horiz-adv-x="452" 
d="M358 1552q-47 0 -62 -26t-15 -82v-62h159v-129h-159v-501h-160v501h-70v129h70v72q0 115 51 174q51 60 148 60t169 -33l-45 -123q-39 20 -86 20z" />
    <glyph glyph-name="g.sup" horiz-adv-x="782" 
d="M390 1262q-88 0 -134 -56q-45 -56 -45 -133q0 -78 46 -131t122 -53q109 0 158 92v207q-59 74 -147 74zM696 1382v-602q0 -158 -91 -234t-241 -75q-150 0 -280 86l59 131q109 -82 228 -82q73 0 119 40t47 120v70q-68 -84 -194 -84t-211 94t-85 227t85 229t211 97
q126 0 200 -86l8 69h145z" />
    <glyph glyph-name="h.sup" horiz-adv-x="763" 
d="M254 752h-160v921h160v-373q74 98 192 98q230 1 230 -311v-335h-160v327q0 57 -4 90t-31 63t-75 30q-92 0 -152 -93v-417z" />
    <glyph glyph-name="i.sup" horiz-adv-x="348" 
d="M254 1485h-160v141h160v-141zM254 752h-160v630h160v-630z" />
    <glyph glyph-name="j.sup" horiz-adv-x="376" 
d="M283 1485h-160v141h160v-141zM123 715v667h160v-682q1 -113 -49 -170t-162 -57q-65 0 -135 27l45 125q33 -16 61 -17q80 0 80 107z" />
    <glyph glyph-name="k.sup" horiz-adv-x="675" 
d="M254 1673v-557h2l213 266h186l-225 -260l242 -370h-195l-155 245l-68 -82v-163h-160v921h160z" />
    <glyph glyph-name="l.sup" horiz-adv-x="348" 
d="M254 1673v-921h-160v921h160z" />
    <glyph glyph-name="m.sup" horiz-adv-x="1142" 
d="M254 752h-160v630h144l8 -82q78 98 196 98t174 -106q82 106 213 107q227 0 228 -314v-333h-160v321q0 143 -48 173q-24 15 -63 16q-76 0 -137 -78q6 -43 6 -99v-333h-159v321q0 143 -46 173q-24 15 -61 16q-72 0 -135 -78v-432z" />
    <glyph glyph-name="n.sup" horiz-adv-x="763" 
d="M254 752h-160v630h144l8 -92q78 109 198 109q232 0 232 -312v-335h-160v327q0 57 -4 90t-31 63t-75 30q-92 0 -152 -93v-417z" />
    <glyph glyph-name="o.sup" horiz-adv-x="753" 
d="M543 1068q0 81 -46 137q-46 57 -120 57t-120 -56t-46 -138q0 -81 46 -137q46 -57 120 -57t120 56t46 138zM377 1399q143 0 236 -95q93 -96 93 -236t-92 -235q-94 -95 -237 -95t-237 94q-94 96 -93 236q0 140 93 236q94 95 237 95z" />
    <glyph glyph-name="p.sup" horiz-adv-x="790" 
d="M410 1262q-104 0 -156 -93v-221q54 -74 144 -74t136 58t46 137q0 81 -47 137t-123 56zM440 1399q131 0 217 -96q86 -97 86 -233t-85 -234t-208 -98t-196 75v-364h-160v933h144l10 -77q61 94 192 94z" />
    <glyph glyph-name="q.sup" horiz-adv-x="790" 
d="M381 874q106 0 156 93v221q-59 74 -147 74t-134 -60q-45 -60 -45 -137q0 -79 46 -135t124 -56zM341 737q-126 1 -210 97t-84 232t85 234t212 99q127 0 199 -84l8 67h145v-933h-159v374q-70 -86 -196 -86z" />
    <glyph glyph-name="r.sup" horiz-adv-x="471" 
d="M254 752h-160v630h144l8 -86q59 102 151 103q35 0 82 -15l-37 -143q-25 16 -61 16q-80 0 -127 -83v-422z" />
    <glyph glyph-name="s.sup" horiz-adv-x="591" 
d="M311 1274q-31 0 -50 -16t-19 -41q0 -43 120 -89q168 -65 168 -188q0 -100 -69 -152q-70 -51 -170 -51q-147 0 -246 107l94 92q74 -74 148 -74q37 0 61 18t25 47q0 30 -29 49q-29 20 -76 38q-80 32 -130 71q-50 40 -50 125q0 86 65 138t174 51q109 0 195 -80l-86 -96
q-55 51 -125 51z" />
    <glyph glyph-name="t.sup" horiz-adv-x="475" 
d="M313 737q-201 0 -200 236v280h-78v129h80l18 146h139v-146h164v-129h-164v-256q0 -97 27 -114q14 -10 41 -10t68 18l47 -117q-61 -37 -142 -37z" />
    <glyph glyph-name="u.sup" horiz-adv-x="763" 
d="M508 1382h160v-630h-144l-8 92q-78 -109 -198 -109t-177 80q-55 80 -55 232v335h160v-327q0 -57 4 -90t31 -63t75 -30q92 0 152 93v417z" />
    <glyph glyph-name="v.sup" horiz-adv-x="641" 
d="M319 969h3l137 413h176l-254 -630h-135l-238 630h176z" />
    <glyph glyph-name="w.sup" horiz-adv-x="931" 
d="M467 1145h-2l-111 -393h-174l-172 630h172l99 -411h2l112 411h150l106 -411h4l105 411h166l-183 -630h-168z" />
    <glyph glyph-name="x.sup" horiz-adv-x="694" 
d="M27 1382h200l131 -190l131 190h197l-237 -311l233 -319h-201l-137 200l-137 -200h-199l246 319z" />
    <glyph glyph-name="y.sup" horiz-adv-x="636" 
d="M315 983h4l136 399h174l-353 -911l-143 53l98 262l-223 596h174z" />
    <glyph glyph-name="z.sup" horiz-adv-x="587" 
d="M53 1253v129h473v-67l-254 -434h275v-129h-481v71l251 430h-264z" />
    <glyph glyph-name="minusinferior" horiz-adv-x="698" 
d="M59 86h580v-133h-580v133z" />
    <glyph glyph-name="plusinferior" horiz-adv-x="688" 
d="M276 -289v242h-239v133h239v242h134v-242h241v-133h-241v-242h-134z" />
    <glyph glyph-name="equalinferior" horiz-adv-x="698" 
d="M59 -29h580v-133h-580v133zM59 199h580v-129h-580v129z" />
    <glyph glyph-name="a.sinf" horiz-adv-x="700" 
d="M219 -171q1 -95 115 -93q54 0 121 57v121q-43 10 -95 10t-97 -23q-44 -24 -44 -72zM614 -365h-139l-10 58q-61 -72 -167 -72t-171 51q-66 51 -66 153q0 103 81 151t171 48t142 -12v15q0 131 -131 131q-90 0 -193 -58l-43 117q127 66 261 66t200 -70t65 -197v-381z" />
    <glyph glyph-name="b.sinf" horiz-adv-x="790" 
d="M408 145q-106 0 -154 -92v-221q54 -74 144 -74t136 58t46 138q0 79 -47 135t-125 56zM448 283q126 -1 210 -97q85 -96 85 -232t-85 -234t-214 -99q-129 0 -200 86l-6 -72h-144v922h160v-362q68 88 194 88z" />
    <glyph glyph-name="c.sinf" horiz-adv-x="610" 
d="M369 -379q-137 0 -230 91q-92 92 -92 236t94 239q93 95 223 95t224 -71l-84 -115q-53 49 -124 49t-120 -56t-49 -139t48 -137q48 -55 119 -55t128 47l84 -108q-84 -76 -221 -76z" />
    <glyph glyph-name="d.sinf" horiz-adv-x="790" 
d="M381 -242q106 0 156 92v222q-59 74 -147 74t-134 -59q-45 -58 -45 -137q0 -80 47 -136t123 -56zM350 -379q-134 0 -218 96q-85 97 -85 233t85 234t209 98t196 -77v352h159v-922h-145l-8 80q-59 -94 -193 -94z" />
    <glyph glyph-name="e.sinf" horiz-adv-x="716" 
d="M371 158q-121 0 -154 -135h289q-4 59 -42 97t-93 38zM367 -379q-143 0 -232 91q-88 90 -88 234t92 240q93 96 225 96t219 -83q87 -84 87 -209q0 -29 -8 -78h-453q8 -72 53 -117t115 -45q111 0 170 92l106 -69q-102 -152 -286 -152z" />
    <glyph glyph-name="f.sinf" horiz-adv-x="452" 
d="M358 436q-47 0 -62 -26t-15 -82v-62h159v-129h-159v-502h-160v502h-70v129h70v72q0 115 51 174t168 59q77 1 149 -32l-45 -123q-39 20 -86 20z" />
    <glyph glyph-name="g.sinf" horiz-adv-x="782" 
d="M211 -43q0 -78 46 -131t122 -53q109 0 158 92v207q-59 74 -147 74t-134 -56q-45 -55 -45 -133zM696 266v-602q0 -158 -91 -234t-241 -75q-150 0 -280 86l59 131q109 -82 228 -82q73 0 119 40t47 120v69q-68 -84 -194 -84q-126 1 -211 95t-85 227t85 229t211 96t200 -85
l8 69h145z" />
    <glyph glyph-name="h.sinf" horiz-adv-x="763" 
d="M254 -365h-160v922h160v-373q74 98 192 98q230 1 230 -311v-336h-160v328q0 57 -4 90t-31 63t-75 29q-92 0 -152 -92v-418z" />
    <glyph glyph-name="i.sinf" horiz-adv-x="348" 
d="M254 369h-160v141h160v-141zM254 -365h-160v631h160v-631z" />
    <glyph glyph-name="j.sinf" horiz-adv-x="376" 
d="M283 369h-160v141h160v-141zM43 -508q80 0 80 107v667h160v-682q1 -113 -49 -170t-162 -57q-65 0 -135 27l45 124q33 -16 61 -16z" />
    <glyph glyph-name="k.sinf" horiz-adv-x="675" 
d="M254 557v-557h2l213 266h186l-225 -260l242 -371h-195l-155 246l-68 -82v-164h-160v922h160z" />
    <glyph glyph-name="l.sinf" horiz-adv-x="348" 
d="M254 557v-922h-160v922h160z" />
    <glyph glyph-name="m.sinf" horiz-adv-x="1142" 
d="M254 -365h-160v631h144l8 -82q78 98 196 98t174 -106q82 106 213 107q227 0 228 -314v-334h-160v322q0 143 -48 173q-24 15 -63 15q-76 0 -137 -77q6 -43 6 -99v-334h-159v322q0 143 -46 173q-24 15 -61 15q-72 0 -135 -77v-433z" />
    <glyph glyph-name="n.sinf" horiz-adv-x="763" 
d="M254 -365h-160v631h144l8 -92q78 109 198 109q232 0 232 -312v-336h-160v328q0 57 -4 90t-31 63t-75 29q-92 0 -152 -92v-418z" />
    <glyph glyph-name="o.sinf" horiz-adv-x="753" 
d="M543 -48q0 81 -46 137t-120 56t-120 -56t-46 -137t46 -137q46 -57 120 -57t120 56t46 138zM377 283q143 1 236 -95t93 -236t-92 -236q-94 -96 -237 -95q-143 0 -237 95q-93 96 -93 236q-1 140 93 236t237 95z" />
    <glyph glyph-name="p.sinf" horiz-adv-x="790" 
d="M410 145q-104 0 -156 -92v-221q54 -74 144 -74t136 58t46 137q0 80 -47 136t-123 56zM743 -46q0 -136 -85 -234t-208 -99q-123 0 -196 76v-365h-160v934h144l10 -78q61 94 192 94t217 -96t86 -232z" />
    <glyph glyph-name="q.sinf" horiz-adv-x="790" 
d="M381 -242q106 0 156 92v222q-59 74 -147 74t-134 -60q-45 -59 -45 -137q0 -79 46 -135t124 -56zM47 -50q0 136 85 234t212 99q127 0 199 -84l8 67h145v-934h-159v375q-70 -86 -196 -86t-210 96q-84 97 -84 233z" />
    <glyph glyph-name="r.sinf" horiz-adv-x="471" 
d="M254 -365h-160v631h144l8 -86q59 102 151 103q35 0 82 -15l-37 -143q-25 16 -61 16q-80 0 -127 -84v-422z" />
    <glyph glyph-name="s.sinf" horiz-adv-x="591" 
d="M242 100q0 -43 120 -89q168 -65 168 -187q0 -100 -69 -152q-70 -51 -170 -51q-147 0 -246 107l94 92q74 -74 148 -74q37 0 61 17t25 47q0 30 -29 50t-76 38q-46 18 -70 30q-110 56 -110 154t65 149t174 51t195 -79l-86 -97q-55 51 -125 52q-31 0 -50 -16t-19 -42z" />
    <glyph glyph-name="t.sinf" horiz-adv-x="475" 
d="M313 -379q-201 0 -200 236v280h-78v129h80l18 146h139v-146h164v-129h-164v-256q0 -97 27 -114q14 -10 41 -10t68 18l47 -117q-61 -37 -142 -37z" />
    <glyph glyph-name="u.sinf" horiz-adv-x="763" 
d="M508 266h160v-631h-144l-8 93q-78 -109 -198 -109q-232 0 -232 311v336h160v-327q0 -57 4 -91t31 -62q27 -30 75 -30q92 0 152 92v418z" />
    <glyph glyph-name="v.sinf" horiz-adv-x="641" 
d="M319 -147h3l137 413h176l-254 -631h-135l-238 631h176z" />
    <glyph glyph-name="w.sinf" horiz-adv-x="931" 
d="M467 29h-2l-111 -394h-174l-172 631h172l99 -411h2l112 411h150l106 -411h4l105 411h166l-183 -631h-168z" />
    <glyph glyph-name="x.sinf" horiz-adv-x="694" 
d="M27 266h200l131 -190l131 190h197l-237 -311l233 -320h-201l-137 201l-137 -201h-199l246 320z" />
    <glyph glyph-name="y.sinf" horiz-adv-x="636" 
d="M315 -133h4l136 399h174l-353 -911l-143 53l98 262l-223 596h174z" />
    <glyph glyph-name="z.sinf" horiz-adv-x="587" 
d="M53 137v129h473v-67l-254 -435h275v-129h-481v72l251 430h-264z" />
    <glyph glyph-name="zero.num" horiz-adv-x="655" 
d="M606 1066q0 -179 -72 -281q-73 -101 -205 -101t-206 101t-74 281t74 280q74 102 206 102t205 -101q72 -102 72 -281zM329 1315q-120 0 -120 -249t120 -249t120 249t-120 249z" />
    <glyph glyph-name="one.num" horiz-adv-x="473" 
d="M356 1434v-742h-155v568q-70 -33 -111 -50v142q36 18 160 82h106z" />
    <glyph glyph-name="two.num" horiz-adv-x="622" 
d="M391 1230q0 87 -88 89q-39 0 -63 -28t-25 -74l-154 26q6 93 78 149t170 56t170 -56t72 -148t-78 -204q-74 -98 -188 -213h295v-131h-504v117q154 150 258 291q57 78 57 126z" />
    <glyph glyph-name="three.num" horiz-adv-x="628" 
d="M201 1137q168 0 168 98q0 37 -26 61t-73 23q-76 0 -94 -76l-129 57q25 70 86 109t152 39t165 -54t74 -145q0 -45 -26 -89t-66 -66q57 -23 92 -72t35 -113q0 -105 -78 -165t-175 -60q-202 0 -271 150l129 59q35 -80 127 -80q47 0 79 26q32 25 32 73t-40 75q-38 27 -88 27
t-73 -6v129z" />
    <glyph glyph-name="four.num" horiz-adv-x="643" 
d="M362 1001v236q-10 -13 -72 -109t-87 -127h159zM516 1434v-433h102v-127h-102v-178h-154v178h-319v136q162 211 313 424h160z" />
    <glyph glyph-name="five.num" horiz-adv-x="614" 
d="M522 1305h-268q-2 -61 -10 -160q35 20 94 20q92 0 156 -66q63 -67 63 -169t-76 -174t-186 -72q-178 0 -254 143l129 62q33 -76 117 -76q51 0 82 34t31 82t-32 79q-32 30 -87 30t-91 -45l-102 68q16 170 25 373h409v-129z" />
    <glyph glyph-name="six.num" horiz-adv-x="645" 
d="M330 811q51 0 81 35q29 35 29 87t-31 84q-32 32 -81 32q-82 0 -121 -68q0 -170 123 -170zM375 1171q89 1 155 -67t66 -172t-72 -176t-194 -72t-201 87q-80 87 -80 214q-1 174 109 302t282 194l56 -123q-207 -84 -265 -232q55 45 144 45z" />
    <glyph glyph-name="seven.num" horiz-adv-x="542" 
d="M12 1303v131h506v-97q-160 -322 -305 -675l-143 65q68 158 274 576h-332z" />
    <glyph glyph-name="eight.num" horiz-adv-x="679" 
d="M231 911q0 -43 31 -73t78 -29q47 0 78 30q31 31 31 73t-31 73t-78 31t-78 -31t-31 -74zM246 1234q0 -38 28 -65t66 -27q39 0 67 28q27 26 27 64t-28 64t-67 25q-41 1 -67 -25t-26 -64zM606 903q0 -93 -77 -157t-191 -64t-188 62q-76 62 -76 170t110 169q-90 59 -90 153
t69 152q69 60 177 60t178 -59q68 -59 68 -153t-90 -153q110 -59 110 -180z" />
    <glyph glyph-name="nine.num" horiz-adv-x="645" 
d="M315 1321q-51 0 -81 -35t-30 -87t33 -84q32 -32 80 -32q82 0 121 68q0 170 -123 170zM270 961q-89 -1 -155 67t-66 172t72 176q71 72 193 72t202 -87t80 -214q0 -174 -110 -302t-281 -194l-55 123q207 84 264 232q-55 -45 -144 -45z" />
    <glyph glyph-name="parenleft.ordn" horiz-adv-x="509" 
d="M229 1204q0 -364 279 -540l-62 -113q-378 233 -378 656t376 655l66 -113q-281 -181 -281 -545z" />
    <glyph glyph-name="parenright.ordn" horiz-adv-x="509" 
d="M281 1206q0 362 -281 543l66 113q376 -232 376 -656t-381 -655l-59 113q279 180 279 542z" />
    <glyph glyph-name="hyphen.ordn" horiz-adv-x="630" 
d="M496 1110h-361v137h361v-137z" />
    <glyph glyph-name="comma.ordn" horiz-adv-x="374" 
d="M276 973l-94 -359h-153l71 359h176z" />
    <glyph glyph-name="period.ordn" horiz-adv-x="372" 
d="M276 791h-180v182h180v-182z" />
    <glyph glyph-name="minus.ordn" horiz-adv-x="782" 
d="M74 1286h633v-139h-633v139z" />
    <glyph glyph-name="plus.ordn" horiz-adv-x="759" 
d="M309 874v273h-270v139h270v270h140v-270h272v-139h-272v-273h-140z" />
    <glyph glyph-name="equal.ordn" horiz-adv-x="782" 
d="M74 1161h633v-137h-633v137zM74 1405h633v-133h-633v133z" />
    <glyph glyph-name="a.ordn" horiz-adv-x="784" 
d="M238 999q0 -102 130 -102q62 0 144 68v135q-61 12 -102 12q-172 0 -172 -113zM362 1368q-106 0 -212 -59l-46 125q143 70 287 69q285 0 285 -295v-417h-146l-8 65q-70 -82 -185 -82t-190 56q-73 56 -73 168t89 166t220 55q55 -1 129 -15v17q-4 147 -150 147z" />
    <glyph glyph-name="b.ordn" horiz-adv-x="886" 
d="M461 1362q-53 0 -103 -28t-77 -81v-249q70 -88 172 -88t155 67q53 68 54 158q0 89 -56 155t-145 66zM117 791v1024h164v-414q76 102 217 102t236 -106q95 -107 95 -255t-95 -258t-236 -110t-224 94l-6 -77h-151z" />
    <glyph glyph-name="c.ordn" horiz-adv-x="673" 
d="M412 774q-148 0 -251 102t-103 259q0 158 104 263q106 105 248 105t235 -76l-80 -118q-59 53 -143 53t-140 -65t-56 -159t56 -158q58 -64 141 -64t142 53l86 -115q-91 -80 -239 -80z" />
    <glyph glyph-name="d.ordn" horiz-adv-x="886" 
d="M434 1362q-102 0 -155 -68t-53 -158t54 -155q56 -66 146 -66q53 0 102 28t78 81v250q-70 88 -172 88zM770 791h-152l-8 90q-74 -107 -218 -107t-239 106t-95 256t94 259q96 109 232 109t222 -91v402h164v-1024z" />
    <glyph glyph-name="e.ordn" horiz-adv-x="794" 
d="M408 1372q-68 0 -114 -44t-61 -114h336q-4 68 -48 113q-45 45 -113 45zM408 774q-160 0 -255 102t-95 258q0 157 100 263q102 106 246 106t239 -92q94 -92 94 -231q0 -37 -8 -82h-504q7 -82 59 -135t134 -54q129 1 190 105l111 -74q-111 -166 -311 -166z" />
    <glyph glyph-name="f.ordn" horiz-adv-x="505" 
d="M394 1692q-52 0 -70 -32t-19 -99v-74h180v-133h-180v-563h-164v563h-78v133h78v86q0 258 238 258q82 0 160 -37l-47 -125q-46 23 -98 23z" />
    <glyph glyph-name="g.ordn" horiz-adv-x="878" 
d="M434 1362q-102 0 -155 -65t-53 -153t54 -150t144 -62q53 0 104 28t78 80v234q-70 88 -172 88zM770 1487v-660q0 -176 -100 -260t-263 -84t-309 95l62 133q119 -86 252 -86q86 0 140 45t54 133v86q-76 -98 -217 -98t-236 103q-95 102 -95 250t94 254q96 106 235 105
q139 0 223 -96l8 80h152z" />
    <glyph glyph-name="h.ordn" horiz-adv-x="862" 
d="M281 791h-164v1024h164v-429q82 117 217 117q256 0 256 -344v-368h-164v356q0 161 -56 198q-28 17 -73 17q-106 0 -180 -111v-460z" />
    <glyph glyph-name="i.ordn" horiz-adv-x="397" 
d="M281 1604h-164v153h164v-153zM281 791h-164v696h164v-696z" />
    <glyph glyph-name="j.ordn" horiz-adv-x="405" 
d="M289 1604h-164v153h164v-153zM42 623q46 1 64 31t19 94v739h164v-754q0 -250 -228 -250q-77 0 -143 31l45 127q33 -18 79 -18z" />
    <glyph glyph-name="k.ordn" horiz-adv-x="745" 
d="M281 1815v-637l247 309h193l-246 -289l264 -407h-198l-174 280l-86 -100v-180h-164v1024h164z" />
    <glyph glyph-name="l.ordn" horiz-adv-x="397" 
d="M281 1815v-1024h-164v1024h164z" />
    <glyph glyph-name="m.ordn" horiz-adv-x="1286" 
d="M281 791h-164v696h151l4 -101q90 117 226 117t194 -127q90 127 236 127q250 0 250 -344v-368h-164v356q0 90 -14 134q-26 79 -115 80q-88 1 -162 -97q6 -33 6 -105v-368h-164v356q0 161 -53 196q-27 18 -70 19q-82 0 -161 -102v-469z" />
    <glyph glyph-name="n.ordn" horiz-adv-x="862" 
d="M279 791h-164v696h151l6 -109q86 125 224 125q256 0 256 -344v-368h-164v356q0 92 -14 136q-26 79 -124 79q-97 0 -171 -111v-460z" />
    <glyph glyph-name="o.ordn" horiz-adv-x="839" 
d="M614 1139q0 95 -54 159t-140 64t-140 -65t-54 -159t54 -158q54 -65 140 -65t140 65t54 159zM421 1503q157 0 259 -104t102 -260t-102 -260q-102 -105 -259 -105t-260 106t-104 259q-1 154 103 259t261 105z" />
    <glyph glyph-name="p.ordn" horiz-adv-x="886" 
d="M461 1362q-53 0 -103 -28t-77 -81v-249q70 -88 172 -88t155 67q53 68 54 158q0 89 -56 155t-145 66zM117 1487h151l6 -90q76 106 220 106t239 -106q96 -105 96 -255t-94 -259t-233 -109t-221 88v-411h-164v1036z" />
    <glyph glyph-name="q.ordn" horiz-adv-x="886" 
d="M434 1362q-102 0 -155 -68t-53 -158t54 -155q56 -66 146 -66q53 0 102 28t78 81v250q-70 88 -172 88zM770 1487v-1036h-164v426q-80 -103 -220 -103t-234 106t-94 256q0 148 94 258q96 110 235 110t225 -95l6 78h152z" />
    <glyph glyph-name="r.ordn" horiz-adv-x="538" 
d="M117 1487h151l6 -107q74 123 175 123q37 0 83 -14l-36 -150q-29 14 -66 15q-92 0 -149 -101v-462h-164v696z" />
    <glyph glyph-name="s.ordn" horiz-adv-x="657" 
d="M342 1374q-38 0 -62 -19t-24 -53t63 -68q21 -10 65 -28q147 -61 179 -131q16 -35 17 -78q0 -111 -76 -167t-185 -56q-160 0 -262 115l99 94q76 -80 163 -80q43 1 73 21t30 51q0 50 -61 80q-22 9 -91 39t-118 75q-50 45 -50 134t70 145t168 55q143 0 229 -86l-88 -98
q-63 55 -139 55z" />
    <glyph glyph-name="t.ordn" horiz-adv-x="507" 
d="M326 774q-215 0 -215 260v320h-84v133h88l16 160h143v-160h185v-133h-185v-293q0 -147 78 -148q41 0 76 23l49 -127q-66 -35 -151 -35z" />
    <glyph glyph-name="u.ordn" horiz-adv-x="862" 
d="M582 1487h163v-696h-151l-6 108q-86 -125 -223 -125q-256 0 -256 344v369h163v-357q0 -162 57 -197q28 -17 72 -18q106 0 181 111v461z" />
    <glyph glyph-name="v.ordn" horiz-adv-x="712" 
d="M702 1487l-276 -696h-154l-262 696h185l163 -498h4l162 498h178z" />
    <glyph glyph-name="w.ordn" horiz-adv-x="1042" 
d="M608 1487l121 -483h4l119 483h174l-205 -696h-174l-125 469h-2l-129 -469h-182l-193 696h177l112 -483h4l131 483h168z" />
    <glyph glyph-name="x.ordn" horiz-adv-x="747" 
d="M737 791h-209l-155 237l-158 -237h-205l262 350l-245 346h209l151 -225l148 225h202l-254 -340z" />
    <glyph glyph-name="y.ordn" horiz-adv-x="708" 
d="M696 1487l-389 -1016l-145 55l104 281l-256 680h183l159 -486h4l164 486h176z" />
    <glyph glyph-name="z.ordn" horiz-adv-x="655" 
d="M68 1354v133h514v-72l-289 -491h311v-133h-522v75l283 488h-297z" />
    <glyph glyph-name="zero.denom" horiz-adv-x="655" 
d="M606 368q0 -179 -72 -281q-73 -101 -205 -101t-206 101t-74 281t74 280q74 102 206 102q133 0 205 -102t72 -280zM329 616q-120 0 -120 -248t120 -249q120 1 120 249t-120 248z" />
    <glyph glyph-name="one.denom" horiz-adv-x="473" 
d="M356 741v-741h-155v567q-70 -33 -111 -49v141q36 18 160 82h106z" />
    <glyph glyph-name="two.denom" horiz-adv-x="622" 
d="M391 534q0 87 -88 89q-39 0 -63 -28t-25 -75l-154 27q6 92 78 148q72 57 170 57t170 -56t72 -149q0 -92 -78 -203q-74 -98 -188 -213h295v-131h-504v117q154 150 258 291q57 78 57 126z" />
    <glyph glyph-name="three.denom" horiz-adv-x="628" 
d="M201 438q168 0 168 99q0 37 -26 61t-73 23q-76 0 -94 -76l-129 57q25 70 86 109t152 39t165 -54t74 -145q0 -45 -26 -89t-66 -67q57 -23 92 -71t35 -113q0 -105 -78 -165t-175 -60q-202 0 -271 149l129 60q35 -80 127 -80q47 -1 79 25t32 74t-40 75q-38 27 -88 27t-73 -7
v129z" />
    <glyph glyph-name="four.denom" horiz-adv-x="643" 
d="M362 305v236q-10 -13 -72 -109t-87 -127h159zM516 737v-432h102v-127h-102v-178h-154v178h-319v135q162 209 313 424h160z" />
    <glyph glyph-name="five.denom" horiz-adv-x="614" 
d="M522 606h-268q-2 -61 -10 -160q34 20 110 20t140 -66q64 -67 63 -168q0 -101 -76 -174t-186 -72q-178 0 -254 143l129 61q33 -76 117 -75q51 -1 82 33t31 82t-32 79t-87 31t-91 -45l-102 67q16 170 25 373h409v-129z" />
    <glyph glyph-name="six.denom" horiz-adv-x="645" 
d="M330 113q51 1 81 35q29 34 29 86t-31 84q-32 32 -81 32q-82 1 -121 -67q0 -170 123 -170zM375 473q89 1 155 -67t66 -172t-72 -177q-72 -71 -194 -71t-201 87q-80 87 -80 214q-1 173 109 301t282 194l56 -123q-207 -84 -265 -231q55 45 144 45z" />
    <glyph glyph-name="seven.denom" horiz-adv-x="542" 
d="M12 604v131h506v-96q-160 -322 -305 -676l-143 66q68 158 274 575h-332z" />
    <glyph glyph-name="eight.denom" horiz-adv-x="679" 
d="M231 213q0 -43 31 -73t78 -30t78 30t31 73t-31 74t-78 31t-78 -32q-31 -30 -31 -73zM339 625q-41 1 -67 -25t-26 -64t28 -65t66 -27q39 0 67 27q27 27 27 65t-28 64t-67 25zM606 205q0 -93 -77 -157t-191 -64t-188 62q-76 62 -76 170t110 169q-90 59 -90 153t69 152
q69 60 177 60t178 -60q68 -60 68 -152q0 -93 -90 -153q110 -59 110 -180z" />
    <glyph glyph-name="nine.denom" horiz-adv-x="645" 
d="M315 623q-51 0 -81 -35t-30 -87t33 -84q32 -32 80 -32q82 0 121 68q0 170 -123 170zM270 262q-89 0 -155 68t-66 172t72 176q71 72 193 72t202 -87t80 -214q0 -174 -110 -302t-281 -194l-55 123q207 84 264 231q-55 -45 -144 -45z" />
    <glyph glyph-name="onefifth" horiz-adv-x="1622" 
d="M467 1434v-742h-156v568q-70 -33 -110 -50v142q4 2 159 82h107zM1423 604h-268q0 -8 -12 -158q43 20 96 21q91 0 155 -67t64 -169t-76 -174t-186 -71q-180 0 -254 141l129 63q31 -78 117 -77q51 -1 81 33q29 34 29 83t-30 80q-31 31 -85 31t-93 -45l-101 65
q16 174 25 375h409v-131zM1190 1460l121 -88l-1020 -1399l-121 88z" />
    <glyph glyph-name="twofifths" horiz-adv-x="1808" 
d="M412 1448q98 0 170 -56t72 -148t-79 -204q-74 -98 -188 -213h295v-131h-504v117q154 150 258 291q58 78 58 126q1 87 -88 89q-39 0 -64 -28t-25 -74l-153 26q6 93 78 149t170 56zM1610 604h-269q0 -8 -12 -158q43 20 96 21q91 0 155 -67t64 -169t-75 -174
q-76 -72 -187 -71q-180 0 -254 141l129 63q31 -78 117 -77q51 -1 81 33t30 83t-31 80t-85 31t-93 -45l-100 65q16 174 24 375h410v-131zM1376 1460l121 -88l-1020 -1399l-121 88z" />
    <glyph glyph-name="threefifths" horiz-adv-x="1765" 
d="M328 1137q168 0 168 98q0 37 -26 61t-73 23q-76 0 -94 -76l-129 57q25 70 86 109t152 39q92 0 166 -54t73 -145q1 -45 -25 -89t-67 -66q57 -23 92 -72t35 -113q0 -105 -78 -165t-175 -60q-202 0 -271 150l129 59q35 -80 127 -80q47 0 79 26q31 25 31 73t-39 75t-89 27
t-72 -6v129zM1567 604h-269q0 -8 -12 -158q41 20 96 21q92 0 156 -67t64 -169t-76 -174t-187 -71q-180 0 -254 141l127 63q33 -78 119 -77q51 -1 81 33t30 83t-31 80t-85 31t-93 -45l-100 65q16 174 24 375h410v-131zM1331 1460l121 -88l-1018 -1399l-121 88z" />
    <glyph glyph-name="fourfifths" horiz-adv-x="1853" 
d="M483 1001v236q-10 -13 -72 -109t-87 -127h159zM637 1434v-433h102v-127h-102v-178h-154v178h-319v136q162 211 313 424h160zM1655 604h-269q0 -8 -12 -158q41 20 96 21q92 0 156 -67t64 -169t-76 -174t-187 -71q-180 0 -253 141l126 63q33 -78 119 -77q51 -1 81 33t30 83
t-31 80t-85 31t-93 -45l-100 65q16 174 24 375h410v-131zM1421 1460l119 -88l-1018 -1399l-121 88z" />
    <glyph glyph-name="onesixth" horiz-adv-x="1570" 
d="M1141 113q51 1 81 35t30 86t-32 84t-81 32q-82 1 -121 -67q0 -170 123 -170zM1186 473q90 1 156 -67t65 -172q0 -104 -72 -177q-71 -71 -193 -71t-202 87t-80 214q0 173 110 301t281 194l56 -123q-207 -84 -265 -231q54 45 144 45zM467 1434v-742h-156v568
q-70 -33 -110 -50v142q4 2 159 82h107zM1190 1460l121 -88l-1020 -1399l-121 88z" />
    <glyph glyph-name="fivesixths" horiz-adv-x="1687" 
d="M1257 113q51 1 81 35t30 86t-32 84t-81 32q-81 1 -120 -67q0 -170 122 -170zM1303 473q89 1 155 -67t66 -172t-72 -177q-72 -71 -194 -71t-201 87q-80 87 -80 214q0 174 109 302q110 127 282 193l55 -123q-207 -84 -264 -231q55 45 144 45zM645 1305h-268q0 -12 -12 -160
q39 20 96 20q92 -1 155 -67q64 -66 64 -168t-76 -174t-186 -72q-178 0 -254 143l129 62q31 -76 117 -76q50 0 80 34t30 82t-31 79q-31 30 -85 30t-93 -45l-100 68q16 170 25 373h409v-129zM1307 1460l120 -88l-1017 -1399l-121 88z" />
    <glyph glyph-name="oneseventh" horiz-adv-x="1660" 
d="M467 1434v-742h-156v568q-70 -33 -110 -50v142q4 2 159 82h107zM991 604v131h506v-96q-150 -303 -305 -676l-141 64q100 236 274 577h-334zM1190 1460l121 -88l-1020 -1399l-121 88z" />
    <glyph glyph-name="twosevenths" horiz-adv-x="1847" 
d="M1178 604v131h505v-96q-150 -303 -305 -676l-141 64q100 236 274 577h-333zM412 1448q98 0 170 -56t72 -148t-79 -204q-74 -98 -188 -213h295v-131h-504v117q154 150 258 291q58 78 58 126q1 87 -88 89q-39 0 -64 -28t-25 -74l-153 26q6 93 78 149t170 56zM1376 1460
l121 -88l-1020 -1399l-121 88z" />
    <glyph glyph-name="threesevenths" horiz-adv-x="1804" 
d="M328 1137q168 0 168 98q0 37 -26 61t-73 23q-76 0 -94 -76l-129 57q25 70 86 109t152 39q92 0 166 -54t73 -145q1 -45 -25 -89t-67 -66q57 -23 92 -72t35 -113q0 -105 -78 -165t-175 -60q-202 0 -271 150l129 59q35 -80 127 -80q47 0 79 26q31 25 31 73t-39 75t-89 27
t-72 -6v129zM1135 604v131h505v-96q-150 -303 -305 -676l-143 64q76 174 274 577h-331zM1331 1460l121 -88l-1018 -1399l-121 88z" />
    <glyph glyph-name="foursevenths" horiz-adv-x="1892" 
d="M1223 604v131h506v-96q-150 -303 -306 -676l-143 64q76 174 274 577h-331zM483 1001v236q-10 -13 -72 -109t-87 -127h159zM637 1434v-433h102v-127h-102v-178h-154v178h-319v136q162 211 313 424h160zM1421 1460l119 -88l-1018 -1399l-121 88z" />
    <glyph glyph-name="fivesevenths" horiz-adv-x="1779" 
d="M1110 604v131h506v-96q-150 -303 -305 -676l-144 64q115 264 275 577h-332zM645 1305h-268q0 -12 -12 -160q39 20 96 20q92 -1 155 -67q64 -66 64 -168t-76 -174t-186 -72q-178 0 -254 143l129 62q31 -76 117 -76q50 0 80 34t30 82t-31 79q-31 30 -85 30t-93 -45l-100 68
q16 170 25 373h409v-129zM1307 1460l120 -88l-1017 -1399l-121 88z" />
    <glyph glyph-name="sixsevenths" horiz-adv-x="1814" 
d="M444 811q51 0 81 35t30 87t-32 84t-81 32q-81 0 -120 -68q0 -170 122 -170zM490 1171q89 1 155 -67t66 -172t-72 -176q-71 -72 -193 -72t-202 87t-80 214q0 174 109 302q110 128 282 194l55 -123q-207 -84 -264 -232q55 45 144 45zM1145 604v131h506v-96
q-170 -350 -305 -676l-142 64q100 236 275 577h-334zM1343 1460l121 -88l-1020 -1399l-118 88z" />
    <glyph glyph-name="oneninth" horiz-adv-x="1671" 
d="M1227 623q-51 0 -81 -35t-30 -87t32 -84t81 -32q82 0 121 68q0 170 -123 170zM1181 262q-89 0 -155 68t-66 172t72 176t194 72t202 -87t79 -214q0 -174 -109 -303q-110 -127 -282 -193l-55 123q207 84 264 231q-55 -45 -144 -45zM467 1434v-742h-156v568
q-70 -33 -110 -50v142q4 2 159 82h107zM1190 1460l121 -88l-1020 -1399l-121 88z" />
    <glyph glyph-name="twoninths" horiz-adv-x="1740" 
d="M1374 623q-51 0 -81 -35q-29 -35 -29 -87t32 -84t80 -32q82 0 121 68q0 170 -123 170zM1328 262q-90 0 -154 68q-66 68 -66 172t72 176t194 72t201 -87q80 -87 80 -214q1 -174 -109 -302t-282 -194l-56 123q207 84 265 231q-55 -45 -145 -45zM373 1448q98 0 171 -56
q72 -56 72 -146t-79 -206q-74 -98 -189 -213h295v-131h-502v117q154 154 256 291q57 78 57 126q1 87 -87 89q-39 0 -64 -28t-24 -74l-154 26q6 93 78 149t170 56zM1337 1460l121 -88l-1020 -1399l-121 88z" />
    <glyph glyph-name="fourninths" horiz-adv-x="1773" 
d="M1407 623q-51 0 -81 -35t-30 -87t32 -84t81 -32q82 0 121 68q0 170 -123 170zM1361 262q-89 0 -155 68t-66 172t72 176t194 72t202 -87t80 -214q0 -174 -110 -302t-282 -194l-55 123q207 84 264 231q-55 -45 -144 -45zM430 1001v236q-125 -190 -160 -236h160zM584 1434
v-433h104v-127h-104v-178h-154v178h-319v136q98 127 315 424h158zM1368 1460l121 -88l-1020 -1399l-119 88z" />
    <glyph glyph-name="fiveninths" horiz-adv-x="1673" 
d="M1307 623q-51 0 -81 -35t-30 -87t32 -84t81 -32q82 0 121 68q0 170 -123 170zM1261 262q-89 0 -155 68t-66 172t72 176t194 72t201 -87q80 -87 80 -214q0 -174 -109 -303q-110 -127 -282 -193l-55 123q207 84 264 231q-55 -45 -144 -45zM606 1305h-268q0 -12 -12 -160
q39 20 96 20q92 0 156 -66q63 -67 63 -169t-76 -174t-186 -72q-178 0 -254 143l129 62q31 -76 117 -76q51 0 81 34t30 82t-31 79q-31 30 -86 30t-93 -45l-100 68q16 170 25 373h409v-129zM1268 1460l121 -88l-1018 -1399l-121 88z" />
    <glyph glyph-name="sevenninths" horiz-adv-x="1579" 
d="M1212 623q-50 0 -80 -35t-30 -87t32 -84t80 -32q82 0 121 68q0 170 -123 170zM1167 262q-89 0 -155 68t-66 172t72 176t194 72t201 -87q80 -87 80 -214q1 -174 -109 -302t-282 -194l-55 123q207 84 264 231q-55 -45 -144 -45zM166 1303v131h506v-97q-160 -322 -305 -675
l-144 65q68 158 275 576h-332zM1174 1460l120 -88l-1018 -1399l-120 88z" />
    <glyph glyph-name="eightninths" horiz-adv-x="1681" 
d="M1315 623q-51 0 -81 -35t-30 -87t32 -84t81 -32q82 0 121 68q0 170 -123 170zM1269 262q-89 0 -155 68t-66 172t72 176t194 72t202 -87t79 -214q0 -174 -109 -303q-110 -127 -282 -193l-55 123q207 84 264 231q-55 -45 -144 -45zM248 911q0 -43 32 -73t78 -29q46 0 77 30
q32 31 32 73t-32 73t-78 31q-45 0 -77 -31t-32 -74zM451 1234q0 38 -27 64t-67 25q-41 1 -67 -25t-26 -64t27 -65t67 -27t66 28q27 26 27 64zM623 903q0 -93 -76 -157t-190 -64q-113 0 -189 62t-76 170t111 169q-90 57 -90 151t68 155q69 59 176 59t177 -59t68 -153
q0 -94 -90 -153q111 -59 111 -180zM1276 1460l121 -88l-1018 -1399l-121 88z" />
    <glyph glyph-name="commaaccent" horiz-adv-x="737" 
d="M358 -481h-170l74 364h197z" />
    <glyph glyph-name="revcommaaccent" horiz-adv-x="737" 
d="M369 1540h176l-76 -373h-201z" />
    <glyph glyph-name="tilde.cap" horiz-adv-x="737" 
d="M727 1743q0 -91 -58 -145q-59 -54 -143 -54t-178 62t-131 63q-59 0 -63 -57q0 -14 2 -21l-142 -14q-6 25 -6 61q0 90 58 144t143 55q84 0 179 -62q95 -63 126 -63q66 -1 68 57q0 15 -2 21l141 14q6 -25 6 -61z" />
    <glyph glyph-name="ring.cap" horiz-adv-x="737" 
d="M279 1683q1 -37 27 -63t63 -27q37 0 63 27q26 28 27 64q0 36 -27 63q-28 27 -64 27t-62 -27t-27 -64zM168 1683q0 81 59 141t141 60t142 -59q59 -59 59 -141t-59 -142q-59 -59 -141 -59t-142 59q-59 59 -59 141z" />
    <glyph glyph-name="circumflex.cap" horiz-adv-x="737" 
d="M254 1886h227l221 -270l-124 -96l-211 223l-215 -223l-125 96z" />
    <glyph glyph-name="acute.cap" horiz-adv-x="737" 
d="M666 1772l-363 -261l-96 125l340 285z" />
    <glyph glyph-name="grave.cap" horiz-adv-x="737" 
d="M432 1511l-362 261l118 149l340 -285z" />
    <glyph glyph-name="dieresis.cap" horiz-adv-x="737" 
d="M762 1563h-232v233h232v-233zM207 1563h-232v233h232v-233z" />
    <glyph glyph-name="caron.cap" horiz-adv-x="737" 
d="M475 1542h-227l-221 270l129 97l211 -223l215 223l120 -97z" />
    <glyph glyph-name="macron.cap" horiz-adv-x="737" 
d="M715 1583h-692v158h692v-158z" />
    <glyph glyph-name="dotaccent.cap" horiz-adv-x="737" 
d="M483 1563h-229v233h229v-233z" />
    <glyph glyph-name="cedilla.cap" horiz-adv-x="737" 
d="M459 -100q70 0 121 -56t51 -140t-66 -148t-159 -64q-145 0 -218 127l123 59q23 -66 90 -65q37 0 62 26q25 25 25 61t-24 64t-70 29q-46 0 -75 -47l-131 70l97 211l121 -23l-58 -135l4 -2q37 33 107 33z" />
    <glyph glyph-name="hungarumlaut.cap" horiz-adv-x="737" 
d="M905 1763l-350 -252l-96 125l327 277zM459 1772l-363 -261l-96 121l340 285z" />
    <glyph glyph-name="commaaccent.cap" horiz-adv-x="737" 
d="M358 -481h-170l74 364h197z" />
    <glyph glyph-name="breve.cap" horiz-adv-x="737" 
d="M524 1855h148v-14q0 -127 -87 -209t-216 -82t-216 82t-87 209v14h147v-16q0 -63 45 -103t111 -40q67 0 111 40t44 103v16z" />
    <glyph glyph-name="caron.alt" horiz-adv-x="737" 
d="M350 1118h-176l82 418h205z" />
    <glyph glyph-name="ogonek.cap" horiz-adv-x="737" 
d="M504 23v-23q-104 -29 -162 -91t-59 -128q0 -88 90 -88q47 0 92 28l65 -116q-74 -63 -182 -63t-179 54q-71 56 -71 152q1 189 234 275h172z" />
    <glyph glyph-name="square" horiz-adv-x="794" 
d="M123 317v549h549v-549h-549z" />
    <glyph glyph-name="square.open" horiz-adv-x="794" 
d="M283 707v-230h229v230h-229zM123 317v549h549v-549h-549z" />
    <glyph glyph-name="circle.open" horiz-adv-x="749" 
d="M248 592q0 -51 38 -89t89 -38t89 38t38 89t-38 89t-89 38t-89 -38t-38 -89zM72 592q0 125 89 214t214 89t214 -89t89 -214t-89 -214t-214 -89t-214 89t-89 214z" />
    <glyph glyph-name="doublecircle" horiz-adv-x="749" 
d="M160 580q0 -92 62 -158t152 -66q91 0 154 69t64 161q0 92 -64 155t-153 63q-91 0 -153 -65q-62 -67 -62 -159zM375 287q-121 0 -208 87t-87 208q0 120 87 206t208 86t207 -86t86 -206t-86 -208q-86 -87 -207 -87zM375 469q-45 0 -77 33t-32 79q0 45 32 79t77 34t77 -32
t32 -78q0 -47 -32 -81t-77 -34z" />
    <glyph glyph-name="triangle.left" horiz-adv-x="815" 
d="M692 227l-631 359l631 354v-713z" />
    <glyph glyph-name="raute" horiz-adv-x="729" 
d="M365 1049l303 -484l-303 -483l-304 483z" />
    <glyph glyph-name="triangleWhiteLeft" horiz-adv-x="1013" 
d="M377 584l358 -203v405zM891 1057v-946l-830 473z" />
    <glyph glyph-name="triangleWhiteRight" horiz-adv-x="1013" 
d="M279 381l360 203l-360 202v-405zM123 111v946l829 -473z" />
    <glyph glyph-name="arrow.right" horiz-adv-x="2048" 
d="M82 635v207h1534l-508 497l147 146l752 -746l-752 -745l-147 145l506 496h-1532z" />
    <glyph glyph-name="arrow.left" horiz-adv-x="2048" 
d="M1974 842v-207h-1532l504 -496l-145 -145l-752 745l752 746l145 -146l-506 -497h1534z" />
    <glyph glyph-name="arrow.up" horiz-adv-x="1843" 
d="M1024 -203h-207v1532l-495 -506l-146 148l746 751l745 -751l-145 -148l-498 508v-1534z" />
    <glyph glyph-name="arrow.down" horiz-adv-x="1843" 
d="M817 1681h207v-1534l498 508l145 -147l-745 -752l-746 752l146 147l495 -505v1531z" />
    <glyph glyph-name="arrow.leftup" horiz-adv-x="2048" 
d="M1753 131l-147 -147l-1082 1083l4 -707h-204l-5 1059l1059 -4v-205l-710 4z" />
    <glyph glyph-name="arrow.rightup" horiz-adv-x="2048" 
d="M463 -16l-148 147l1086 1083l-711 -4v205l1059 4l-4 -1059h-205l4 707z" />
    <glyph glyph-name="arrowleft.down" horiz-adv-x="2048" 
d="M1606 1436l147 -148l-1085 -1083l710 6v-207l-1059 -4l5 1059h204l-4 -707z" />
    <glyph glyph-name="arrowright.down" horiz-adv-x="2048" 
d="M315 1288l148 148l1081 -1084l-4 707h205l4 -1059l-1059 4v207l711 -6z" />
    <glyph glyph-name="arrowright.alt" horiz-adv-x="987" 
d="M823 586l-540 -404l-119 170l342 234l-342 231l119 170z" />
    <glyph glyph-name="arrowleft.alt" horiz-adv-x="987" 
d="M705 182l-541 404l541 401l118 -170l-342 -231l342 -234z" />
    <glyph glyph-name="arrowup.alt" horiz-adv-x="1130" 
d="M565 977l402 -541l-168 -119l-234 340l-233 -340l-168 119z" />
    <glyph glyph-name="arrowdown.alt" horiz-adv-x="1130" 
d="M565 193l-401 540l168 119l233 -340l234 340l168 -119z" />
    <glyph glyph-name="arrowleftup.alt" horiz-adv-x="993" 
d="M260 213l-96 668l665 -99l-34 -204l-406 75l78 -403z" />
    <glyph glyph-name="arrowrightup.alt" horiz-adv-x="993" 
d="M829 881l-96 -668l-205 37l78 403l-407 -75l-35 204z" />
    <glyph glyph-name="arrowleftdown.alt" horiz-adv-x="993" 
d="M164 213l96 668l207 -37l-78 -404l406 76l34 -203z" />
    <glyph glyph-name="arrowrightdown.alt" horiz-adv-x="993" 
d="M733 881l96 -668l-665 100l35 203l407 -76l-78 404z" />
    <glyph glyph-name="arrowlong.left" horiz-adv-x="2465" 
d="M2322 623v-164h-1865l403 -398l-117 -118l-600 598l600 596l117 -117l-403 -397h1865z" />
    <glyph glyph-name="arrowlong.right" horiz-adv-x="2465" 
d="M143 459v164h1864l-401 397l116 117l600 -596l-600 -598l-116 118l401 398h-1864z" />
    <glyph glyph-name="arrowlong.up" horiz-adv-x="1480" 
d="M823 -449h-166v1864l-397 -401l-117 116l596 601l598 -601l-116 -116l-398 401v-1864z" />
    <glyph glyph-name="arrowlong.down" horiz-adv-x="1480" 
d="M657 1686h166v-1864l398 401l116 -117l-598 -600l-596 600l117 117l397 -401v1864z" />
    <glyph glyph-name="arrowlong.leftup" horiz-adv-x="1886" 
d="M991 1409v-166l-567 4l1319 -1319l-117 -116l-1319 1318l4 -567h-164l-4 846h848z" />
    <glyph glyph-name="arrowlong.leftdown" horiz-adv-x="1886" 
d="M991 -188h-848l4 845h164l-4 -567l1319 1319l117 -117l-1319 -1319l567 4v-165z" />
    <glyph glyph-name="arrowlong.rightup" horiz-adv-x="1886" 
d="M895 1409h848l-4 -846h-164l2 567l-1317 -1318l-117 116l1317 1319l-565 -4v166z" />
    <glyph glyph-name="arrowlong.rightdown" horiz-adv-x="1886" 
d="M895 -188v165l565 -4l-1317 1319l117 117l1317 -1319l-2 567h164l4 -845h-848z" />
    <glyph glyph-name="ornm1" horiz-adv-x="1363" 
d="M879 250h-197q27 28 27 72t-45 73q45 29 45 80t-45 80q45 29 45 74t-29 73h129v27h-219q-29 1 -49 21t-21 49q0 29 20 49t50 20h305q41 0 73 -61t81 -62h233v-403h-233q-47 0 -83 -46t-87 -46zM680 635q0 -29 -18 -47t-48 -19h-165q-27 1 -47 19t-19 47q0 29 19 47t47 18
h165q30 0 48 -18t18 -47zM680 475q0 -29 -18 -47t-48 -18h-165q-27 0 -47 18q-19 18 -19 47t19 47t47 19h165q30 -1 48 -19t18 -47zM680 315q0 -29 -18 -47t-48 -18h-165q-27 0 -47 18q-19 18 -19 47t19 47t47 19h165q30 -1 48 -19t18 -47zM492 800q0 -40 30 -71h-411
q-29 1 -49 21t-21 49q0 29 20 49t50 20h409q-28 -28 -28 -68z" />
    <glyph glyph-name="ornm2" horiz-adv-x="1363" 
d="M684 635q0 29 18 47t48 18h165q27 0 47 -18t19 -47q0 -29 -19 -47t-47 -19h-165q-30 1 -48 19t-18 47zM684 475q0 29 18 47t48 19h165q27 -1 47 -19t19 -47q0 -29 -19 -47t-47 -18h-165q-29 0 -48 18q-18 18 -18 47zM684 315q0 29 18 47t48 19h165q27 -1 47 -19t19 -47
q0 -29 -19 -47t-47 -18h-165q-29 0 -48 18q-18 18 -18 47zM82 745h233q49 -1 81 61t73 62h305q29 0 49 -20q21 -20 21 -49t-20 -49t-50 -21h-219v-27h129q-29 -30 -29 -74t45 -73q-45 -29 -45 -80t45 -80q-45 -29 -45 -74t27 -71h-207q-41 0 -76 46t-84 46h-233v403z
M872 800q0 40 -28 68h409q29 0 49 -20t21 -49q0 -29 -20 -49t-50 -21h-411q30 31 30 71z" />
    <glyph glyph-name="ornm3" horiz-adv-x="2252" 
d="M494 199l-48 116l297 121l48 -119zM420 453l22 -125l-317 -60l-23 123zM1759 846l47 -117l-297 -121l-47 119zM1833 592l-23 125l318 59l22 -123zM1450 -111l-117 -47l-121 297l119 47zM1196 -184l125 22l59 -317l-123 -23zM803 1155l117 47l120 -297l-118 -47z
M1057 1229l-125 -23l-60 318l123 22zM446 729l48 117l297 -119l-48 -119zM569 963l-69 -105l-271 176l70 107zM1806 315l-47 -116l-297 118l47 119zM1683 82l70 104l270 -176l-69 -106zM920 -158l-117 47l119 297l118 -47zM686 -35l105 -69l-177 -271l-106 70zM1333 1202
l117 -47l-119 -297l-119 47zM1567 1079l-105 70l176 270l107 -69zM580 979l90 90l227 -227l-90 -90zM784 1147l-104 -70l-180 266l106 72zM1673 66l-90 -91l-227 228l90 90zM1468 -102l105 69l180 -266l-106 -72zM670 -25l-90 91l227 227l90 -90zM502 180l69 -104l-266 -180
l-72 106zM1583 1069l90 -90l-227 -227l-90 90zM1751 864l-70 105l267 180l71 -107zM418 459v127h321v-127h-321zM444 723l-24 -125l-316 64l25 124zM1835 586v-127h-322v127h322zM1808 322l25 124l315 -63l-24 -125zM1190 -186h-127v321h127v-321zM926 -160l125 -24
l-64 -316l-125 25zM1063 1231h127v-322h-127v322zM1327 1204l-125 25l64 315l125 -24z" />
    <glyph glyph-name="ornm4" horiz-adv-x="2404" 
d="M543 523q0 -39 -28 -65q-27 -26 -65 -26t-65 26t-27 65q0 38 27 66q27 27 65 27t66 -28t27 -65zM819 -207q-39 1 -65 27t-27 64q0 38 27 66q28 28 66 28t65 -28t27 -66t-28 -64q-26 -26 -65 -27zM457 155q-1 37 27 65t66 28t64 -28t27 -66q0 -38 -27 -64q-26 -27 -64 -27
t-66 27q-27 27 -27 65zM236 28q0 38 28 64t65 27q39 0 65 -27q26 -26 26 -64t-27 -66t-65 -28t-65 28t-27 66zM1280 523q0 -39 -27 -65t-65 -26t-64 26q-28 26 -28 65q0 38 27 66q28 27 66 27q39 0 65 -28t26 -65zM1956 1021q0 37 28 65t65 28q38 0 65 -28q26 -28 26 -66
t-26 -64t-65 -26q-38 0 -66 26q-27 27 -27 65zM1096 -214q0 38 28 64t65 27q39 0 65 -27q26 -26 26 -64t-27 -66t-65 -28t-65 28t-27 66zM1096 -470q0 38 28 64t65 27q39 0 65 -27q26 -26 26 -64t-27 -65t-65 -27t-65 27t-27 65zM1096 1519q0 39 28 65t65 26q39 0 65 -27
t26 -65t-27 -65q-27 -28 -65 -28t-65 28t-27 66zM1096 1263q0 39 28 65t65 26q39 0 65 -27t26 -65t-27 -64q-27 -27 -65 -27t-65 27t-27 65zM1686 1477q40 0 66 -28t26 -66q0 -39 -27 -65t-65 -26t-66 26q-27 26 -27 65q0 38 27 66t66 28zM287 523q0 -39 -27 -65
q-28 -26 -66 -26t-65 26t-27 65q0 38 27 66q27 27 66 27t65 -28t27 -65zM691 -428q-39 0 -65 26t-26 65q0 38 27 66q27 27 65 27t65 -28t27 -65q0 -39 -28 -65t-65 -26zM1735 894q-1 38 27 64t66 27q38 0 64 -27q26 -26 27 -64q0 -38 -27 -66q-26 -28 -64 -28t-66 28
q-27 28 -27 66zM2302 523q0 -39 -28 -65t-66 -26t-64 26t-26 65q0 38 26 66q27 27 65 27q37 0 65 -28t28 -65zM2046 523q0 -39 -28 -65t-66 -26t-64 26t-26 65q0 38 26 66q27 27 65 27q37 0 65 -28t28 -65zM457 894q-1 38 27 64t66 27q38 0 64 -27q26 -26 27 -64
q0 -38 -27 -66q-26 -28 -64 -28t-66 28q-27 28 -27 66zM236 1021q0 37 28 65t65 28q39 0 65 -28t26 -66t-27 -64t-65 -26t-65 26q-27 27 -27 65zM819 1071q-39 1 -65 27t-27 64q0 38 27 66q28 28 66 28t65 -28t27 -66t-28 -64q-26 -26 -65 -27zM691 1292q-39 0 -65 26
t-26 65q0 38 27 66t65 28t65 -28t27 -66q0 -39 -28 -65t-65 -26zM2163 13q0 -37 -27 -65q-26 -28 -64 -28t-66 28t-28 65q0 38 28 65q28 26 66 26t64 -26t27 -65zM1942 140q0 -38 -27 -64t-65 -27q-38 1 -66 27t-27 64q0 38 28 66q27 28 65 28t65 -28t27 -66zM1608 -358
q0 40 26 66t66 26t66 -27t26 -65t-27 -66q-27 -27 -65 -27t-66 27q-26 27 -26 66zM1481 -137q1 39 27 65t64 27q38 0 64 -27q26 -28 27 -66q0 -38 -27 -65q-26 -27 -64 -27t-65 27q-26 27 -26 66zM1649 1162q0 -38 -27 -64q-26 -26 -64 -27q-38 1 -65 27t-27 64t27 66t65 28
t64 -28t27 -66zM997 524q1 -80 57 -136t135 -56t135 56t56 136t-56 136t-135 56t-135 -56t-57 -136zM870 524q0 132 94 226t224 94q131 0 225 -94t94 -226t-94 -225q-94 -94 -225 -94q-130 0 -224 93t-94 226zM770 524q0 -174 122 -297t296 -123t297 123t123 297t-123 297
t-297 123t-296 -123t-122 -297zM643 524q0 225 160 386t386 161t386 -161t160 -386t-160 -386t-386 -161t-386 161t-160 386z" />
    <glyph glyph-name="ornm5" horiz-adv-x="2164" 
d="M1174 523q0 -39 -27 -65t-65 -26t-64 26t-27 65q0 38 27 66q26 27 64 27t65 -28t27 -65zM891 524q0 -80 56 -136t135 -56t136 56q56 56 56 136t-56 136t-136 56t-135 -56q-56 -56 -56 -136zM764 524q0 132 93 226t225 94t226 -93t93 -227q0 -134 -93 -226
q-94 -93 -226 -93t-225 94t-93 225zM664 524q0 -174 122 -297t297 -123q174 0 296 123t122 297t-122 297t-296 123q-175 0 -297 -123t-122 -297zM1014 1313h139v-248q35 -2 76 -16l192 450l127 -57l-190 -447q14 -6 59 -39l172 174l101 -98l-174 -174q23 -29 43 -65l452 182
l51 -131l-452 -182q4 -10 14 -68h246v-139h-246q-8 -53 -16 -78l448 -191l-55 -127l-447 189q-20 -35 -38 -58l174 -174l-101 -98l-172 174q-51 -37 -65 -45l182 -453l-131 -51l-182 453q-33 -8 -68 -12v-248h-139v248q-27 2 -80 14l-189 -449l-127 56l189 446
q-41 25 -57 41l-175 -174l-98 98l172 174q-25 31 -43 66l-452 -182l-52 129l451 184q-12 57 -12 68h-246v139h246q2 27 14 76l-446 192l55 127l446 -190q12 27 39 59l-172 174l98 98l175 -174q27 23 65 43l-182 455l129 51l182 -454q31 10 70 14v248z" />
    <glyph glyph-name="ornm6" horiz-adv-x="2263" 
d="M940 524q0 -80 56 -136t136 -56t135 56q56 56 56 136t-56 136t-135 56q-80 0 -136 -56t-56 -136zM813 524q0 132 93 226q94 94 226 94t225 -94t93 -226t-93 -225q-93 -94 -225 -94t-226 94q-93 94 -93 225zM713 524q0 -174 123 -297t297 -123q173 0 295 123t122 297
t-122 297t-296 123t-296 -123q-123 -123 -123 -297zM590 455h-488v139h488q2 27 14 76l-446 192l55 127l446 -188q16 27 39 57l-342 344l99 98l344 -344q27 23 65 43l-184 453l131 53l180 -454q31 10 72 14v487h139v-487q35 -2 76 -16l190 450l129 -57l-188 -447
q33 -18 57 -39l342 344l101 -98l-344 -344q18 -25 43 -67l452 184l51 -129l-452 -184q6 -23 14 -68h488v-139h-488q-8 -49 -16 -76l448 -193l-55 -127l-446 187q-31 -45 -39 -56l344 -344l-101 -98l-342 344q-45 -33 -67 -45l184 -453l-131 -51l-182 453q-33 -8 -68 -12
v-490h-139v490q-29 2 -78 14l-190 -449l-127 56l186 448q-25 12 -55 39l-344 -344l-99 98l342 344q-12 12 -45 66l-450 -182l-51 129l450 182q-12 66 -12 70z" />
    <glyph glyph-name="ornm7" horiz-adv-x="2205" 
d="M1196 523q0 -39 -28 -65t-66 -26t-64 26t-26 65q0 38 26 66q27 27 65 27q37 0 65 -28t28 -65zM911 524q1 -80 57 -136t135 -56t136 56t57 136t-57 136t-136 56t-135 -56t-57 -136zM784 524q0 132 94 226t226 94q133 0 226 -94t93 -226t-93 -225q-93 -94 -226 -94
q-132 0 -226 94t-94 225zM684 524q0 -174 123 -297t297 -123t297 123t123 297t-123 297t-297 123t-297 -123t-123 -297zM557 524q0 225 160 386t386 161t386 -161t160 -386t-160 -386t-386 -161t-386 161t-160 386zM457 524q0 -268 189 -457q190 -189 458 -189t456 188
q188 190 189 458q0 268 -189 458q-188 190 -456 189q-268 0 -458 -189q-189 -190 -189 -458zM330 524q0 322 226 548t548 226t547 -226t225 -548t-225 -548t-547 -226t-548 226t-226 548zM229 524q0 -362 256 -618q257 -256 619 -256t617 256t255 618t-255 618t-617 257
q-362 0 -619 -256q-256 -257 -256 -619zM102 524q0 270 134 502t365 366q229 134 501 134t502 -134t365 -366q134 -232 134 -502t-134 -501t-364 -365q-229 -134 -501 -135q-272 0 -503 134q-231 133 -365 365t-134 502z" />
    <glyph glyph-name="ornm8" horiz-adv-x="2265" 
d="M664 1446l129 55l254 -598l-129 -53zM1219 141l129 54l254 -596l-129 -56zM209 53l-55 129l598 254l53 -129zM1513 608l-53 129l596 254l55 -129zM147 846l54 129l602 -244l-51 -129zM1462 313l51 129l605 -243l-54 -129zM809 -463l-129 53l244 603l129 -52zM1341 852
l-129 51l244 604l129 -53zM352 1204l99 99l458 -459l-98 -99zM1356 201l98 98l459 -459l-98 -98zM451 -258l-99 98l459 459l98 -98zM1454 745l-98 99l459 459l98 -99zM98 453v139h652v-139h-652zM1516 453v139h651v-139h-651zM1202 -512h-139v651h139v-651zM1202 905h-139
v651h139v-651z" />
    <glyph glyph-name="ornm9" horiz-adv-x="1228" 
d="M1126 1024v-1024h-1024v1024h1024z" />
    <glyph glyph-name="zero.alt" horiz-adv-x="1132" 
d="M566 1192q-128 0 -198 -129t-69 -383q0 -254 70 -383q69 -129 197 -129t198 129t70 383t-70 383t-198 129zM566 1384q232 0 360 -187t129 -517q0 -330 -128 -517q-129 -187 -361 -187t-360 186q-128 188 -128 518t128 517t360 187z" />
    <glyph glyph-name="one.alt" horiz-adv-x="710" 
d="M526 0h-217v1104q-10 -6 -200 -90v200q147 74 276 146h141v-1360z" />
    <glyph glyph-name="two.alt" horiz-adv-x="1048" 
d="M522 1384q174 0 290 -98t116 -266t-138 -366t-378 -466h569v-188h-852v184q319 346 449 538t129 298q-1 78 -57 127t-139 49t-141 -58t-59 -149l-213 37q12 158 131 258t293 100z" />
    <glyph glyph-name="three.alt" horiz-adv-x="1038" 
d="M96 1171v189h811v-164l-360 -358q169 -8 277 -131t108 -300t-135 -305t-334 -127q-131 -1 -237 63t-167 175l170 92q82 -139 232 -139q102 0 177 73t75 175t-74 175t-162 73t-145 -44l-109 164l381 389h-508z" />
    <glyph glyph-name="four.alt" horiz-adv-x="1110" 
d="M657 541v495q-212 -302 -362 -495h362zM870 1360v-819h201v-189h-201v-352h-213v352h-591v215q360 461 602 793h202z" />
    <glyph glyph-name="five.alt" horiz-adv-x="1026" 
d="M541 852q171 0 285 -121t114 -307t-133 -318t-338 -131q-129 -1 -235 63t-166 175l170 92q80 -139 231 -139q102 0 177 72t75 180q1 108 -63 176t-179 68t-192 -84l-156 88q39 379 55 694h688v-189h-487q-12 -233 -27 -356q76 37 181 37z" />
    <glyph glyph-name="six.alt" horiz-adv-x="1067" 
d="M989 407q0 -177 -135 -305q-134 -128 -322 -127q-188 0 -321 126t-133 309q0 115 72 245q39 76 214 354t271 414l176 -106q-190 -283 -309 -494q31 10 82 11q160 0 282 -125t123 -302zM768 406q0 100 -68 170t-169 69q-100 -1 -166 -69t-66 -168t69 -171t170 -71
q102 0 166 70t64 170z" />
    <glyph glyph-name="seven.alt" horiz-adv-x="935" 
d="M897 1360v-154q-270 -559 -561 -1255l-199 88q109 258 522 1128h-639v193h877z" />
    <glyph glyph-name="eight.alt" horiz-adv-x="1144" 
d="M336 388q0 -93 68 -159q68 -65 167 -65q98 0 167 66t69 158q0 93 -68 159q-68 65 -167 65t-168 -65q-68 -66 -68 -159zM371 999q0 -82 58 -140t142 -58t144 58q59 58 59 140q0 81 -59 139t-143 58t-143 -58q-58 -58 -58 -139zM1028 387q0 -172 -133 -292t-323 -120
t-323 121q-132 121 -132 291q0 105 54 193t146 137q-164 96 -163 284q0 158 121 271q122 112 297 112t297 -112t122 -271q0 -188 -164 -284q92 -49 147 -136q54 -88 54 -194z" />
    <glyph glyph-name="nine.alt" horiz-adv-x="1067" 
d="M78 953q0 177 135 304t323 127t320 -126q133 -126 133 -308q0 -102 -55 -212q-54 -110 -230 -387q-176 -278 -272 -414l-176 106q194 291 309 494q-41 -10 -84 -11q-159 0 -281 125t-122 302zM529 1196q-101 0 -165 -70t-65 -170q1 -100 69 -170t168 -71t166 69t66 170
t-69 171t-170 71z" />
    <glyph glyph-name="a.smcp" horiz-adv-x="1157" 
d="M571 891l-172 -469h346l-170 469h-4zM18 0l461 1180h209l451 -1180h-238l-88 238h-481l-86 -238h-228z" />
    <glyph glyph-name="b.smcp" horiz-adv-x="1140" 
d="M752 844q0 84 -65 120t-202 35h-96v-307h100q263 0 263 152zM791 339q1 87 -61 130t-167 43h-174v-332h82q158 0 229 31q91 41 91 128zM473 0h-297v1180h313q174 0 289 -50q186 -82 186 -266t-180 -250q227 -68 228 -274q0 -340 -539 -340z" />
    <glyph glyph-name="c.smcp" horiz-adv-x="1167" 
d="M729 -25q-274 0 -458 170q-183 171 -183 439t186 444t457 176q178 0 330 -96l-96 -160q-113 72 -236 72q-180 0 -300 -122t-120 -314t115 -308q115 -117 303 -116q137 0 252 82l106 -152q-162 -115 -356 -115z" />
    <glyph glyph-name="d.smcp" horiz-adv-x="1265" 
d="M389 184q184 0 291 27q287 66 287 371q0 258 -191 354q-123 59 -387 59v-811zM176 1180h176q348 0 496 -60t244 -190q96 -131 96 -346q0 -216 -112 -358t-278 -184t-438 -42h-184v1180z" />
    <glyph glyph-name="e.smcp" horiz-adv-x="1062" 
d="M915 0h-739v1180h739v-185h-526v-299h526v-184h-526v-328h526v-184z" />
    <glyph glyph-name="f.smcp" horiz-adv-x="911" 
d="M813 487h-424v-487h-213v1180h637v-185h-424v-323h424v-185z" />
    <glyph glyph-name="g.smcp" horiz-adv-x="1378" 
d="M1221 680v-469q-84 -111 -214 -173t-280 -63q-272 0 -456 170q-183 171 -183 439t186 444t452 176t462 -205l-144 -133q-127 154 -313 154t-304 -122t-118 -314t115 -308t293 -116t295 112v228h-275v180h484z" />
    <glyph glyph-name="h.smcp" horiz-adv-x="1363" 
d="M1188 0h-213v518h-586v-518h-213v1180h213v-478h586v478h213v-1180z" />
    <glyph glyph-name="i.smcp" horiz-adv-x="565" 
d="M389 0h-213v1180h213v-1180z" />
    <glyph glyph-name="j.smcp" horiz-adv-x="686" 
d="M297 338v842h213v-881q0 -143 -73 -233t-238 -91q-91 0 -187 43l58 166q54 -24 114 -24t86 34t27 144z" />
    <glyph glyph-name="k.smcp" horiz-adv-x="1150" 
d="M389 0h-213v1180h213v-555l457 555h254l-395 -463l425 -717h-249l-320 551l-172 -205v-346z" />
    <glyph glyph-name="l.smcp" horiz-adv-x="913" 
d="M893 0h-717v1180h213v-996h504v-184z" />
    <glyph glyph-name="m.smcp" horiz-adv-x="1671" 
d="M1495 1180v-1180h-213v907l-364 -907h-168l-361 907v-907h-213v1180h320l335 -879h5l342 879h317z" />
    <glyph glyph-name="msmcp.salt" horiz-adv-x="1550" 
d="M385 0h-209v1180h287l313 -664h2l312 664h284v-1180h-207v911l-319 -671h-148l-315 671v-911z" />
    <glyph glyph-name="n.smcp" horiz-adv-x="1392" 
d="M389 0h-213v1180h215l613 -834v834h213v-1180h-216l-612 834v-834z" />
    <glyph glyph-name="o.smcp" horiz-adv-x="1431" 
d="M1122 590q0 186 -114 308q-115 122 -291 122t-292 -122t-116 -308t116 -308t292 -122t291 122q114 122 114 308zM1343 590q0 -258 -180 -436t-447 -178q-268 0 -448 178t-180 436t180 436t448 178t447 -178q180 -178 180 -436z" />
    <glyph glyph-name="p.smcp" horiz-adv-x="1064" 
d="M786 812q0 128 -133 169q-47 14 -209 14h-55v-379h62q166 2 221 23q114 45 114 173zM389 0h-213v1180h230q166 0 231 -9q162 -23 266 -117q105 -94 105 -230t-81 -233t-191 -128t-310 -31h-37v-432z" />
    <glyph glyph-name="q.smcp" horiz-adv-x="1431" 
d="M1122 599q0 177 -114 299q-115 122 -291 122t-292 -122t-116 -308t116 -308t292 -122q90 0 162 33l-152 153l129 131l172 -172q94 117 94 294zM1343 594q0 -254 -172 -432l160 -162l-131 -131l-178 180q-141 -74 -305 -74q-269 1 -449 179t-180 436t180 436t448 178
t447 -178q180 -178 180 -432z" />
    <glyph glyph-name="r.smcp" horiz-adv-x="1171" 
d="M788 820q0 102 -71 141q-72 39 -277 38h-51v-358h53q178 0 263 38q83 39 83 141zM176 1180h287q283 0 415 -84t132 -271q0 -123 -73 -212t-196 -121l371 -492h-268l-340 461h-115v-461h-213v1180z" />
    </font>
</defs>
</svg>
